<?xml version="1.0" encoding="UTF-8" standalone="no"?>
<!-- Created with Inkscape (http://www.inkscape.org/) -->

<svg
   version="1.1"
   id="svg1"
   width="148.24001"
   height="107.12"
   viewBox="0 0 148.24001 107.12"
   sodipodi:docname="imagelabelled_5-0-1.pdf"
   xmlns:inkscape="http://www.inkscape.org/namespaces/inkscape"
   xmlns:sodipodi="http://sodipodi.sourceforge.net/DTD/sodipodi-0.dtd"
   xmlns="http://www.w3.org/2000/svg"
   xmlns:svg="http://www.w3.org/2000/svg">
  <defs
     id="defs1" />
  <sodipodi:namedview
     id="namedview1"
     pagecolor="#ffffff"
     bordercolor="#000000"
     borderopacity="0.25"
     inkscape:showpageshadow="2"
     inkscape:pageopacity="0.0"
     inkscape:pagecheckerboard="0"
     inkscape:deskcolor="#d1d1d1">
    <inkscape:page
       x="0"
       y="0"
       inkscape:label="1"
       id="page1"
       width="148.24001"
       height="107.12"
       margin="0"
       bleed="0" />
  </sodipodi:namedview>
  <g
     id="g1"
     inkscape:groupmode="layer"
     inkscape:label="1">
    <path
       id="path1"
       d="m 415.762,401.328 c 0,7.785 -6.309,14.094 -14.09,14.094 -7.785,0 -14.094,-6.309 -14.094,-14.094 0,-7.781 6.309,-14.09 14.094,-14.09 7.781,0 14.09,6.309 14.09,14.09 z"
       style="fill:#ffffff;fill-opacity:1;fill-rule:nonzero;stroke:#000000;stroke-width:3.985;stroke-linecap:butt;stroke-linejoin:miter;stroke-miterlimit:10;stroke-dasharray:none;stroke-opacity:1"
       transform="matrix(0.13333333,0,0,-0.13333333,0,107.12)" />
    <path
       id="path2"
       d="m 699.227,401.328 c 0,7.785 -6.309,14.094 -14.09,14.094 -7.782,0 -14.09,-6.309 -14.09,-14.094 0,-7.781 6.308,-14.09 14.09,-14.09 7.781,0 14.09,6.309 14.09,14.09 z"
       style="fill:#ffffff;fill-opacity:1;fill-rule:nonzero;stroke:#000000;stroke-width:3.985;stroke-linecap:butt;stroke-linejoin:miter;stroke-miterlimit:10;stroke-dasharray:none;stroke-opacity:1"
       transform="matrix(0.13333333,0,0,-0.13333333,0,107.12)" />
    <path
       id="path3"
       d="m 215.316,601.773 c 0,7.782 -6.308,14.09 -14.089,14.09 -7.782,0 -14.09,-6.308 -14.09,-14.09 0,-7.781 6.308,-14.089 14.09,-14.089 7.781,0 14.089,6.308 14.089,14.089 z"
       style="fill:#000000;fill-opacity:1;fill-rule:nonzero;stroke:#000000;stroke-width:3.985;stroke-linecap:butt;stroke-linejoin:miter;stroke-miterlimit:10;stroke-dasharray:none;stroke-opacity:1"
       transform="matrix(0.13333333,0,0,-0.13333333,0,107.12)" />
    <path
       id="path4"
       d="m 215.316,200.887 c 0,7.781 -6.308,14.09 -14.089,14.09 -7.782,0 -14.09,-6.309 -14.09,-14.09 0,-7.782 6.308,-14.09 14.09,-14.09 7.781,0 14.089,6.308 14.089,14.09 z"
       style="fill:#000000;fill-opacity:1;fill-rule:nonzero;stroke:#000000;stroke-width:3.985;stroke-linecap:butt;stroke-linejoin:miter;stroke-miterlimit:10;stroke-dasharray:none;stroke-opacity:1"
       transform="matrix(0.13333333,0,0,-0.13333333,0,107.12)" />
    <path
       id="path5"
       d="m 899.672,200.887 c 0,7.781 -6.309,14.09 -14.09,14.09 -7.785,0 -14.094,-6.309 -14.094,-14.09 0,-7.782 6.309,-14.09 14.094,-14.09 7.781,0 14.09,6.308 14.09,14.09 z"
       style="fill:#000000;fill-opacity:1;fill-rule:nonzero;stroke:#000000;stroke-width:3.985;stroke-linecap:butt;stroke-linejoin:miter;stroke-miterlimit:10;stroke-dasharray:none;stroke-opacity:1"
       transform="matrix(0.13333333,0,0,-0.13333333,0,107.12)" />
    <path
       id="path6"
       d="m 982.695,401.328 c 0,7.785 -6.308,14.094 -14.09,14.094 -7.781,0 -14.089,-6.309 -14.089,-14.094 0,-7.781 6.308,-14.09 14.089,-14.09 7.782,0 14.09,6.309 14.09,14.09 z"
       style="fill:#000000;fill-opacity:1;fill-rule:nonzero;stroke:#000000;stroke-width:3.985;stroke-linecap:butt;stroke-linejoin:miter;stroke-miterlimit:10;stroke-dasharray:none;stroke-opacity:1"
       transform="matrix(0.13333333,0,0,-0.13333333,0,107.12)" />
    <path
       id="path7"
       d="m 899.672,601.773 c 0,7.782 -6.309,14.09 -14.09,14.09 -7.785,0 -14.094,-6.308 -14.094,-14.09 0,-7.781 6.309,-14.089 14.094,-14.089 7.781,0 14.09,6.308 14.09,14.089 z"
       style="fill:#000000;fill-opacity:1;fill-rule:nonzero;stroke:#000000;stroke-width:3.985;stroke-linecap:butt;stroke-linejoin:miter;stroke-miterlimit:10;stroke-dasharray:none;stroke-opacity:1"
       transform="matrix(0.13333333,0,0,-0.13333333,0,107.12)" />
    <path
       id="path8"
       d="M 417.754,401.328 H 669.055"
       style="fill:none;stroke:#000000;stroke-width:3.985;stroke-linecap:butt;stroke-linejoin:miter;stroke-miterlimit:10;stroke-dasharray:none;stroke-opacity:1"
       transform="matrix(0.13333333,0,0,-0.13333333,0,107.12)" />
    <g
       id="g8"
       aria-label="M&#10;6&#10;M&#10;1&#10;1"
       transform="matrix(1.3333333,0,0,1.3333333,64.264533,47.440267)">
      <path
         id="path9"
         d="m 7.7351938,-4.7921141 c 0.082031,-0.3164062 0.09375,-0.3867187 0.65625,-0.3867187 0.1875,0 0.28125,0 0.28125,-0.1523438 0,-0.1054687 -0.1054688,-0.1054687 -0.2460938,-0.1054687 H 7.39535 c -0.2109375,0 -0.234375,0 -0.3398437,0.1523437 L 4.0437875,-0.73742656 3.3406625,-5.2257078 c -0.035156,-0.1992188 -0.035156,-0.2109375 -0.28125,-0.2109375 h -1.078125 c -0.140625,0 -0.2460937,0 -0.2460937,0.140625 0,0.1171875 0.1054687,0.1171875 0.234375,0.1171875 0.2578125,0 0.4921875,0 0.4921875,0.1289062 0,0.035156 -0.011719,0.035156 -0.035156,0.140625 l -1.0078125,4.05468754 c -0.09375,0.3984375 -0.3046875,0.57421875 -0.83203125,0.59765625 -0.046875,0 -0.15234375,0 -0.15234375,0.140625 0,0.05859375 0.046875,0.1171874975 0.12890625,0.1171874975 0.0234375,0 0.2109375,-0.0234374975 0.78515625,-0.0234374975 0.6328125,0 0.75,0.0234374975 0.8203125,0.0234374975 0.035156,0 0.1523438,0 0.1523438,-0.1523437475 0,-0.09375 -0.09375,-0.10546875 -0.140625,-0.10546875 -0.2929688,-0.0117188 -0.5273438,-0.0585938 -0.5273438,-0.33984375 0,-0.0351563 0.023437,-0.15234375 0.023437,-0.1640625 L 2.754725,-5.0850828 h 0.011719 l 0.7734375,4.87499999 c 0.023437,0.12890625 0.035156,0.2109374975 0.140625,0.2109374975 0.1171875,0 0.1640625,-0.0820312475 0.2226562,-0.1640624975 L 7.1726938,-5.1436766 h 0.011719 l -1.125,4.51171879 c -0.070312,0.3046875 -0.09375,0.375 -0.6796875,0.375 -0.1523437,0 -0.2460937,0 -0.2460937,0.140625 0,0.03515625 0.023437,0.1171874975 0.1289062,0.1171874975 0.1054688,0 0.3398438,-0.0117187475 0.4570313,-0.0234374975 H 6.223475 c 0.7382813,0 0.9375,0.0234374975 0.984375,0.0234374975 0.046875,0 0.1640625,0 0.1640625,-0.1523437475 0,-0.10546875 -0.1054687,-0.10546875 -0.234375,-0.10546875 -0.023437,0 -0.1757812,0 -0.3046875,-0.0234375 -0.1757812,-0.0117188 -0.1875,-0.0351563 -0.1875,-0.10546875 0,-0.046875 0.011719,-0.09375 0.023437,-0.12890625 z m 0,0"
         style="fill:#000000;fill-opacity:1;fill-rule:nonzero;stroke:none" />
      <path
         id="path10"
         d="m 9.1092172,-0.87219219 c 0.011719,-0.29296871 0.023437,-0.79687501 0.234375,-1.16015621 0.2578125,-0.4570313 0.65625,-0.6328125 1.0078128,-0.6328125 0.140625,0 0.410156,0.023437 0.5625,0.1875 -0.222657,0.035156 -0.257813,0.1875 -0.257813,0.28125 0,0.1640625 0.105469,0.2929687 0.28125,0.2929687 0.175781,0 0.292969,-0.1171875 0.292969,-0.3046875 0,-0.3632812 -0.269531,-0.65625 -0.878906,-0.65625 -0.9257816,0 -1.8398441,0.8085938 -1.8398441,2.07421876 0,1.453125 0.6796875,2.02734374 1.4648438,2.02734374 0.2343753,0 0.6445313,-0.035156 1.0078123,-0.38671874 0.1875,-0.19921875 0.421875,-0.43359375 0.421875,-0.9609375 0,-0.19921875 -0.02344,-0.5859375 -0.386719,-0.92578126 -0.210937,-0.1875 -0.46875,-0.3984375 -0.984375,-0.3984375 -0.4218746,0 -0.7265621,0.2109375 -0.9257808,0.56250001 z M 9.9764047,1.0145266 c -0.84375,0 -0.84375,-1.01953129 -0.84375,-1.25390629 0,-0.515625 0.3398437,-1.00781251 0.8789063,-1.00781251 0.304687,0 0.480469,0.1289063 0.632812,0.31640626 0.164063,0.234375 0.164063,0.50390625 0.164063,0.8203125 0,0.41015625 -0.01172,0.609375 -0.210938,0.85546875 C 10.445155,0.92077656 10.257655,1.0145266 9.9764047,1.0145266 Z m 0,0"
         style="fill:#000000;fill-opacity:1;fill-rule:nonzero;stroke:none" />
      <path
         id="path11"
         d="m -22.42008,-3.8135984 c 0.08203,-0.3164063 0.09375,-0.3867188 0.65625,-0.3867188 0.1875,0 0.28125,0 0.28125,-0.1523437 0,-0.1054688 -0.105468,-0.1054688 -0.246093,-0.1054688 h -1.03125 c -0.210938,0 -0.234375,0 -0.339844,0.1523438 l -3.011719,4.54687496 -0.703125,-4.48828126 c -0.03516,-0.1992187 -0.03516,-0.2109375 -0.28125,-0.2109375 h -1.078125 c -0.140625,0 -0.246094,0 -0.246094,0.140625 0,0.1171875 0.105469,0.1171875 0.234375,0.1171875 0.257813,0 0.492188,0 0.492188,0.1289063 0,0.035156 -0.01172,0.035156 -0.03516,0.140625 l -1.007813,4.05468746 c -0.09375,0.3984375 -0.304687,0.57421875 -0.832031,0.59765625 -0.04687,0 -0.152344,0 -0.152344,0.140625 0,0.0585938 0.04687,0.1171875 0.128906,0.1171875 0.02344,0 0.210938,-0.0234375 0.785157,-0.0234375 0.632812,0 0.75,0.0234375 0.820312,0.0234375 0.03516,0 0.152344,0 0.152344,-0.15234375 0,-0.09375 -0.09375,-0.10546875 -0.140625,-0.10546875 -0.292969,-0.0117188 -0.527344,-0.0585938 -0.527344,-0.33984375 0,-0.0351563 0.02344,-0.15234375 0.02344,-0.1640625 l 1.078125,-4.32421876 h 0.01172 l 0.773438,4.87500001 c 0.02344,0.12890625 0.03516,0.2109375 0.140625,0.2109375 0.117187,0 0.164062,-0.0820313 0.222656,-0.1640625 l 3.269531,-4.98046871 h 0.01172 l -1.125,4.51171871 c -0.07031,0.3046875 -0.09375,0.375 -0.679687,0.375 -0.152344,0 -0.246094,0 -0.246094,0.140625 0,0.0351563 0.02344,0.1171875 0.128906,0.1171875 0.105469,0 0.339844,-0.0117188 0.457031,-0.0234375 h 0.503907 c 0.738281,0 0.9375,0.0234375 0.984375,0.0234375 0.04687,0 0.164062,0 0.164062,-0.15234375 0,-0.10546875 -0.105469,-0.10546875 -0.234375,-0.10546875 -0.02344,0 -0.175781,0 -0.304687,-0.0234375 -0.175782,-0.0117188 -0.1875,-0.0351563 -0.1875,-0.10546875 0,-0.046875 0.01172,-0.09375 0.02344,-0.12890625 z m 0,0"
         style="fill:#000000;fill-opacity:1;fill-rule:nonzero;stroke:none" />
      <path
         id="path12"
         d="m -19.874181,-1.7100828 c 0,-0.1757813 -0.02344,-0.1757813 -0.199219,-0.1757813 -0.398437,0.375 -1.007812,0.375 -1.21875,0.375 v 0.234375 c 0.152344,0 0.550781,0 0.902344,-0.1640625 v 3.0234375 c 0,0.1875 0,0.2695313 -0.609375,0.2695313 h -0.257813 v 0.234375 c 0.328125,-0.023437 0.796875,-0.023437 1.125,-0.023437 0.339844,0 0.796875,0 1.136719,0.023437 v -0.234375 h -0.257812 c -0.621094,0 -0.621094,-0.082031 -0.621094,-0.2695313 z m 0,0"
         style="fill:#000000;fill-opacity:1;fill-rule:nonzero;stroke:none" />
      <path
         id="path13"
         d="m -33.649572,-24.593872 c 0,-0.234375 0,-0.257812 -0.234375,-0.257812 -0.609375,0.632812 -1.488281,0.632812 -1.804687,0.632812 v 0.316406 c 0.199218,0 0.785156,0 1.300781,-0.257812 v 5.15625 c 0,0.351562 -0.03516,0.480469 -0.925781,0.480469 h -0.316407 v 0.304687 c 0.351563,-0.03516 1.207032,-0.03516 1.605469,-0.03516 0.398438,0 1.265625,0 1.617188,0.03516 v -0.304687 h -0.316407 c -0.902343,0 -0.925781,-0.117188 -0.925781,-0.480469 z m 0,0"
         style="fill:#000000;fill-opacity:1;fill-rule:nonzero;stroke:none" />
    </g>
    <path
       id="path14"
       d="M 390.297,412.703 212.602,590.398"
       style="fill:none;stroke:#000000;stroke-width:3.985;stroke-linecap:butt;stroke-linejoin:miter;stroke-miterlimit:10;stroke-dasharray:none;stroke-opacity:1"
       transform="matrix(0.13333333,0,0,-0.13333333,0,107.12)" />
    <g
       id="g14"
       aria-label="M&#10;2&#10;2"
       transform="matrix(1.3333333,0,0,1.3333333,37.6104,77.8116)">
      <path
         id="path15"
         d="m 7.7336063,-4.7922938 c 0.082031,-0.3164062 0.09375,-0.3867187 0.65625,-0.3867187 0.1875,0 0.28125,0 0.28125,-0.1523438 0,-0.1054687 -0.1054688,-0.1054687 -0.2460938,-0.1054687 h -1.03125 c -0.2109375,0 -0.234375,0 -0.3398437,0.1523437 L 4.0422,-0.73760625 3.339075,-5.2258875 C 3.3039188,-5.4251063 3.3039188,-5.436825 3.057825,-5.436825 H 1.9797 c -0.140625,0 -0.2460937,0 -0.2460937,0.140625 0,0.1171875 0.1054687,0.1171875 0.234375,0.1171875 0.2578125,0 0.4921875,0 0.4921875,0.1289062 0,0.035156 -0.011719,0.035156 -0.035156,0.140625 L 1.4172,-0.85479375 c -0.09375,0.3984375 -0.3046875,0.57421875 -0.83203125,0.59765625 -0.046875,0 -0.15234375,0 -0.15234375,0.140625 0,0.05859375 0.046875,0.1171875 0.12890625,0.1171875 0.0234375,0 0.2109375,-0.0234375 0.78515625,-0.0234375 0.6328125,0 0.75,0.0234375 0.8203125,0.0234375 0.035156,0 0.1523438,0 0.1523438,-0.15234375 0,-0.09375 -0.09375,-0.10546875 -0.140625,-0.10546875 C 1.88595,-0.26885625 1.651575,-0.31573125 1.651575,-0.59698125 c 0,-0.0351563 0.023437,-0.15234375 0.023437,-0.1640625 L 2.753137,-5.0852625 h 0.011719 l 0.7734375,4.875 c 0.023437,0.12890625 0.035156,0.2109375 0.140625,0.2109375 0.1171875,0 0.1640625,-0.08203125 0.2226562,-0.1640625 L 7.171106,-5.1438563 h 0.011719 l -1.125,4.5117188 c -0.070312,0.3046875 -0.09375,0.375 -0.6796875,0.375 -0.1523437,0 -0.2460937,0 -0.2460937,0.140625 0,0.03515625 0.023437,0.1171875 0.1289062,0.1171875 0.1054688,0 0.3398438,-0.01171875 0.4570313,-0.0234375 h 0.5039062 c 0.7382813,0 0.9375,0.0234375 0.984375,0.0234375 0.046875,0 0.1640625,0 0.1640625,-0.15234375 0,-0.10546875 -0.1054687,-0.10546875 -0.234375,-0.10546875 -0.023437,0 -0.1757812,0 -0.3046875,-0.0234375 -0.1757812,-0.0117188 -0.1875,-0.0351563 -0.1875,-0.10546875 0,-0.046875 0.011719,-0.09375 0.023437,-0.12890625 z m 0,0"
         style="fill:#000000;fill-opacity:1;fill-rule:nonzero;stroke:none" />
      <path
         id="path16"
         d="m 11.345911,-0.00518438 h -0.210938 c -0.02344,0.08203125 -0.08203,0.46875 -0.164062,0.5390625 -0.04687,0.0351563 -0.527344,0.0351563 -0.609375,0.0351563 H 9.2365359 l 0.7734371,-0.62109375 c 0.199219,-0.1640625 0.726563,-0.5390625 0.914063,-0.7265625 0.175781,-0.17578125 0.421875,-0.48046867 0.421875,-0.90234367 0,-0.75 -0.667969,-1.1835938 -1.4765626,-1.1835938 -0.7617187,0 -1.3007812,0.5039063 -1.3007812,1.0664063 0,0.3046875 0.2578125,0.3398437 0.3164062,0.3398437 0.1523438,0 0.328125,-0.1054687 0.328125,-0.3164062 0,-0.140625 -0.082031,-0.328125 -0.3398437,-0.328125 0.1289062,-0.3046875 0.5039062,-0.5273439 0.9140625,-0.5273439 0.6210938,0 0.9609378,0.46875 0.9609378,0.9492189 0,0.421875 -0.28125,0.85546867 -0.703125,1.24218742 l -1.4179691,1.3007812 c -0.058594,0.0585938 -0.058594,0.0585938 -0.058594,0.24609378 H 11.17013 Z m 0,0"
         style="fill:#000000;fill-opacity:1;fill-rule:nonzero;stroke:none" />
      <path
         id="path17"
         d="m -15.323034,10.354191 1.054687,-1.0312504 c 1.558594,-1.3710937 2.15625,-1.9101562 2.15625,-2.90625 0,-1.1367187 -0.902344,-1.9335937 -2.121094,-1.9335937 -1.125,0 -1.851562,0.9140625 -1.851562,1.8046875 0,0.5507812 0.492187,0.5507812 0.527344,0.5507812 0.164062,0 0.515625,-0.1171875 0.515625,-0.5273437 0,-0.2578125 -0.1875,-0.515625 -0.527344,-0.515625 -0.08203,0 -0.105469,0 -0.128906,0.011719 0.222656,-0.6445312 0.761718,-1.0195312 1.335937,-1.0195312 0.914063,0 1.335938,0.8085937 1.335938,1.6289062 0,0.796875 -0.492188,1.5820313 -1.042969,2.203125 l -1.910156,2.1328121 c -0.105469,0.105469 -0.105469,0.128906 -0.105469,0.363281 h 3.691406 l 0.28125,-1.7343743 h -0.257812 c -0.04687,0.3046875 -0.117188,0.7382813 -0.210938,0.8906243 -0.07031,0.08203 -0.726562,0.08203 -0.949219,0.08203 z m 0,0"
         style="fill:#000000;fill-opacity:1;fill-rule:nonzero;stroke:none" />
    </g>
    <path
       id="path18"
       d="M 390.297,389.957 212.602,212.262"
       style="fill:none;stroke:#000000;stroke-width:3.985;stroke-linecap:butt;stroke-linejoin:miter;stroke-miterlimit:10;stroke-dasharray:none;stroke-opacity:1"
       transform="matrix(0.13333333,0,0,-0.13333333,0,107.12)" />
    <g
       id="g18"
       aria-label="M&#10;3&#10;3"
       transform="matrix(1.3333333,0,0,1.3333333,92.7464,77.054933)">
      <path
         id="path19"
         d="m 7.7341453,-4.7931531 c 0.082031,-0.3164063 0.09375,-0.3867188 0.65625,-0.3867188 0.1875,0 0.28125,0 0.28125,-0.1523437 0,-0.1054688 -0.1054687,-0.1054688 -0.2460937,-0.1054688 h -1.03125 c -0.2109375,0 -0.234375,0 -0.3398438,0.1523438 L 4.0427391,-0.73846563 3.3396141,-5.2267469 c -0.035156,-0.1992187 -0.035156,-0.2109375 -0.28125,-0.2109375 h -1.078125 c -0.140625,0 -0.2460938,0 -0.2460938,0.140625 0,0.1171875 0.1054688,0.1171875 0.234375,0.1171875 0.2578125,0 0.4921875,0 0.4921875,0.1289063 0,0.035156 -0.011719,0.035156 -0.035156,0.140625 l -1.0078125,4.05468747 c -0.09375,0.3984375 -0.3046875,0.57421875 -0.83203129,0.59765625 -0.046875,0 -0.15234375,0 -0.15234375,0.140625 0,0.05859375 0.046875,0.117187505 0.12890625,0.117187505 0.0234375,0 0.2109375,-0.023437505 0.78515629,-0.023437505 0.6328125,0 0.75,0.023437505 0.8203125,0.023437505 0.035156,0 0.1523437,0 0.1523437,-0.152343755 0,-0.09375 -0.09375,-0.10546875 -0.140625,-0.10546875 -0.2929687,-0.0117188 -0.5273437,-0.0585938 -0.5273437,-0.33984375 0,-0.0351563 0.023437,-0.15234375 0.023437,-0.1640625 l 1.078125,-4.32421877 h 0.011719 l 0.7734375,4.87500002 c 0.023437,0.12890625 0.035156,0.210937505 0.140625,0.210937505 0.1171875,0 0.1640625,-0.082031255 0.2226563,-0.164062505 L 7.1716453,-5.1447156 h 0.011719 l -1.125,4.51171872 c -0.070312,0.3046875 -0.09375,0.375 -0.6796875,0.375 -0.1523438,0 -0.2460938,0 -0.2460938,0.140625 0,0.03515625 0.023437,0.117187505 0.1289063,0.117187505 0.1054687,0 0.3398437,-0.011718755 0.4570312,-0.023437505 h 0.5039063 c 0.7382812,0 0.9375,0.023437505 0.984375,0.023437505 0.046875,0 0.1640625,0 0.1640625,-0.152343755 0,-0.10546875 -0.1054688,-0.10546875 -0.234375,-0.10546875 -0.023437,0 -0.1757813,0 -0.3046875,-0.0234375 -0.1757813,-0.0117188 -0.1875,-0.0351563 -0.1875,-0.10546875 0,-0.046875 0.011719,-0.09375 0.023437,-0.12890625 z m 0,0"
         style="fill:#000000;fill-opacity:1;fill-rule:nonzero;stroke:none" />
      <path
         id="path20"
         d="m 9.893325,-0.87323125 c 0.503906,0 0.84375,0.33984375 0.84375,0.94921875 0,0.65625 -0.386719,0.9375 -0.8320312,0.9375 -0.1523438,0 -0.7734375,-0.0351563 -1.0429688,-0.375 C 9.09645,0.61505 9.1902,0.4509875 9.1902,0.29864375 9.1902,0.08770625 9.049575,-0.0412 8.8503563,-0.0412 c -0.1640625,0 -0.3398438,0.09375 -0.3398438,0.3515625 0,0.5859375 0.65625,0.9257812 1.4179688,0.9257812 0.8789067,0 1.4765627,-0.5742187 1.4765627,-1.1601562 0,-0.43359375 -0.339844,-0.90234375 -1.042969,-1.078125 0.46875,-0.1523438 0.855469,-0.5390625 0.855469,-1.03125 0,-0.4804688 -0.5625,-0.8320313 -1.277344,-0.8320313 -0.703125,0 -1.2421875,0.3164063 -1.2421875,0.8085938 0,0.2578125 0.1992188,0.328125 0.3164063,0.328125 0.1640625,0 0.328125,-0.1054688 0.328125,-0.3164063 0,-0.1875 -0.140625,-0.2929687 -0.2929688,-0.3164062 C 9.3191063,-2.6662 9.8698875,-2.6662 9.9167625,-2.6662 c 0.3046875,0 0.6914065,0.140625 0.6914065,0.6328125 0,0.328125 -0.1875,0.9023437 -0.7851565,0.9375 -0.1054687,0.011719 -0.2695312,0.023437 -0.3164062,0.023437 -0.058594,0 -0.1289063,0.011719 -0.1289063,0.10546875 0,0.09375 0.070312,0.09375 0.1640625,0.09375 z m 0,0"
         style="fill:#000000;fill-opacity:1;fill-rule:nonzero;stroke:none" />
      <path
         id="path21"
         d="m 25.414809,8.1795031 c 0.808594,-0.2695312 1.394532,-0.9726562 1.394532,-1.7578125 0,-0.8203125 -0.878907,-1.3710937 -1.839844,-1.3710937 -1.007813,0 -1.757813,0.5976562 -1.757813,1.3476562 0,0.3398438 0.210938,0.5273438 0.503907,0.5273438 0.304687,0 0.503906,-0.2226563 0.503906,-0.515625 0,-0.4921875 -0.46875,-0.4921875 -0.609375,-0.4921875 0.304687,-0.4921875 0.960937,-0.6210938 1.324219,-0.6210938 0.410156,0 0.949218,0.2226563 0.949218,1.1132813 0,0.1289062 -0.01172,0.703125 -0.269531,1.1367187 -0.304687,0.4804688 -0.644531,0.515625 -0.890625,0.515625 -0.08203,0.011719 -0.316406,0.035156 -0.386719,0.035156 -0.08203,0.011719 -0.152343,0.023437 -0.152343,0.1171875 0,0.1171875 0.07031,0.1171875 0.234375,0.1171875 h 0.445312 c 0.808594,0 1.183594,0.6679687 1.183594,1.6523437 0,1.3476567 -0.691406,1.6406257 -1.125,1.6406257 -0.433594,0 -1.171875,-0.175782 -1.523438,-0.761719 0.351563,0.05859 0.65625,-0.164063 0.65625,-0.539063 0,-0.3632812 -0.269531,-0.5624999 -0.5625,-0.5624999 -0.234375,0 -0.550781,0.140625 -0.550781,0.5742189 0,0.914063 0.925781,1.570313 2.003906,1.570313 1.21875,0 2.121094,-0.914063 2.121094,-1.9218757 0,-0.8203125 -0.621094,-1.59375 -1.652344,-1.8046872 z m 0,0"
         style="fill:#000000;fill-opacity:1;fill-rule:nonzero;stroke:none" />
    </g>
    <path
       id="path22"
       d="M 696.512,389.957 874.207,212.262"
       style="fill:none;stroke:#000000;stroke-width:3.985;stroke-linecap:butt;stroke-linejoin:miter;stroke-miterlimit:10;stroke-dasharray:none;stroke-opacity:1"
       transform="matrix(0.13333333,0,0,-0.13333333,0,107.12)" />
    <g
       id="g22"
       aria-label="M&#10;4&#10;4"
       transform="matrix(1.3333333,0,0,1.3333333,104.47187,64.258533)">
      <path
         id="path23"
         d="m 7.7349672,-4.7935094 c 0.082031,-0.3164062 0.09375,-0.3867187 0.65625,-0.3867187 0.1875,0 0.28125,0 0.28125,-0.1523438 0,-0.1054687 -0.1054688,-0.1054687 -0.2460938,-0.1054687 h -1.03125 c -0.2109375,0 -0.234375,0 -0.3398437,0.1523437 L 4.0435609,-0.73882187 3.3404359,-5.2271031 c -0.035156,-0.1992188 -0.035156,-0.2109375 -0.28125,-0.2109375 h -1.078125 c -0.140625,0 -0.2460937,0 -0.2460937,0.140625 0,0.1171875 0.1054687,0.1171875 0.234375,0.1171875 0.2578125,0 0.4921875,0 0.4921875,0.1289062 0,0.035156 -0.011719,0.035156 -0.035156,0.140625 l -1.0078125,4.05468753 c -0.09375,0.3984375 -0.3046875,0.57421875 -0.83203121,0.59765625 -0.046875,0 -0.15234375,0 -0.15234375,0.140625 0,0.05859375 0.046875,0.117187495 0.12890625,0.117187495 0.0234375,0 0.2109375,-0.023437495 0.78515621,-0.023437495 0.6328125,0 0.75,0.023437495 0.8203125,0.023437495 0.035156,0 0.1523438,0 0.1523438,-0.152343745 0,-0.09375 -0.09375,-0.10546875 -0.140625,-0.10546875 -0.2929688,-0.0117188 -0.5273438,-0.0585938 -0.5273438,-0.33984375 0,-0.0351563 0.023437,-0.15234375 0.023437,-0.1640625 l 1.078125,-4.32421873 h 0.011719 l 0.7734375,4.87499998 c 0.023437,0.12890625 0.035156,0.210937495 0.140625,0.210937495 0.1171875,0 0.1640625,-0.082031245 0.2226562,-0.164062495 L 7.1724672,-5.1450719 h 0.011719 l -1.125,4.51171878 c -0.070312,0.3046875 -0.09375,0.375 -0.6796875,0.375 -0.1523437,0 -0.2460937,0 -0.2460937,0.140625 0,0.03515625 0.023437,0.117187495 0.1289062,0.117187495 0.1054688,0 0.3398438,-0.011718745 0.4570313,-0.023437495 h 0.5039062 c 0.7382813,0 0.9375,0.023437495 0.984375,0.023437495 0.046875,0 0.1640625,0 0.1640625,-0.152343745 0,-0.10546875 -0.1054687,-0.10546875 -0.234375,-0.10546875 -0.023437,0 -0.1757812,0 -0.3046875,-0.0234375 -0.1757812,-0.0117188 -0.1875,-0.0351563 -0.1875,-0.10546875 0,-0.046875 0.011719,-0.09375 0.023437,-0.12890625 z m 0,0"
         style="fill:#000000;fill-opacity:1;fill-rule:nonzero;stroke:none" />
      <path
         id="path24"
         d="m 11.511334,0.12250625 v -0.234375 H 10.808209 V -2.7485875 c 0,-0.140625 0,-0.1757812 -0.152343,-0.1757812 -0.105469,0 -0.117188,0.011719 -0.175782,0.082031 l -2.0742184,2.73046875 v 0.234375 H 10.269147 V 0.602975 c 0,0.19921875 0,0.26953125 -0.5039064,0.26953125 H 9.5894594 V 1.1068813 c 0.1289062,-0.011719 0.6914066,-0.023437 0.9492186,-0.023437 0.257813,0 0.820313,0.011719 0.949219,0.023437 V 0.87250625 h -0.175781 c -0.503907,0 -0.503907,-0.0703125 -0.503907,-0.26953125 V 0.12250625 Z M 10.316022,-2.2798375 v 2.16796875 H 8.6636781 Z m 0,0"
         style="fill:#000000;fill-opacity:1;fill-rule:nonzero;stroke:none" />
      <path
         id="path25"
         d="m 27.448834,-6.4165562 v 0.8671875 c 0,0.3515625 -0.02344,0.46875 -0.761718,0.46875 h -0.210938 v 0.3046875 c 0.410156,-0.035156 0.9375,-0.035156 1.347656,-0.035156 0.421875,0 0.949219,0 1.359375,0.035156 v -0.3046875 h -0.210937 c -0.738281,0 -0.761719,-0.1171875 -0.761719,-0.46875 v -0.8671875 h 0.996094 V -6.7329625 H 28.210553 V -11.2564 c 0,-0.199219 0,-0.257812 -0.152344,-0.257812 -0.09375,0 -0.117187,0 -0.199218,0.117187 l -3.058594,4.6640625 v 0.3164063 z m 0.05859,-0.3164063 h -2.425781 l 2.425781,-3.7148435 z m 0,0"
         style="fill:#000000;fill-opacity:1;fill-rule:nonzero;stroke:none" />
    </g>
    <path
       id="path26"
       d="m 701.223,401.328 h 251.3"
       style="fill:none;stroke:#000000;stroke-width:3.985;stroke-linecap:butt;stroke-linejoin:miter;stroke-miterlimit:10;stroke-dasharray:none;stroke-opacity:1"
       transform="matrix(0.13333333,0,0,-0.13333333,0,107.12)" />
    <g
       id="g26"
       aria-label="M&#10;5&#10;5"
       transform="matrix(1.3333333,0,0,1.3333333,103.71507,46.9184)">
      <path
         id="path27"
         d="m 7.7342078,-4.7932922 c 0.082031,-0.3164062 0.09375,-0.3867187 0.65625,-0.3867187 0.1875,0 0.28125,0 0.28125,-0.1523438 0,-0.1054687 -0.1054687,-0.1054687 -0.2460937,-0.1054687 h -1.03125 c -0.2109375,0 -0.234375,0 -0.3398438,0.1523437 L 4.0428016,-0.73860469 3.3396766,-5.2268859 c -0.035156,-0.1992188 -0.035156,-0.2109375 -0.28125,-0.2109375 h -1.078125 c -0.140625,0 -0.2460938,0 -0.2460938,0.140625 0,0.1171875 0.1054688,0.1171875 0.234375,0.1171875 0.2578125,0 0.4921875,0 0.4921875,0.1289062 0,0.035156 -0.011719,0.035156 -0.035156,0.140625 l -1.0078125,4.05468751 c -0.09375,0.3984375 -0.3046875,0.57421875 -0.83203129,0.59765625 -0.046875,0 -0.15234375,0 -0.15234375,0.140625 0,0.05859375 0.046875,0.1171875025 0.12890625,0.1171875025 0.0234375,0 0.2109375,-0.0234375025 0.78515629,-0.0234375025 0.6328125,0 0.75,0.0234375025 0.8203125,0.0234375025 0.035156,0 0.1523437,0 0.1523437,-0.1523437525 0,-0.09375 -0.09375,-0.10546875 -0.140625,-0.10546875 -0.2929687,-0.0117188 -0.5273437,-0.0585938 -0.5273437,-0.33984375 0,-0.0351563 0.023437,-0.15234375 0.023437,-0.1640625 l 1.078125,-4.32421871 h 0.011719 l 0.7734375,4.87499996 c 0.023437,0.12890625 0.035156,0.2109375025 0.140625,0.2109375025 0.1171875,0 0.1640625,-0.0820312525 0.2226563,-0.1640625025 L 7.1717078,-5.1448547 h 0.011719 l -1.125,4.51171876 c -0.070312,0.3046875 -0.09375,0.375 -0.6796875,0.375 -0.1523438,0 -0.2460938,0 -0.2460938,0.140625 0,0.03515625 0.023437,0.1171875025 0.1289063,0.1171875025 0.1054687,0 0.3398437,-0.0117187525 0.4570312,-0.0234375025 h 0.5039063 c 0.7382812,0 0.9375,0.0234375025 0.984375,0.0234375025 0.046875,0 0.1640625,0 0.1640625,-0.1523437525 0,-0.10546875 -0.1054688,-0.10546875 -0.234375,-0.10546875 -0.023437,0 -0.1757813,0 -0.3046875,-0.0234375 -0.1757813,-0.0117188 -0.1875,-0.0351563 -0.1875,-0.10546875 0,-0.046875 0.011719,-0.09375 0.023437,-0.12890625 z m 0,0"
         style="fill:#000000;fill-opacity:1;fill-rule:nonzero;stroke:none" />
      <path
         id="path28"
         d="m 9.1551063,-2.2093078 c 0.1992187,0.058594 0.3984375,0.082031 0.609375,0.082031 0.1289062,0 0.4570317,0 0.8437497,-0.2109375 0.09375,-0.058594 0.46875,-0.3046875 0.46875,-0.4335937 0,-0.082031 -0.05859,-0.09375 -0.08203,-0.09375 -0.02344,0 -0.02344,0 -0.09375,0.023437 -0.210937,0.082031 -0.515625,0.1640625 -0.9023437,0.1640625 -0.2929688,0 -0.6210938,-0.046875 -0.890625,-0.1523438 -0.058594,-0.023437 -0.082031,-0.035156 -0.1054688,-0.035156 -0.082031,0 -0.082031,0.058594 -0.082031,0.1640625 v 1.79296874 c 0,0.09375 0,0.1640625 0.1054687,0.1640625 0.058594,0 0.070312,-0.0234375 0.1171875,-0.0703125 0.140625,-0.18750004 0.4101563,-0.38671874 0.8789063,-0.38671874 0.726562,0 0.726562,0.89062499 0.726562,1.07812499 0,0.234375 -0.01172,0.57421875 -0.210937,0.8203125 -0.1875,0.22265625 -0.457031,0.31640621 -0.7148438,0.31640621 -0.4101562,0 -0.8320312,-0.22265621 -0.9726562,-0.57421871 0.2929687,0 0.328125,-0.234375 0.328125,-0.3046875 0,-0.1640625 -0.1171875,-0.3046875 -0.3046875,-0.3046875 -0.058594,0 -0.3046875,0.0234375 -0.3046875,0.328125 0,0.55078125 0.515625,1.07812501 1.265625,1.07812501 0.820312,0 1.511719,-0.58593751 1.511719,-1.33593751 0,-0.6796875 -0.550782,-1.30078129 -1.3125,-1.30078129 -0.386719,0 -0.6914065,0.1289063 -0.8789065,0.2929688 z m 0,0"
         style="fill:#000000;fill-opacity:1;fill-rule:nonzero;stroke:none" />
      <path
         id="path29"
         d="m 18.770341,-19.831378 c 0,-1.183594 -0.820313,-2.179688 -1.898438,-2.179688 -0.480469,0 -0.902344,0.164063 -1.265625,0.503907 v -1.933594 c 0.199219,0.05859 0.527344,0.128906 0.84375,0.128906 1.230469,0 1.933594,-0.914062 1.933594,-1.042969 0,-0.05859 -0.03516,-0.105468 -0.105469,-0.105468 -0.01172,0 -0.03516,0 -0.08203,0.02344 -0.199219,0.09375 -0.679688,0.292969 -1.347656,0.292969 -0.398438,0 -0.855469,-0.07031 -1.324219,-0.28125 -0.08203,-0.02344 -0.105469,-0.02344 -0.128906,-0.02344 -0.09375,0 -0.09375,0.08203 -0.09375,0.234375 v 2.953125 c 0,0.175782 0,0.257813 0.140625,0.257813 0.07031,0 0.08203,-0.03516 0.128906,-0.09375 0.105469,-0.152344 0.480469,-0.691406 1.277344,-0.691406 0.527343,0 0.773437,0.457031 0.855468,0.632812 0.152344,0.375 0.175782,0.761719 0.175782,1.253906 0,0.351563 0,0.949219 -0.234375,1.371094 -0.246094,0.386719 -0.609375,0.644531 -1.066407,0.644531 -0.726562,0 -1.300781,-0.527343 -1.464843,-1.113281 0.02344,0.01172 0.05859,0.01172 0.164062,0.01172 0.328125,0 0.503906,-0.246094 0.503906,-0.480469 0,-0.246094 -0.175781,-0.492187 -0.503906,-0.492187 -0.140625,0 -0.480469,0.07031 -0.480469,0.527343 0,0.855469 0.679688,1.828125 1.792969,1.828125 1.160156,0 2.179688,-0.960937 2.179688,-2.226562 z m 0,0"
         style="fill:#000000;fill-opacity:1;fill-rule:nonzero;stroke:none" />
    </g>
    <path
       id="path30"
       d="M 696.512,412.703 874.207,590.398"
       style="fill:none;stroke:#000000;stroke-width:3.985;stroke-linecap:butt;stroke-linejoin:miter;stroke-miterlimit:10;stroke-dasharray:none;stroke-opacity:1"
       transform="matrix(0.13333333,0,0,-0.13333333,0,107.12)" />
  </g>
</svg>
