<?xml version="1.0" encoding="UTF-8" standalone="no"?>
<!-- Created with Inkscape (http://www.inkscape.org/) -->

<svg
   version="1.1"
   id="svg1"
   width="110.44"
   height="110.86667"
   viewBox="0 0 110.44 110.86667"
   sodipodi:docname="imagelabelled_5-0-0.pdf"
   xmlns:inkscape="http://www.inkscape.org/namespaces/inkscape"
   xmlns:sodipodi="http://sodipodi.sourceforge.net/DTD/sodipodi-0.dtd"
   xmlns="http://www.w3.org/2000/svg"
   xmlns:svg="http://www.w3.org/2000/svg">
  <defs
     id="defs1" />
  <sodipodi:namedview
     id="namedview1"
     pagecolor="#ffffff"
     bordercolor="#000000"
     borderopacity="0.25"
     inkscape:showpageshadow="2"
     inkscape:pageopacity="0.0"
     inkscape:pagecheckerboard="0"
     inkscape:deskcolor="#d1d1d1">
    <inkscape:page
       x="0"
       y="0"
       inkscape:label="1"
       id="page1"
       width="110.44"
       height="110.86667"
       margin="0"
       bleed="0" />
  </sodipodi:namedview>
  <g
     id="g1"
     inkscape:groupmode="layer"
     inkscape:label="1">
    <path
       id="path1"
       d="m 415.762,415.371 c 0,7.781 -6.309,14.09 -14.09,14.09 -7.785,0 -14.094,-6.309 -14.094,-14.09 0,-7.781 6.309,-14.09 14.094,-14.09 7.781,0 14.09,6.309 14.09,14.09 z"
       style="fill:#ffffff;fill-opacity:1;fill-rule:nonzero;stroke:#000000;stroke-width:3.985;stroke-linecap:butt;stroke-linejoin:miter;stroke-miterlimit:10;stroke-dasharray:none;stroke-opacity:1"
       transform="matrix(0.13333333,0,0,-0.13333333,0,110.86667)" />
    <path
       id="path2"
       d="m 503.359,684.965 c 0,7.785 -6.308,14.094 -14.093,14.094 -7.782,0 -14.09,-6.309 -14.09,-14.094 0,-7.781 6.308,-14.09 14.09,-14.09 7.785,0 14.093,6.309 14.093,14.09 z"
       style="fill:#000000;fill-opacity:1;fill-rule:nonzero;stroke:#000000;stroke-width:3.985;stroke-linecap:butt;stroke-linejoin:miter;stroke-miterlimit:10;stroke-dasharray:none;stroke-opacity:1"
       transform="matrix(0.13333333,0,0,-0.13333333,0,110.86667)" />
    <g
       id="g2"
       aria-label="M&#10;1&#10;1"
       transform="matrix(1.3333333,0,0,1.3333333,42.603067,35.868267)">
      <path
         id="path3"
         d="m 7.7332469,-4.7937781 c 0.082031,-0.3164063 0.09375,-0.3867188 0.65625,-0.3867188 0.1875,0 0.28125,0 0.28125,-0.1523437 0,-0.1054688 -0.1054688,-0.1054688 -0.2460938,-0.1054688 h -1.03125 c -0.2109375,0 -0.234375,0 -0.3398437,0.1523438 L 4.0418406,-0.73909062 3.3387156,-5.2273719 c -0.035156,-0.1992187 -0.035156,-0.2109375 -0.28125,-0.2109375 h -1.078125 c -0.140625,0 -0.2460937,0 -0.2460937,0.140625 0,0.1171875 0.1054687,0.1171875 0.234375,0.1171875 0.2578125,0 0.4921875,0 0.4921875,0.1289063 0,0.035156 -0.011719,0.035156 -0.035156,0.140625 l -1.0078125,4.05468748 c -0.09375,0.3984375 -0.3046875,0.57421875 -0.83203122,0.59765625 -0.046875,0 -0.15234375,0 -0.15234375,0.140625 0,0.05859375 0.046875,0.117187495 0.12890625,0.117187495 0.0234375,0 0.2109375,-0.023437495 0.78515622,-0.023437495 0.6328125,0 0.75,0.023437495 0.8203125,0.023437495 0.035156,0 0.1523438,0 0.1523438,-0.152343745 0,-0.09375 -0.09375,-0.10546875 -0.140625,-0.10546875 -0.2929688,-0.0117188 -0.5273438,-0.0585938 -0.5273438,-0.33984375 0,-0.0351563 0.023437,-0.15234375 0.023437,-0.1640625 l 1.078125,-4.32421878 h 0.011719 l 0.7734375,4.87500003 c 0.023437,0.12890625 0.035156,0.210937495 0.140625,0.210937495 0.1171875,0 0.1640625,-0.082031245 0.2226562,-0.164062495 L 7.1707469,-5.1453406 h 0.011719 l -1.125,4.51171873 c -0.070312,0.3046875 -0.09375,0.375 -0.6796875,0.375 -0.1523437,0 -0.2460937,0 -0.2460937,0.140625 0,0.03515625 0.023437,0.117187495 0.1289062,0.117187495 0.1054688,0 0.3398438,-0.011718745 0.4570313,-0.023437495 h 0.5039062 c 0.7382813,0 0.9375,0.023437495 0.984375,0.023437495 0.046875,0 0.1640625,0 0.1640625,-0.152343745 0,-0.10546875 -0.1054687,-0.10546875 -0.234375,-0.10546875 -0.023437,0 -0.1757812,0 -0.3046875,-0.0234375 -0.1757812,-0.0117188 -0.1875,-0.0351563 -0.1875,-0.10546875 0,-0.046875 0.011719,-0.09375 0.023437,-0.12890625 z m 0,0"
         style="fill:#000000;fill-opacity:1;fill-rule:nonzero;stroke:none" />
      <path
         id="path4"
         d="m 10.279145,-2.6902625 c 0,-0.1757812 -0.02344,-0.1757812 -0.199218,-0.1757812 -0.3984379,0.375 -1.0078129,0.375 -1.2187504,0.375 v 0.234375 c 0.1523437,0 0.5507812,0 0.9023437,-0.1640625 v 3.02343745 c 0,0.1875 0,0.26953125 -0.609375,0.26953125 H 8.8963328 v 0.234375 c 0.328125,-0.023437 0.796875,-0.023437 1.1250002,-0.023437 0.339844,0 0.796875,0 1.136719,0.023437 v -0.234375 h -0.257813 c -0.621094,0 -0.621094,-0.0820313 -0.621094,-0.26953125 z m 0,0"
         style="fill:#000000;fill-opacity:1;fill-rule:nonzero;stroke:none" />
      <path
         id="path5"
         d="m 20.040864,-23.499833 c 0,-0.234375 0,-0.257812 -0.234375,-0.257812 -0.609375,0.632812 -1.488281,0.632812 -1.804687,0.632812 v 0.316406 c 0.199218,0 0.785156,0 1.300781,-0.257812 v 5.15625 c 0,0.351562 -0.03516,0.480469 -0.925781,0.480469 h -0.316407 v 0.304687 c 0.351563,-0.03516 1.207032,-0.03516 1.605469,-0.03516 0.398438,0 1.265625,0 1.617188,0.03516 v -0.304687 h -0.316407 c -0.902343,0 -0.925781,-0.117188 -0.925781,-0.480469 z m 0,0"
         style="fill:#000000;fill-opacity:1;fill-rule:nonzero;stroke:none" />
    </g>
    <path
       id="path6"
       d="m 406.641,430.664 77.656,239.008"
       style="fill:none;stroke:#000000;stroke-width:3.985;stroke-linecap:butt;stroke-linejoin:miter;stroke-miterlimit:10;stroke-dasharray:none;stroke-opacity:1"
       transform="matrix(0.13333333,0,0,-0.13333333,0,110.86667)" />
    <path
       id="path7"
       d="m 186.43,581.988 c 0,7.782 -6.309,14.09 -14.09,14.09 -7.781,0 -14.094,-6.308 -14.094,-14.09 0,-7.781 6.313,-14.09 14.094,-14.09 7.781,0 14.09,6.309 14.09,14.09 z"
       style="fill:#000000;fill-opacity:1;fill-rule:nonzero;stroke:#000000;stroke-width:3.985;stroke-linecap:butt;stroke-linejoin:miter;stroke-miterlimit:10;stroke-dasharray:none;stroke-opacity:1"
       transform="matrix(0.13333333,0,0,-0.13333333,0,110.86667)" />
    <g
       id="g7"
       aria-label="M&#10;2&#10;2"
       transform="matrix(1.3333333,0,0,1.3333333,23.106267,54.05)">
      <path
         id="path8"
         d="m 7.7337766,-4.7923828 c 0.082031,-0.3164063 0.09375,-0.3867188 0.65625,-0.3867188 0.1875,0 0.28125,0 0.28125,-0.1523437 0,-0.1054688 -0.1054688,-0.1054688 -0.2460938,-0.1054688 h -1.03125 c -0.2109375,0 -0.234375,0 -0.3398437,0.1523438 L 4.0423703,-0.73769531 3.3392453,-5.2259766 c -0.035156,-0.1992187 -0.035156,-0.2109375 -0.28125,-0.2109375 h -1.078125 c -0.140625,0 -0.2460937,0 -0.2460937,0.140625 0,0.1171875 0.1054687,0.1171875 0.234375,0.1171875 0.2578125,0 0.4921875,0 0.4921875,0.1289063 0,0.035156 -0.011719,0.035156 -0.035156,0.140625 l -1.0078125,4.05468749 c -0.09375,0.3984375 -0.3046875,0.57421875 -0.83203124,0.59765625 -0.046875,0 -0.15234375,0 -0.15234375,0.140625 0,0.05859375 0.046875,0.1171874975 0.12890625,0.1171874975 0.0234375,0 0.2109375,-0.0234374975 0.78515624,-0.0234374975 0.6328125,0 0.75,0.0234374975 0.8203125,0.0234374975 0.035156,0 0.1523438,0 0.1523438,-0.1523437475 0,-0.09375 -0.09375,-0.10546875 -0.140625,-0.10546875 -0.2929688,-0.0117188 -0.5273438,-0.0585938 -0.5273438,-0.33984375 0,-0.0351563 0.023437,-0.15234375 0.023437,-0.1640625 l 1.078125,-4.32421879 h 0.011719 l 0.7734375,4.87500004 c 0.023437,0.12890625 0.035156,0.2109374975 0.140625,0.2109374975 0.1171875,0 0.1640625,-0.0820312475 0.2226562,-0.1640624975 L 7.1712766,-5.1439453 h 0.011719 l -1.125,4.51171874 c -0.070312,0.3046875 -0.09375,0.375 -0.6796875,0.375 -0.1523437,0 -0.2460937,0 -0.2460937,0.140625 0,0.03515625 0.023437,0.1171874975 0.1289062,0.1171874975 0.1054688,0 0.3398438,-0.0117187475 0.4570313,-0.0234374975 h 0.5039062 c 0.7382813,0 0.9375,0.0234374975 0.984375,0.0234374975 0.046875,0 0.1640625,0 0.1640625,-0.1523437475 0,-0.10546875 -0.1054687,-0.10546875 -0.234375,-0.10546875 -0.023437,0 -0.1757812,0 -0.3046875,-0.0234375 -0.1757812,-0.0117188 -0.1875,-0.0351563 -0.1875,-0.10546875 0,-0.046875 0.011719,-0.09375 0.023437,-0.12890625 z m 0,0"
         style="fill:#000000;fill-opacity:1;fill-rule:nonzero;stroke:none" />
      <path
         id="path9"
         d="m 11.346081,-0.00527344 h -0.210937 c -0.02344,0.08203125 -0.08203,0.46875 -0.164063,0.5390625 -0.04687,0.0351563 -0.527343,0.0351563 -0.609375,0.0351563 H 9.2367063 l 0.7734377,-0.62109375 c 0.199219,-0.1640625 0.726562,-0.5390625 0.914062,-0.7265625 0.175782,-0.17578125 0.421875,-0.48046871 0.421875,-0.90234371 0,-0.7500001 -0.667968,-1.1835938 -1.4765622,-1.1835938 -0.7617188,0 -1.3007813,0.5039062 -1.3007813,1.0664062 0,0.3046875 0.2578125,0.3398438 0.3164063,0.3398438 0.1523437,0 0.328125,-0.1054688 0.328125,-0.3164063 0,-0.140625 -0.082031,-0.328125 -0.3398438,-0.328125 0.1289063,-0.3046875 0.5039063,-0.5273437 0.9140625,-0.5273437 0.6210935,0 0.9609375,0.46875 0.9609375,0.9492188 0,0.4218749 -0.28125,0.85546871 -0.703125,1.24218746 l -1.4179687,1.3007812 c -0.058594,0.0585938 -0.058594,0.0585938 -0.058594,0.24609374 H 11.1703 Z m 0,0"
         style="fill:#000000;fill-opacity:1;fill-rule:nonzero;stroke:none" />
      <path
         id="path10"
         d="m -8.2007937,-18.137109 1.0546875,-1.03125 c 1.5585937,-1.371094 2.15625,-1.910157 2.15625,-2.90625 0,-1.136719 -0.9023438,-1.933594 -2.1210938,-1.933594 -1.125,0 -1.8515625,0.914062 -1.8515625,1.804687 0,0.550782 0.4921875,0.550782 0.5273438,0.550782 0.1640625,0 0.515625,-0.117188 0.515625,-0.527344 0,-0.257813 -0.1875,-0.515625 -0.5273438,-0.515625 -0.082031,0 -0.1054687,0 -0.1289062,0.01172 0.2226562,-0.644532 0.7617187,-1.019532 1.3359375,-1.019532 0.9140625,0 1.3359375,0.808594 1.3359375,1.628907 0,0.796875 -0.4921875,1.582031 -1.0429688,2.203125 l -1.9101562,2.132812 c -0.1054688,0.105469 -0.1054688,0.128906 -0.1054688,0.363281 h 3.6914063 l 0.28125,-1.734375 h -0.2578125 c -0.046875,0.304688 -0.1171875,0.738282 -0.2109375,0.890625 -0.070312,0.08203 -0.7265625,0.08203 -0.9492188,0.08203 z m 0,0"
         style="fill:#000000;fill-opacity:1;fill-rule:nonzero;stroke:none" />
    </g>
    <path
       id="path11"
       d="M 388.66,424.824 185.352,572.535"
       style="fill:none;stroke:#000000;stroke-width:3.985;stroke-linecap:butt;stroke-linejoin:miter;stroke-miterlimit:10;stroke-dasharray:none;stroke-opacity:1"
       transform="matrix(0.13333333,0,0,-0.13333333,0,110.86667)" />
    <path
       id="path12"
       d="m 186.43,248.754 c 0,7.781 -6.309,14.09 -14.09,14.09 -7.781,0 -14.094,-6.309 -14.094,-14.09 0,-7.785 6.313,-14.094 14.094,-14.094 7.781,0 14.09,6.309 14.09,14.094 z"
       style="fill:#000000;fill-opacity:1;fill-rule:nonzero;stroke:#000000;stroke-width:3.985;stroke-linecap:butt;stroke-linejoin:miter;stroke-miterlimit:10;stroke-dasharray:none;stroke-opacity:1"
       transform="matrix(0.13333333,0,0,-0.13333333,0,110.86667)" />
    <g
       id="g12"
       aria-label="M&#10;3&#10;3"
       transform="matrix(1.3333333,0,0,1.3333333,34.372933,78.210933)">
      <path
         id="path13"
         d="m 7.7329953,-4.7929656 c 0.082031,-0.3164063 0.09375,-0.3867188 0.65625,-0.3867188 0.1875,0 0.28125,0 0.28125,-0.1523437 0,-0.1054688 -0.1054687,-0.1054688 -0.2460937,-0.1054688 h -1.03125 c -0.2109375,0 -0.234375,0 -0.3398438,0.1523438 L 4.0415891,-0.73827812 3.3384641,-5.2265594 c -0.035156,-0.1992187 -0.035156,-0.2109375 -0.28125,-0.2109375 h -1.078125 c -0.140625,0 -0.2460938,0 -0.2460938,0.140625 0,0.1171875 0.1054688,0.1171875 0.234375,0.1171875 0.2578125,0 0.4921875,0 0.4921875,0.1289063 0,0.035156 -0.011719,0.035156 -0.035156,0.140625 l -1.0078125,4.05468748 c -0.09375,0.3984375 -0.3046875,0.57421875 -0.83203129,0.59765625 -0.046875,0 -0.15234375,0 -0.15234375,0.140625 0,0.05859375 0.046875,0.117187495 0.12890625,0.117187495 0.0234375,0 0.2109375,-0.023437495 0.78515629,-0.023437495 0.6328125,0 0.75,0.023437495 0.8203125,0.023437495 0.035156,0 0.1523437,0 0.1523437,-0.152343745 0,-0.09375 -0.09375,-0.10546875 -0.140625,-0.10546875 -0.2929687,-0.0117188 -0.5273437,-0.0585938 -0.5273437,-0.33984375 0,-0.0351563 0.023437,-0.15234375 0.023437,-0.1640625 l 1.078125,-4.32421878 h 0.011719 l 0.7734375,4.87500003 c 0.023437,0.12890625 0.035156,0.210937495 0.140625,0.210937495 0.1171875,0 0.1640625,-0.082031245 0.2226563,-0.164062495 L 7.1704953,-5.1445281 h 0.011719 l -1.125,4.51171873 c -0.070312,0.3046875 -0.09375,0.375 -0.6796875,0.375 -0.1523438,0 -0.2460938,0 -0.2460938,0.140625 0,0.03515625 0.023437,0.117187495 0.1289063,0.117187495 0.1054687,0 0.3398437,-0.011718745 0.4570312,-0.023437495 h 0.5039063 c 0.7382812,0 0.9375,0.023437495 0.984375,0.023437495 0.046875,0 0.1640625,0 0.1640625,-0.152343745 0,-0.10546875 -0.1054688,-0.10546875 -0.234375,-0.10546875 -0.023437,0 -0.1757813,0 -0.3046875,-0.0234375 -0.1757813,-0.0117188 -0.1875,-0.0351563 -0.1875,-0.10546875 0,-0.046875 0.011719,-0.09375 0.023437,-0.12890625 z m 0,0"
         style="fill:#000000;fill-opacity:1;fill-rule:nonzero;stroke:none" />
      <path
         id="path14"
         d="m 9.8951047,-0.87304375 c 0.5039063,0 0.8437503,0.33984375 0.8437503,0.94921875 0,0.65625 -0.386719,0.9375 -0.8320316,0.9375 -0.1523437,0 -0.7734375,-0.0351563 -1.0429687,-0.375 0.234375,-0.0234375 0.328125,-0.1875 0.328125,-0.33984375 0,-0.2109375 -0.140625,-0.33984375 -0.3398438,-0.33984375 -0.1640625,0 -0.3398437,0.09375 -0.3398437,0.3515625 0,0.5859375 0.65625,0.9257813 1.4179687,0.9257813 0.8789061,0 1.4765621,-0.5742188 1.4765621,-1.1601563 0,-0.43359375 -0.339843,-0.90234375 -1.042968,-1.078125 0.46875,-0.1523437 0.855468,-0.5390625 0.855468,-1.03125 0,-0.4804687 -0.5625,-0.8320312 -1.2773433,-0.8320312 -0.703125,0 -1.2421875,0.3164062 -1.2421875,0.8085937 0,0.2578125 0.1992187,0.328125 0.3164062,0.328125 0.1640625,0 0.328125,-0.1054687 0.328125,-0.3164062 0,-0.1875 -0.140625,-0.2929688 -0.2929687,-0.3164063 0.2695312,-0.3046875 0.8203125,-0.3046875 0.8671875,-0.3046875 0.3046878,0 0.6914058,0.140625 0.6914058,0.6328125 0,0.328125 -0.1875,0.9023438 -0.7851558,0.9375 -0.1054688,0.011719 -0.2695313,0.023437 -0.3164063,0.023437 -0.058594,0 -0.1289062,0.011719 -0.1289062,0.10546875 0,0.09375 0.070312,0.09375 0.1640625,0.09375 z m 0,0"
         style="fill:#000000;fill-opacity:1;fill-rule:nonzero;stroke:none" />
      <path
         id="path15"
         d="m -15.021887,4.3212922 c 0.808593,-0.2695313 1.394531,-0.9726563 1.394531,-1.7578125 0,-0.8203125 -0.878906,-1.3710938 -1.839844,-1.3710938 -1.007812,0 -1.757812,0.5976563 -1.757812,1.3476563 0,0.3398437 0.210937,0.5273437 0.503906,0.5273437 0.304687,0 0.503906,-0.2226562 0.503906,-0.515625 0,-0.4921875 -0.46875,-0.4921875 -0.609375,-0.4921875 0.304688,-0.4921875 0.960938,-0.6210937 1.324219,-0.6210937 0.410156,0 0.949219,0.2226562 0.949219,1.1132812 0,0.1289063 -0.01172,0.703125 -0.269532,1.1367188 -0.304687,0.4804687 -0.644531,0.515625 -0.890625,0.515625 -0.08203,0.011719 -0.316406,0.035156 -0.386718,0.035156 -0.08203,0.011719 -0.152344,0.023437 -0.152344,0.1171875 0,0.1171875 0.07031,0.1171875 0.234375,0.1171875 h 0.445312 c 0.808594,0 1.183594,0.6679688 1.183594,1.6523438 0,1.3476562 -0.691406,1.640625 -1.125,1.640625 -0.433594,0 -1.171875,-0.1757813 -1.523437,-0.7617188 0.351562,0.058594 0.65625,-0.1640625 0.65625,-0.5390625 0,-0.3632812 -0.269532,-0.5625 -0.5625,-0.5625 -0.234375,0 -0.550782,0.140625 -0.550782,0.5742188 0,0.9140625 0.925782,1.5703125 2.003907,1.5703125 1.21875,0 2.121093,-0.9140625 2.121093,-1.921875 0,-0.8203125 -0.621093,-1.59375 -1.652343,-1.8046873 z m 0,0"
         style="fill:#000000;fill-opacity:1;fill-rule:nonzero;stroke:none" />
    </g>
    <path
       id="path16"
       d="M 388.66,405.918 185.352,258.207"
       style="fill:none;stroke:#000000;stroke-width:3.985;stroke-linecap:butt;stroke-linejoin:miter;stroke-miterlimit:10;stroke-dasharray:none;stroke-opacity:1"
       transform="matrix(0.13333333,0,0,-0.13333333,0,110.86667)" />
    <path
       id="path17"
       d="m 503.359,145.773 c 0,7.782 -6.308,14.09 -14.093,14.09 -7.782,0 -14.09,-6.308 -14.09,-14.09 0,-7.781 6.308,-14.089 14.09,-14.089 7.785,0 14.093,6.308 14.093,14.089 z"
       style="fill:#000000;fill-opacity:1;fill-rule:nonzero;stroke:#000000;stroke-width:3.985;stroke-linecap:butt;stroke-linejoin:miter;stroke-miterlimit:10;stroke-dasharray:none;stroke-opacity:1"
       transform="matrix(0.13333333,0,0,-0.13333333,0,110.86667)" />
    <g
       id="g17"
       aria-label="M&#10;4&#10;4"
       transform="matrix(1.3333333,0,0,1.3333333,60.832267,74.962)">
      <path
         id="path18"
         d="m 7.7341984,-4.7937656 c 0.082031,-0.3164063 0.09375,-0.3867188 0.65625,-0.3867188 0.1875,0 0.28125,0 0.28125,-0.1523437 0,-0.1054688 -0.1054687,-0.1054688 -0.2460937,-0.1054688 h -1.03125 c -0.2109375,0 -0.234375,0 -0.3398438,0.1523438 L 4.0427922,-0.73907812 3.3396672,-5.2273594 c -0.035156,-0.1992187 -0.035156,-0.2109375 -0.28125,-0.2109375 h -1.078125 c -0.140625,0 -0.2460938,0 -0.2460938,0.140625 0,0.1171875 0.1054688,0.1171875 0.234375,0.1171875 0.2578125,0 0.4921875,0 0.4921875,0.1289063 0,0.035156 -0.011719,0.035156 -0.035156,0.140625 l -1.0078125,4.05468748 c -0.09375,0.3984375 -0.3046875,0.57421875 -0.83203126,0.59765625 -0.046875,0 -0.15234375,0 -0.15234375,0.140625 0,0.05859375 0.046875,0.117187495 0.12890625,0.117187495 0.0234375,0 0.2109375,-0.023437495 0.78515626,-0.023437495 0.6328125,0 0.75,0.023437495 0.8203125,0.023437495 0.035156,0 0.1523437,0 0.1523437,-0.152343745 0,-0.09375 -0.09375,-0.10546875 -0.140625,-0.10546875 -0.2929687,-0.0117188 -0.5273437,-0.0585938 -0.5273437,-0.33984375 0,-0.0351563 0.023437,-0.15234375 0.023437,-0.1640625 l 1.078125,-4.32421878 h 0.011719 l 0.7734375,4.87500003 c 0.023437,0.12890625 0.035156,0.210937495 0.140625,0.210937495 0.1171875,0 0.1640625,-0.082031245 0.2226563,-0.164062495 L 7.1716984,-5.1453281 h 0.011719 l -1.125,4.51171873 c -0.070312,0.3046875 -0.09375,0.375 -0.6796875,0.375 -0.1523438,0 -0.2460938,0 -0.2460938,0.140625 0,0.03515625 0.023437,0.117187495 0.1289063,0.117187495 0.1054687,0 0.3398437,-0.011718745 0.4570312,-0.023437495 h 0.5039063 c 0.7382812,0 0.9375,0.023437495 0.984375,0.023437495 0.046875,0 0.1640625,0 0.1640625,-0.152343745 0,-0.10546875 -0.1054688,-0.10546875 -0.234375,-0.10546875 -0.023437,0 -0.1757813,0 -0.3046875,-0.0234375 -0.1757813,-0.0117188 -0.1875,-0.0351563 -0.1875,-0.10546875 0,-0.046875 0.011719,-0.09375 0.023437,-0.12890625 z m 0,0"
         style="fill:#000000;fill-opacity:1;fill-rule:nonzero;stroke:none" />
      <path
         id="path19"
         d="m 11.510566,0.12225 v -0.234375 h -0.703125 v -2.6367187 c 0,-0.140625 0,-0.1757813 -0.152344,-0.1757813 -0.105469,0 -0.117188,0.011719 -0.175781,0.082031 L 8.4050969,-0.112125 V 0.12225 h 1.8632811 v 0.48046875 c 0,0.19921875 0,0.26953125 -0.5039061,0.26953125 H 9.5886906 V 1.106625 C 9.7175969,1.094906 10.280097,1.083188 10.537909,1.083188 c 0.257813,0 0.820313,0.011719 0.949219,0.023437 V 0.87225 h -0.175781 c -0.503906,0 -0.503906,-0.0703125 -0.503906,-0.26953125 V 0.12225 Z M 10.315253,-2.2800937 V -0.112125 H 8.6629094 Z m 0,0"
         style="fill:#000000;fill-opacity:1;fill-rule:nonzero;stroke:none" />
      <path
         id="path20"
         d="m 6.3689641,22.007016 v 0.867187 c 0,0.351563 -0.023437,0.46875 -0.7617188,0.46875 H 5.3963078 v 0.304688 c 0.4101563,-0.03516 0.9375,-0.03516 1.3476563,-0.03516 0.421875,0 0.9492187,0 1.359375,0.03516 V 23.342953 H 7.8924016 c -0.7382813,0 -0.7617188,-0.117187 -0.7617188,-0.46875 V 22.007016 H 8.1267766 V 21.690609 H 7.1306828 v -4.523437 c 0,-0.199219 0,-0.257813 -0.1523437,-0.257813 -0.09375,0 -0.1171875,0 -0.1992188,0.117188 l -3.0585937,4.664062 v 0.316407 z m 0.058594,-0.316407 H 4.0017766 l 2.4257812,-3.714843 z m 0,0"
         style="fill:#000000;fill-opacity:1;fill-rule:nonzero;stroke:none" />
    </g>
    <path
       id="path21"
       d="M 406.641,400.074 484.297,161.07"
       style="fill:none;stroke:#000000;stroke-width:3.985;stroke-linecap:butt;stroke-linejoin:miter;stroke-miterlimit:10;stroke-dasharray:none;stroke-opacity:1"
       transform="matrix(0.13333333,0,0,-0.13333333,0,110.86667)" />
    <path
       id="path22"
       d="m 699.227,415.371 c 0,7.781 -6.309,14.09 -14.09,14.09 -7.782,0 -14.09,-6.309 -14.09,-14.09 0,-7.781 6.308,-14.09 14.09,-14.09 7.781,0 14.09,6.309 14.09,14.09 z"
       style="fill:#000000;fill-opacity:1;fill-rule:nonzero;stroke:#000000;stroke-width:3.985;stroke-linecap:butt;stroke-linejoin:miter;stroke-miterlimit:10;stroke-dasharray:none;stroke-opacity:1"
       transform="matrix(0.13333333,0,0,-0.13333333,0,110.86667)" />
    <g
       id="g22"
       aria-label="M&#10;5&#10;5"
       transform="matrix(1.3333333,0,0,1.3333333,65.919333,48.7932)">
      <path
         id="path23"
         d="m 7.7333516,-4.7931422 c 0.082031,-0.3164062 0.09375,-0.3867187 0.65625,-0.3867187 0.1875,0 0.28125,0 0.28125,-0.1523438 0,-0.1054687 -0.1054688,-0.1054687 -0.2460938,-0.1054687 h -1.03125 c -0.2109375,0 -0.234375,0 -0.3398437,0.1523437 L 4.0419453,-0.73845469 3.3388203,-5.2267359 c -0.035156,-0.1992188 -0.035156,-0.2109375 -0.28125,-0.2109375 h -1.078125 c -0.140625,0 -0.2460937,0 -0.2460937,0.140625 0,0.1171875 0.1054687,0.1171875 0.234375,0.1171875 0.2578125,0 0.4921875,0 0.4921875,0.1289062 0,0.035156 -0.011719,0.035156 -0.035156,0.140625 l -1.0078125,4.05468751 c -0.09375,0.3984375 -0.3046875,0.57421875 -0.83203124,0.59765625 -0.046875,0 -0.15234375,0 -0.15234375,0.140625 0,0.05859375 0.046875,0.1171875025 0.12890625,0.1171875025 0.0234375,0 0.2109375,-0.0234375025 0.78515624,-0.0234375025 0.6328125,0 0.75,0.0234375025 0.8203125,0.0234375025 0.035156,0 0.1523438,0 0.1523438,-0.1523437525 0,-0.09375 -0.09375,-0.10546875 -0.140625,-0.10546875 -0.2929688,-0.0117188 -0.5273438,-0.0585938 -0.5273438,-0.33984375 0,-0.0351563 0.023437,-0.15234375 0.023437,-0.1640625 l 1.078125,-4.32421871 h 0.011719 l 0.7734375,4.87499996 c 0.023437,0.12890625 0.035156,0.2109375025 0.140625,0.2109375025 0.1171875,0 0.1640625,-0.0820312525 0.2226562,-0.1640625025 L 7.1708516,-5.1447047 h 0.011719 l -1.125,4.51171876 c -0.070312,0.3046875 -0.09375,0.375 -0.6796875,0.375 -0.1523437,0 -0.2460937,0 -0.2460937,0.140625 0,0.03515625 0.023437,0.1171875025 0.1289062,0.1171875025 0.1054688,0 0.3398438,-0.0117187525 0.4570313,-0.0234375025 h 0.5039062 c 0.7382813,0 0.9375,0.0234375025 0.984375,0.0234375025 0.046875,0 0.1640625,0 0.1640625,-0.1523437525 0,-0.10546875 -0.1054687,-0.10546875 -0.234375,-0.10546875 -0.023437,0 -0.1757812,0 -0.3046875,-0.0234375 -0.1757812,-0.0117188 -0.1875,-0.0351563 -0.1875,-0.10546875 0,-0.046875 0.011719,-0.09375 0.023437,-0.12890625 z m 0,0"
         style="fill:#000000;fill-opacity:1;fill-rule:nonzero;stroke:none" />
      <path
         id="path24"
         d="m 9.15425,-2.2091578 c 0.1992188,0.058594 0.3984375,0.082031 0.609375,0.082031 0.1289063,0 0.457031,0 0.84375,-0.2109375 0.09375,-0.058594 0.46875,-0.3046875 0.46875,-0.4335937 0,-0.082031 -0.05859,-0.09375 -0.08203,-0.09375 -0.02344,0 -0.02344,0 -0.09375,0.023437 -0.210938,0.082031 -0.515625,0.1640625 -0.902344,0.1640625 -0.2929687,0 -0.6210937,-0.046875 -0.890625,-0.1523438 -0.058594,-0.023437 -0.082031,-0.035156 -0.1054687,-0.035156 -0.082031,0 -0.082031,0.058594 -0.082031,0.1640625 v 1.79296874 c 0,0.09375 0,0.1640625 0.1054688,0.1640625 0.058594,0 0.070312,-0.0234375 0.1171875,-0.0703125 0.140625,-0.18750004 0.4101562,-0.38671874 0.8789064,-0.38671874 0.726562,0 0.726562,0.89062499 0.726562,1.07812499 0,0.234375 -0.01172,0.57421875 -0.210937,0.8203125 -0.1875,0.22265625 -0.457032,0.31640621 -0.7148439,0.31640621 -0.4101563,0 -0.8320313,-0.22265621 -0.9726563,-0.57421871 0.2929688,0 0.328125,-0.234375 0.328125,-0.3046875 0,-0.1640625 -0.1171875,-0.3046875 -0.3046875,-0.3046875 -0.058594,0 -0.3046875,0.0234375 -0.3046875,0.328125 0,0.55078125 0.515625,1.07812501 1.265625,1.07812501 0.8203122,0 1.5117182,-0.58593751 1.5117182,-1.33593751 0,-0.6796875 -0.550781,-1.30078129 -1.3125,-1.30078129 -0.3867182,0 -0.6914057,0.1289063 -0.8789057,0.2929688 z m 0,0"
         style="fill:#000000;fill-opacity:1;fill-rule:nonzero;stroke:none" />
      <path
         id="path25"
         d="m 29.565383,6.2254125 c 0,-1.1835937 -0.820313,-2.1796875 -1.898438,-2.1796875 -0.480468,0 -0.902343,0.1640625 -1.265625,0.5039063 V 2.6160375 c 0.199219,0.058594 0.527344,0.1289063 0.84375,0.1289063 1.230469,0 1.933594,-0.9140625 1.933594,-1.0429688 0,-0.058594 -0.03516,-0.1054687 -0.105469,-0.1054687 -0.01172,0 -0.03516,0 -0.08203,0.023437 -0.199219,0.09375 -0.679687,0.2929687 -1.347656,0.2929687 -0.398438,0 -0.855469,-0.070312 -1.324219,-0.28125 -0.08203,-0.023437 -0.105469,-0.023437 -0.128906,-0.023437 -0.09375,0 -0.09375,0.082031 -0.09375,0.234375 v 2.953125 c 0,0.1757813 0,0.2578125 0.140625,0.2578125 0.07031,0 0.08203,-0.035156 0.128906,-0.09375 0.105469,-0.1523437 0.480469,-0.6914062 1.277344,-0.6914062 0.527344,0 0.773437,0.4570312 0.855469,0.6328125 0.152343,0.375 0.175781,0.7617187 0.175781,1.2539062 0,0.3515625 0,0.9492188 -0.234375,1.3710938 -0.246094,0.3867187 -0.609375,0.6445312 -1.066406,0.6445312 -0.726563,0 -1.300782,-0.5273437 -1.464844,-1.1132812 0.02344,0.011719 0.05859,0.011719 0.164062,0.011719 0.328125,0 0.503907,-0.2460937 0.503907,-0.4804687 0,-0.2460938 -0.175782,-0.4921875 -0.503907,-0.4921875 -0.140625,0 -0.480468,0.070312 -0.480468,0.5273437 0,0.8554688 0.679687,1.828125 1.792968,1.828125 1.160157,0 2.179688,-0.9609375 2.179688,-2.2265625 z m 0,0"
         style="fill:#000000;fill-opacity:1;fill-rule:nonzero;stroke:none" />
    </g>
    <path
       id="path26"
       d="M 417.754,415.371 H 669.055"
       style="fill:none;stroke:#000000;stroke-width:3.985;stroke-linecap:butt;stroke-linejoin:miter;stroke-miterlimit:10;stroke-dasharray:none;stroke-opacity:1"
       transform="matrix(0.13333333,0,0,-0.13333333,0,110.86667)" />
  </g>
</svg>
