<?xml version="1.0" encoding="UTF-8" standalone="no"?>
<!-- Created with Inkscape (http://www.inkscape.org/) -->

<svg
   version="1.1"
   id="svg1"
   width="137.17332"
   height="86.90667"
   viewBox="0 0 137.17332 86.90667"
   sodipodi:docname="imagelabelled_5-0-1.pdf"
   xmlns:inkscape="http://www.inkscape.org/namespaces/inkscape"
   xmlns:sodipodi="http://sodipodi.sourceforge.net/DTD/sodipodi-0.dtd"
   xmlns="http://www.w3.org/2000/svg"
   xmlns:svg="http://www.w3.org/2000/svg">
  <defs
     id="defs1" />
  <sodipodi:namedview
     id="namedview1"
     pagecolor="#ffffff"
     bordercolor="#000000"
     borderopacity="0.25"
     inkscape:showpageshadow="2"
     inkscape:pageopacity="0.0"
     inkscape:pagecheckerboard="0"
     inkscape:deskcolor="#d1d1d1">
    <inkscape:page
       x="0"
       y="0"
       inkscape:label="1"
       id="page1"
       width="137.17332"
       height="86.90667"
       margin="0"
       bleed="0" />
  </sodipodi:namedview>
  <g
     id="g1"
     inkscape:groupmode="layer"
     inkscape:label="1">
    <path
       id="path1"
       d="m 332.781,326.02 c 0,7.781 -6.308,14.089 -14.09,14.089 -7.781,0 -14.089,-6.308 -14.089,-14.089 0,-7.782 6.308,-14.09 14.089,-14.09 7.782,0 14.09,6.308 14.09,14.09 z"
       style="fill:#ffffff;fill-opacity:1;fill-rule:nonzero;stroke:#000000;stroke-width:3.985;stroke-linecap:butt;stroke-linejoin:miter;stroke-miterlimit:10;stroke-dasharray:none;stroke-opacity:1"
       transform="matrix(0.13333333,0,0,-0.13333333,0,86.906667)" />
    <path
       id="path2"
       d="m 616.25,326.02 c 0,7.781 -6.309,14.089 -14.094,14.089 -7.781,0 -14.09,-6.308 -14.09,-14.089 0,-7.782 6.309,-14.09 14.09,-14.09 7.785,0 14.094,6.308 14.094,14.09 z"
       style="fill:#ffffff;fill-opacity:1;fill-rule:nonzero;stroke:#000000;stroke-width:3.985;stroke-linecap:butt;stroke-linejoin:miter;stroke-miterlimit:10;stroke-dasharray:none;stroke-opacity:1"
       transform="matrix(0.13333333,0,0,-0.13333333,0,86.906667)" />
    <path
       id="path3"
       d="m 132.34,526.461 c 0,7.785 -6.309,14.09 -14.094,14.09 -7.781,0 -14.09,-6.305 -14.09,-14.09 0,-7.781 6.309,-14.09 14.09,-14.09 7.785,0 14.094,6.309 14.094,14.09 z"
       style="fill:#000000;fill-opacity:1;fill-rule:nonzero;stroke:#000000;stroke-width:3.985;stroke-linecap:butt;stroke-linejoin:miter;stroke-miterlimit:10;stroke-dasharray:none;stroke-opacity:1"
       transform="matrix(0.13333333,0,0,-0.13333333,0,86.906667)" />
    <path
       id="path4"
       d="m 132.34,125.578 c 0,7.781 -6.309,14.09 -14.094,14.09 -7.781,0 -14.09,-6.309 -14.09,-14.09 0,-7.781 6.309,-14.09 14.09,-14.09 7.785,0 14.094,6.309 14.094,14.09 z"
       style="fill:#000000;fill-opacity:1;fill-rule:nonzero;stroke:#000000;stroke-width:3.985;stroke-linecap:butt;stroke-linejoin:miter;stroke-miterlimit:10;stroke-dasharray:none;stroke-opacity:1"
       transform="matrix(0.13333333,0,0,-0.13333333,0,86.906667)" />
    <path
       id="path5"
       d="m 816.691,125.578 c 0,7.781 -6.308,14.09 -14.089,14.09 -7.782,0 -14.09,-6.309 -14.09,-14.09 0,-7.781 6.308,-14.09 14.09,-14.09 7.781,0 14.089,6.309 14.089,14.09 z"
       style="fill:#000000;fill-opacity:1;fill-rule:nonzero;stroke:#000000;stroke-width:3.985;stroke-linecap:butt;stroke-linejoin:miter;stroke-miterlimit:10;stroke-dasharray:none;stroke-opacity:1"
       transform="matrix(0.13333333,0,0,-0.13333333,0,86.906667)" />
    <path
       id="path6"
       d="m 899.715,326.02 c 0,7.781 -6.309,14.089 -14.09,14.089 -7.781,0 -14.09,-6.308 -14.09,-14.089 0,-7.782 6.309,-14.09 14.09,-14.09 7.781,0 14.09,6.308 14.09,14.09 z"
       style="fill:#000000;fill-opacity:1;fill-rule:nonzero;stroke:#000000;stroke-width:3.985;stroke-linecap:butt;stroke-linejoin:miter;stroke-miterlimit:10;stroke-dasharray:none;stroke-opacity:1"
       transform="matrix(0.13333333,0,0,-0.13333333,0,86.906667)" />
    <path
       id="path7"
       d="m 816.691,526.461 c 0,7.785 -6.308,14.09 -14.089,14.09 -7.782,0 -14.09,-6.305 -14.09,-14.09 0,-7.781 6.308,-14.09 14.09,-14.09 7.781,0 14.089,6.309 14.089,14.09 z"
       style="fill:#000000;fill-opacity:1;fill-rule:nonzero;stroke:#000000;stroke-width:3.985;stroke-linecap:butt;stroke-linejoin:miter;stroke-miterlimit:10;stroke-dasharray:none;stroke-opacity:1"
       transform="matrix(0.13333333,0,0,-0.13333333,0,86.906667)" />
    <path
       id="path8"
       d="M 334.773,326.02 H 586.074"
       style="fill:none;stroke:#000000;stroke-width:3.985;stroke-linecap:butt;stroke-linejoin:miter;stroke-miterlimit:10;stroke-dasharray:none;stroke-opacity:1"
       transform="matrix(0.13333333,0,0,-0.13333333,0,86.906667)" />
    <g
       id="g8"
       aria-label="M&#10;6&#10;M&#10;1&#10;1"
       transform="matrix(1.3333333,0,0,1.3333333,53.200533,37.268133)">
      <path
         id="path9"
         d="m 7.7333891,-4.7919203 c 0.082031,-0.3164063 0.09375,-0.3867188 0.65625,-0.3867188 0.1875,0 0.28125,0 0.28125,-0.1523437 0,-0.1054688 -0.1054688,-0.1054688 -0.2460938,-0.1054688 h -1.03125 c -0.2109375,0 -0.234375,0 -0.3398437,0.1523438 L 4.0419828,-0.73723281 3.3388578,-5.2255141 c -0.035156,-0.1992187 -0.035156,-0.2109375 -0.28125,-0.2109375 h -1.078125 c -0.140625,0 -0.2460937,0 -0.2460937,0.140625 0,0.1171875 0.1054687,0.1171875 0.234375,0.1171875 0.2578125,0 0.4921875,0 0.4921875,0.1289063 0,0.035156 -0.011719,0.035156 -0.035156,0.140625 l -1.0078125,4.05468749 c -0.09375,0.3984375 -0.3046875,0.57421875 -0.83203124,0.59765625 -0.046875,0 -0.15234375,0 -0.15234375,0.140625 0,0.05859375 0.046875,0.1171875 0.12890625,0.1171875 0.0234375,0 0.2109375,-0.0234375 0.78515624,-0.0234375 0.6328125,0 0.75,0.0234375 0.8203125,0.0234375 0.035156,0 0.1523438,0 0.1523438,-0.15234375 0,-0.09375 -0.09375,-0.10546875 -0.140625,-0.10546875 -0.2929688,-0.0117188 -0.5273438,-0.0585938 -0.5273438,-0.33984375 0,-0.0351563 0.023437,-0.15234375 0.023437,-0.1640625 l 1.078125,-4.32421879 h 0.011719 l 0.7734375,4.87500004 c 0.023437,0.12890625 0.035156,0.2109375 0.140625,0.2109375 0.1171875,0 0.1640625,-0.08203125 0.2226562,-0.1640625 L 7.1708891,-5.1434828 h 0.011719 l -1.125,4.51171874 c -0.070312,0.3046875 -0.09375,0.375 -0.6796875,0.375 -0.1523437,0 -0.2460937,0 -0.2460937,0.140625 0,0.03515625 0.023437,0.1171875 0.1289062,0.1171875 0.1054688,0 0.3398438,-0.01171875 0.4570313,-0.0234375 h 0.5039062 c 0.7382813,0 0.9375,0.0234375 0.984375,0.0234375 0.046875,0 0.1640625,0 0.1640625,-0.15234375 0,-0.10546875 -0.1054687,-0.10546875 -0.234375,-0.10546875 -0.023437,0 -0.1757812,0 -0.3046875,-0.0234375 -0.1757812,-0.0117188 -0.1875,-0.0351563 -0.1875,-0.10546875 0,-0.046875 0.011719,-0.09375 0.023437,-0.12890625 z m 0,0"
         style="fill:#000000;fill-opacity:1;fill-rule:nonzero;stroke:none" />
      <path
         id="path10"
         d="M 9.1074125,-0.87199844 C 9.1191313,-1.1649672 9.13085,-1.6688734 9.3417875,-2.0321547 9.5996,-2.4891859 9.9980375,-2.6649672 10.3496,-2.6649672 c 0.140625,0 0.410156,0.023437 0.5625,0.1875 -0.222656,0.035156 -0.257812,0.1875 -0.257812,0.28125 0,0.1640625 0.105468,0.2929688 0.28125,0.2929688 0.175781,0 0.292968,-0.1171875 0.292968,-0.3046875 0,-0.3632813 -0.269531,-0.65625 -0.878906,-0.65625 -0.9257812,0 -1.8398437,0.8085937 -1.8398437,2.07421871 0,1.453125 0.6796875,2.02734379 1.4648437,2.02734379 0.234375,0 0.644531,-0.035156 1.007813,-0.38671879 0.1875,-0.19921875 0.421875,-0.43359375 0.421875,-0.9609375 0,-0.19921875 -0.02344,-0.5859375 -0.386719,-0.92578121 -0.210938,-0.1875 -0.46875,-0.3984375 -0.984375,-0.3984375 -0.4218752,0 -0.7265627,0.2109375 -0.9257815,0.56249996 z M 9.9746,1.0147203 c -0.84375,0 -0.84375,-1.01953124 -0.84375,-1.25390624 0,-0.515625 0.3398438,-1.00781246 0.878906,-1.00781246 0.304688,0 0.480469,0.1289062 0.632813,0.31640621 0.164062,0.234375 0.164062,0.50390625 0.164062,0.8203125 0,0.41015625 -0.01172,0.609375 -0.210937,0.85546875 C 10.44335,0.92097031 10.25585,1.0147203 9.9746,1.0147203 Z m 0,0"
         style="fill:#000000;fill-opacity:1;fill-rule:nonzero;stroke:none" />
      <path
         id="path11"
         d="m -22.421884,-3.8134047 c 0.08203,-0.3164062 0.09375,-0.3867187 0.65625,-0.3867187 0.1875,0 0.28125,0 0.28125,-0.1523438 0,-0.1054687 -0.105469,-0.1054687 -0.246094,-0.1054687 h -1.03125 c -0.210938,0 -0.234375,0 -0.339844,0.1523437 l -3.011719,4.54687501 -0.703125,-4.48828121 c -0.03516,-0.1992188 -0.03516,-0.2109375 -0.28125,-0.2109375 h -1.078125 c -0.140625,0 -0.246093,0 -0.246093,0.140625 0,0.1171875 0.105468,0.1171875 0.234375,0.1171875 0.257812,0 0.492187,0 0.492187,0.1289062 0,0.035156 -0.01172,0.035156 -0.03516,0.140625 l -1.007813,4.05468751 c -0.09375,0.3984375 -0.304687,0.57421875 -0.832031,0.59765625 -0.04687,0 -0.152344,0 -0.152344,0.140625 0,0.0585938 0.04687,0.1171875 0.128907,0.1171875 0.02344,0 0.210937,-0.0234375 0.785156,-0.0234375 0.632812,0 0.75,0.0234375 0.820312,0.0234375 0.03516,0 0.152344,0 0.152344,-0.15234375 0,-0.09375 -0.09375,-0.10546875 -0.140625,-0.10546875 -0.292969,-0.0117188 -0.527344,-0.0585938 -0.527344,-0.33984375 0,-0.0351563 0.02344,-0.15234375 0.02344,-0.1640625 l 1.078125,-4.32421871 h 0.01172 l 0.773437,4.87499996 c 0.02344,0.12890625 0.03516,0.2109375 0.140625,0.2109375 0.117188,0 0.164063,-0.0820313 0.222656,-0.1640625 l 3.269532,-4.98046876 h 0.01172 l -1.125,4.51171876 c -0.07031,0.3046875 -0.09375,0.375 -0.679687,0.375 -0.152344,0 -0.246094,0 -0.246094,0.140625 0,0.0351563 0.02344,0.1171875 0.128906,0.1171875 0.105469,0 0.339844,-0.0117188 0.457032,-0.0234375 h 0.503906 c 0.738281,0 0.9375,0.0234375 0.984375,0.0234375 0.04687,0 0.164062,0 0.164062,-0.15234375 0,-0.10546875 -0.105468,-0.10546875 -0.234375,-0.10546875 -0.02344,0 -0.175781,0 -0.304687,-0.0234375 -0.175781,-0.0117188 -0.1875,-0.0351563 -0.1875,-0.10546875 0,-0.046875 0.01172,-0.09375 0.02344,-0.12890625 z m 0,0"
         style="fill:#000000;fill-opacity:1;fill-rule:nonzero;stroke:none" />
      <path
         id="path12"
         d="m -19.875986,-1.7098891 c 0,-0.1757812 -0.02344,-0.1757812 -0.199219,-0.1757812 -0.398437,0.375 -1.007812,0.375 -1.21875,0.375 v 0.234375 c 0.152344,0 0.550782,0 0.902344,-0.1640625 v 3.0234375 c 0,0.1875 0,0.2695312 -0.609375,0.2695312 h -0.257812 v 0.234375 c 0.328125,-0.023437 0.796875,-0.023437 1.125,-0.023437 0.339843,0 0.796875,0 1.136718,0.023437 v -0.234375 h -0.257812 c -0.621094,0 -0.621094,-0.082031 -0.621094,-0.2695312 z m 0,0"
         style="fill:#000000;fill-opacity:1;fill-rule:nonzero;stroke:none" />
      <path
         id="path13"
         d="m -33.648447,-24.596608 c 0,-0.234375 0,-0.257812 -0.234375,-0.257812 -0.609375,0.632812 -1.488281,0.632812 -1.804687,0.632812 v 0.316406 c 0.199218,0 0.785156,0 1.300781,-0.257812 v 5.15625 c 0,0.351562 -0.03516,0.480469 -0.925781,0.480469 h -0.316407 v 0.304687 c 0.351563,-0.03516 1.207032,-0.03516 1.605469,-0.03516 0.398438,0 1.265625,0 1.617188,0.03516 v -0.304687 h -0.316407 c -0.902343,0 -0.925781,-0.117188 -0.925781,-0.480469 z m 0,0"
         style="fill:#000000;fill-opacity:1;fill-rule:nonzero;stroke:none" />
    </g>
    <path
       id="path14"
       d="M 307.316,337.391 129.621,515.09"
       style="fill:none;stroke:#000000;stroke-width:3.985;stroke-linecap:butt;stroke-linejoin:miter;stroke-miterlimit:10;stroke-dasharray:none;stroke-opacity:1"
       transform="matrix(0.13333333,0,0,-0.13333333,0,86.906667)" />
    <g
       id="g14"
       aria-label="M&#10;2&#10;2"
       transform="matrix(1.3333333,0,0,1.3333333,26.5464,67.64)">
      <path
         id="path15"
         d="m 7.7347313,-4.7925 c 0.082031,-0.3164062 0.09375,-0.3867187 0.65625,-0.3867187 0.1875,0 0.28125,0 0.28125,-0.1523438 0,-0.1054687 -0.1054688,-0.1054687 -0.2460938,-0.1054687 h -1.03125 c -0.2109375,0 -0.234375,0 -0.3398437,0.1523437 L 4.043325,-0.7378125 3.3402,-5.2260937 C 3.3050438,-5.4253125 3.3050438,-5.4370312 3.05895,-5.4370312 H 1.980825 c -0.140625,0 -0.2460937,0 -0.2460937,0.140625 0,0.1171875 0.1054687,0.1171875 0.234375,0.1171875 0.2578125,0 0.4921875,0 0.4921875,0.1289062 0,0.035156 -0.011719,0.035156 -0.035156,0.140625 L 1.418325,-0.855 c -0.09375,0.3984375 -0.3046875,0.57421875 -0.83203125,0.59765625 -0.046875,0 -0.15234375,0 -0.15234375,0.140625 0,0.05859375 0.046875,0.1171875 0.12890625,0.1171875 0.0234375,0 0.2109375,-0.0234375 0.78515625,-0.0234375 0.6328125,0 0.75,0.0234375 0.8203125,0.0234375 0.035156,0 0.1523438,0 0.1523438,-0.15234375 0,-0.09375 -0.09375,-0.10546875 -0.140625,-0.10546875 C 1.887075,-0.2690625 1.6527,-0.3159375 1.6527,-0.5971875 c 0,-0.0351563 0.023437,-0.15234375 0.023437,-0.1640625 l 1.078125,-4.3242187 h 0.011719 l 0.7734375,4.87499995 c 0.023437,0.12890625 0.035156,0.2109375 0.140625,0.2109375 0.1171875,0 0.1640625,-0.08203125 0.2226562,-0.1640625 L 7.1722313,-5.1440625 H 7.18395 l -1.125,4.51171875 c -0.070312,0.3046875 -0.09375,0.375 -0.6796875,0.375 -0.1523437,0 -0.2460937,0 -0.2460937,0.140625 0,0.03515625 0.023437,0.1171875 0.1289062,0.1171875 0.1054688,0 0.3398438,-0.01171875 0.4570313,-0.0234375 h 0.5039062 c 0.7382813,0 0.9375,0.0234375 0.984375,0.0234375 0.046875,0 0.1640625,0 0.1640625,-0.15234375 0,-0.10546875 -0.1054687,-0.10546875 -0.234375,-0.10546875 -0.023437,0 -0.1757812,0 -0.3046875,-0.0234375 -0.1757812,-0.0117188 -0.1875,-0.0351563 -0.1875,-0.10546875 0,-0.046875 0.011719,-0.09375 0.023437,-0.12890625 z m 0,0"
         style="fill:#000000;fill-opacity:1;fill-rule:nonzero;stroke:none" />
      <path
         id="path16"
         d="m 11.347036,-0.00539062 h -0.210938 c -0.02344,0.08203125 -0.08203,0.46875 -0.164062,0.5390625 -0.04687,0.0351563 -0.527344,0.0351563 -0.609375,0.0351563 H 9.2376609 l 0.7734371,-0.62109375 c 0.199219,-0.1640625 0.726563,-0.5390625 0.914063,-0.7265625 0.175781,-0.17578125 0.421875,-0.48046873 0.421875,-0.90234383 0,-0.75 -0.667969,-1.1835937 -1.4765626,-1.1835937 -0.7617187,0 -1.3007812,0.5039062 -1.3007812,1.0664062 0,0.3046875 0.2578125,0.3398438 0.3164062,0.3398438 0.1523438,0 0.328125,-0.1054688 0.328125,-0.3164063 0,-0.140625 -0.082031,-0.328125 -0.3398437,-0.328125 0.1289062,-0.3046875 0.5039062,-0.5273437 0.9140625,-0.5273437 0.6210938,0 0.9609378,0.46875 0.9609378,0.9492187 0,0.421875 -0.28125,0.85546883 -0.703125,1.24218758 l -1.4179691,1.3007812 c -0.058594,0.0585938 -0.058594,0.0585938 -0.058594,0.24609372 h 2.6015631 z m 0,0"
         style="fill:#000000;fill-opacity:1;fill-rule:nonzero;stroke:none" />
      <path
         id="path17"
         d="m -15.321909,10.353984 1.054687,-1.0312496 c 1.558594,-1.3710938 2.15625,-1.9101563 2.15625,-2.90625 0,-1.1367188 -0.902344,-1.9335938 -2.121094,-1.9335938 -1.125,0 -1.851562,0.9140625 -1.851562,1.8046875 0,0.5507813 0.492187,0.5507813 0.527344,0.5507813 0.164062,0 0.515625,-0.1171875 0.515625,-0.5273438 0,-0.2578125 -0.1875,-0.515625 -0.527344,-0.515625 -0.08203,0 -0.105469,0 -0.128906,0.011719 0.222656,-0.6445313 0.761718,-1.0195313 1.335937,-1.0195313 0.914063,0 1.335938,0.8085938 1.335938,1.6289063 0,0.796875 -0.492188,1.5820312 -1.042969,2.203125 l -1.910156,2.1328124 c -0.105469,0.105469 -0.105469,0.128906 -0.105469,0.363281 h 3.691406 l 0.28125,-1.7343747 h -0.257812 c -0.04687,0.3046875 -0.117188,0.7382807 -0.210938,0.8906247 -0.07031,0.08203 -0.726562,0.08203 -0.949219,0.08203 z m 0,0"
         style="fill:#000000;fill-opacity:1;fill-rule:nonzero;stroke:none" />
    </g>
    <path
       id="path18"
       d="M 307.316,314.648 129.621,136.949"
       style="fill:none;stroke:#000000;stroke-width:3.985;stroke-linecap:butt;stroke-linejoin:miter;stroke-miterlimit:10;stroke-dasharray:none;stroke-opacity:1"
       transform="matrix(0.13333333,0,0,-0.13333333,0,86.906667)" />
    <g
       id="g18"
       aria-label="M&#10;3&#10;3"
       transform="matrix(1.3333333,0,0,1.3333333,81.682267,66.882667)">
      <path
         id="path19"
         d="m 7.7353703,-4.7928594 c 0.082031,-0.3164062 0.09375,-0.3867187 0.65625,-0.3867187 0.1875,0 0.28125,0 0.28125,-0.1523438 0,-0.1054687 -0.1054687,-0.1054687 -0.2460937,-0.1054687 h -1.03125 c -0.2109375,0 -0.234375,0 -0.3398438,0.1523437 L 4.0439641,-0.73817187 3.3408391,-5.2264531 c -0.035156,-0.1992188 -0.035156,-0.2109375 -0.28125,-0.2109375 h -1.078125 c -0.140625,0 -0.2460938,0 -0.2460938,0.140625 0,0.1171875 0.1054688,0.1171875 0.234375,0.1171875 0.2578125,0 0.4921875,0 0.4921875,0.1289062 0,0.035156 -0.011719,0.035156 -0.035156,0.140625 l -1.0078125,4.05468753 c -0.09375,0.3984375 -0.3046875,0.57421875 -0.83203129,0.59765625 -0.046875,0 -0.15234375,0 -0.15234375,0.140625 0,0.05859375 0.046875,0.117187495 0.12890625,0.117187495 0.0234375,0 0.2109375,-0.023437495 0.78515629,-0.023437495 0.6328125,0 0.75,0.023437495 0.8203125,0.023437495 0.035156,0 0.1523437,0 0.1523437,-0.152343745 0,-0.09375 -0.09375,-0.10546875 -0.140625,-0.10546875 -0.2929687,-0.0117188 -0.5273437,-0.0585938 -0.5273437,-0.33984375 0,-0.0351563 0.023437,-0.15234375 0.023437,-0.1640625 l 1.078125,-4.32421873 h 0.011719 l 0.7734375,4.87499998 c 0.023437,0.12890625 0.035156,0.210937495 0.140625,0.210937495 0.1171875,0 0.1640625,-0.082031245 0.2226563,-0.164062495 L 7.1728703,-5.1444219 h 0.011719 l -1.125,4.51171878 c -0.070312,0.3046875 -0.09375,0.375 -0.6796875,0.375 -0.1523438,0 -0.2460938,0 -0.2460938,0.140625 0,0.03515625 0.023437,0.117187495 0.1289063,0.117187495 0.1054687,0 0.3398437,-0.011718745 0.4570312,-0.023437495 h 0.5039063 c 0.7382812,0 0.9375,0.023437495 0.984375,0.023437495 0.046875,0 0.1640625,0 0.1640625,-0.152343745 0,-0.10546875 -0.1054688,-0.10546875 -0.234375,-0.10546875 -0.023437,0 -0.1757813,0 -0.3046875,-0.0234375 -0.1757813,-0.0117188 -0.1875,-0.0351563 -0.1875,-0.10546875 0,-0.046875 0.011719,-0.09375 0.023437,-0.12890625 z m 0,0"
         style="fill:#000000;fill-opacity:1;fill-rule:nonzero;stroke:none" />
      <path
         id="path20"
         d="m 9.89455,-0.8729375 c 0.503906,0 0.84375,0.33984375 0.84375,0.94921875 0,0.65625 -0.386719,0.93750005 -0.8320312,0.93750005 -0.1523438,0 -0.7734375,-0.0351563 -1.0429688,-0.37500005 0.234375,-0.0234375 0.328125,-0.1875 0.328125,-0.33984375 0,-0.2109375 -0.140625,-0.33984375 -0.3398437,-0.33984375 -0.1640625,0 -0.3398438,0.09375 -0.3398438,0.3515625 0,0.5859375 0.65625,0.92578125 1.4179688,0.92578125 0.8789067,0 1.4765627,-0.57421875 1.4765627,-1.16015625 0,-0.43359375 -0.339844,-0.90234375 -1.042969,-1.07812495 0.46875,-0.1523438 0.855469,-0.5390625 0.855469,-1.03125 0,-0.4804688 -0.5625,-0.8320313 -1.277344,-0.8320313 -0.703125,0 -1.2421875,0.3164063 -1.2421875,0.8085938 0,0.2578125 0.1992188,0.328125 0.3164063,0.328125 0.1640625,0 0.328125,-0.1054688 0.328125,-0.3164063 0,-0.1875 -0.140625,-0.2929687 -0.2929688,-0.3164062 0.2695313,-0.3046875 0.8203125,-0.3046875 0.8671875,-0.3046875 0.3046875,0 0.6914065,0.140625 0.6914065,0.6328125 0,0.328125 -0.1875,0.9023437 -0.7851565,0.9375 -0.1054687,0.011719 -0.2695312,0.023437 -0.3164062,0.023437 -0.058594,0 -0.1289063,0.011719 -0.1289063,0.1054687 0,0.09375 0.070312,0.09375 0.1640625,0.09375 z m 0,0"
         style="fill:#000000;fill-opacity:1;fill-rule:nonzero;stroke:none" />
      <path
         id="path21"
         d="m 25.416034,8.1797969 c 0.808594,-0.2695313 1.394532,-0.9726563 1.394532,-1.7578125 0,-0.8203125 -0.878907,-1.3710938 -1.839844,-1.3710938 -1.007813,0 -1.757813,0.5976563 -1.757813,1.3476563 0,0.3398437 0.210938,0.5273437 0.503907,0.5273437 0.304687,0 0.503906,-0.2226562 0.503906,-0.515625 0,-0.4921875 -0.46875,-0.4921875 -0.609375,-0.4921875 0.304687,-0.4921875 0.960937,-0.6210937 1.324219,-0.6210937 0.410156,0 0.949218,0.2226562 0.949218,1.1132812 0,0.1289063 -0.01172,0.703125 -0.269531,1.1367188 -0.304687,0.4804687 -0.644531,0.515625 -0.890625,0.515625 -0.08203,0.011719 -0.316406,0.035156 -0.386719,0.035156 -0.08203,0.011719 -0.152343,0.023437 -0.152343,0.1171875 0,0.1171875 0.07031,0.1171875 0.234375,0.1171875 h 0.445312 c 0.808594,0 1.183594,0.6679688 1.183594,1.6523438 0,1.3476568 -0.691406,1.6406248 -1.125,1.6406248 -0.433594,0 -1.171875,-0.175781 -1.523438,-0.761718 0.351563,0.05859 0.65625,-0.164063 0.65625,-0.539063 0,-0.3632813 -0.269531,-0.5625001 -0.5625,-0.5625001 -0.234375,0 -0.550781,0.140625 -0.550781,0.5742191 0,0.914062 0.925781,1.570312 2.003906,1.570312 1.21875,0 2.121094,-0.914062 2.121094,-1.9218748 0,-0.8203125 -0.621094,-1.59375 -1.652344,-1.8046873 z m 0,0"
         style="fill:#000000;fill-opacity:1;fill-rule:nonzero;stroke:none" />
    </g>
    <path
       id="path22"
       d="M 613.531,314.648 791.227,136.949"
       style="fill:none;stroke:#000000;stroke-width:3.985;stroke-linecap:butt;stroke-linejoin:miter;stroke-miterlimit:10;stroke-dasharray:none;stroke-opacity:1"
       transform="matrix(0.13333333,0,0,-0.13333333,0,86.906667)" />
    <g
       id="g22"
       aria-label="M&#10;4&#10;4"
       transform="matrix(1.3333333,0,0,1.3333333,93.4084,54.0864)">
      <path
         id="path23"
         d="m 7.7356922,-4.7933156 c 0.082031,-0.3164063 0.09375,-0.3867188 0.65625,-0.3867188 0.1875,0 0.28125,0 0.28125,-0.1523437 0,-0.1054688 -0.1054688,-0.1054688 -0.2460938,-0.1054688 h -1.03125 c -0.2109375,0 -0.234375,0 -0.3398437,0.1523438 L 4.0442859,-0.73862812 3.3411609,-5.2269094 c -0.035156,-0.1992187 -0.035156,-0.2109375 -0.28125,-0.2109375 h -1.078125 c -0.140625,0 -0.2460937,0 -0.2460937,0.140625 0,0.1171875 0.1054687,0.1171875 0.234375,0.1171875 0.2578125,0 0.4921875,0 0.4921875,0.1289063 0,0.035156 -0.011719,0.035156 -0.035156,0.140625 l -1.0078125,4.05468748 c -0.09375,0.3984375 -0.3046875,0.57421875 -0.83203121,0.59765625 -0.046875,0 -0.15234375,0 -0.15234375,0.140625 0,0.05859375 0.046875,0.117187495 0.12890625,0.117187495 0.0234375,0 0.2109375,-0.023437495 0.78515621,-0.023437495 0.6328125,0 0.75,0.023437495 0.8203125,0.023437495 0.035156,0 0.1523438,0 0.1523438,-0.152343745 0,-0.09375 -0.09375,-0.10546875 -0.140625,-0.10546875 -0.2929688,-0.0117188 -0.5273438,-0.0585938 -0.5273438,-0.33984375 0,-0.0351563 0.023437,-0.15234375 0.023437,-0.1640625 l 1.078125,-4.32421878 h 0.011719 l 0.7734375,4.87500003 c 0.023437,0.12890625 0.035156,0.210937495 0.140625,0.210937495 0.1171875,0 0.1640625,-0.082031245 0.2226562,-0.164062495 L 7.1731922,-5.1448781 h 0.011719 l -1.125,4.51171873 c -0.070312,0.3046875 -0.09375,0.375 -0.6796875,0.375 -0.1523437,0 -0.2460937,0 -0.2460937,0.140625 0,0.03515625 0.023437,0.117187495 0.1289062,0.117187495 0.1054688,0 0.3398438,-0.011718745 0.4570313,-0.023437495 h 0.5039062 c 0.7382813,0 0.9375,0.023437495 0.984375,0.023437495 0.046875,0 0.1640625,0 0.1640625,-0.152343745 0,-0.10546875 -0.1054687,-0.10546875 -0.234375,-0.10546875 -0.023437,0 -0.1757812,0 -0.3046875,-0.0234375 -0.1757812,-0.0117188 -0.1875,-0.0351563 -0.1875,-0.10546875 0,-0.046875 0.011719,-0.09375 0.023437,-0.12890625 z m 0,0"
         style="fill:#000000;fill-opacity:1;fill-rule:nonzero;stroke:none" />
      <path
         id="path24"
         d="m 11.512059,0.1227 v -0.234375 h -0.703125 v -2.6367187 c 0,-0.140625 0,-0.1757813 -0.152343,-0.1757813 -0.105469,0 -0.117188,0.011719 -0.175782,0.082031 L 8.4065906,-0.111675 V 0.1227 h 1.8632814 v 0.48046875 c 0,0.19921875 0,0.26953125 -0.5039064,0.26953125 H 9.5901844 V 1.107075 C 9.7190906,1.095356 10.281591,1.083638 10.539403,1.083638 c 0.257813,0 0.820313,0.011719 0.949219,0.023437 V 0.8727 h -0.175781 c -0.503907,0 -0.503907,-0.0703125 -0.503907,-0.26953125 V 0.1227 Z M 10.316747,-2.2796437 V -0.111675 H 8.6644031 Z m 0,0"
         style="fill:#000000;fill-opacity:1;fill-rule:nonzero;stroke:none" />
      <path
         id="path25"
         d="m 27.449559,-6.4163625 v 0.8671875 c 0,0.3515625 -0.02344,0.46875 -0.761718,0.46875 h -0.210938 v 0.3046875 c 0.410156,-0.035156 0.9375,-0.035156 1.347656,-0.035156 0.421875,0 0.949219,0 1.359375,0.035156 V -5.080425 h -0.210937 c -0.738281,0 -0.761719,-0.1171875 -0.761719,-0.46875 v -0.8671875 h 0.996094 v -0.3164062 h -0.996094 v -4.5234373 c 0,-0.199219 0,-0.257813 -0.152344,-0.257813 -0.09375,0 -0.117187,0 -0.199218,0.117188 l -3.058594,4.6640623 v 0.3164062 z m 0.05859,-0.3164062 h -2.425781 l 2.425781,-3.7148433 z m 0,0"
         style="fill:#000000;fill-opacity:1;fill-rule:nonzero;stroke:none" />
    </g>
    <path
       id="path26"
       d="M 618.242,326.02 H 869.543"
       style="fill:none;stroke:#000000;stroke-width:3.985;stroke-linecap:butt;stroke-linejoin:miter;stroke-miterlimit:10;stroke-dasharray:none;stroke-opacity:1"
       transform="matrix(0.13333333,0,0,-0.13333333,0,86.906667)" />
    <g
       id="g26"
       aria-label="M&#10;5&#10;5"
       transform="matrix(1.3333333,0,0,1.3333333,92.651067,36.746267)">
      <path
         id="path27"
         d="m 7.7353328,-4.7930984 c 0.082031,-0.3164063 0.09375,-0.3867188 0.65625,-0.3867188 0.1875,0 0.28125,0 0.28125,-0.1523437 0,-0.1054688 -0.1054687,-0.1054688 -0.2460937,-0.1054688 h -1.03125 c -0.2109375,0 -0.234375,0 -0.3398438,0.1523438 L 4.0439266,-0.73841094 3.3408016,-5.2266922 c -0.035156,-0.1992187 -0.035156,-0.2109375 -0.28125,-0.2109375 h -1.078125 c -0.140625,0 -0.2460938,0 -0.2460938,0.140625 0,0.1171875 0.1054688,0.1171875 0.234375,0.1171875 0.2578125,0 0.4921875,0 0.4921875,0.1289063 0,0.035156 -0.011719,0.035156 -0.035156,0.140625 l -1.0078125,4.05468746 c -0.09375,0.3984375 -0.3046875,0.57421875 -0.83203129,0.59765625 -0.046875,0 -0.15234375,0 -0.15234375,0.140625 0,0.05859375 0.046875,0.1171875025 0.12890625,0.1171875025 0.0234375,0 0.2109375,-0.0234375025 0.78515629,-0.0234375025 0.6328125,0 0.75,0.0234375025 0.8203125,0.0234375025 0.035156,0 0.1523437,0 0.1523437,-0.1523437525 0,-0.09375 -0.09375,-0.10546875 -0.140625,-0.10546875 -0.2929687,-0.0117188 -0.5273437,-0.0585938 -0.5273437,-0.33984375 0,-0.0351563 0.023437,-0.15234375 0.023437,-0.1640625 l 1.078125,-4.32421876 h 0.011719 l 0.7734375,4.87500001 c 0.023437,0.12890625 0.035156,0.2109375025 0.140625,0.2109375025 0.1171875,0 0.1640625,-0.0820312525 0.2226563,-0.1640625025 L 7.1728328,-5.1446609 h 0.011719 l -1.125,4.51171871 c -0.070312,0.3046875 -0.09375,0.375 -0.6796875,0.375 -0.1523438,0 -0.2460938,0 -0.2460938,0.140625 0,0.03515625 0.023437,0.1171875025 0.1289063,0.1171875025 0.1054687,0 0.3398437,-0.0117187525 0.4570312,-0.0234375025 h 0.5039063 c 0.7382812,0 0.9375,0.0234375025 0.984375,0.0234375025 0.046875,0 0.1640625,0 0.1640625,-0.1523437525 0,-0.10546875 -0.1054688,-0.10546875 -0.234375,-0.10546875 -0.023437,0 -0.1757813,0 -0.3046875,-0.0234375 -0.1757813,-0.0117188 -0.1875,-0.0351563 -0.1875,-0.10546875 0,-0.046875 0.011719,-0.09375 0.023437,-0.12890625 z m 0,0"
         style="fill:#000000;fill-opacity:1;fill-rule:nonzero;stroke:none" />
      <path
         id="path28"
         d="m 9.1562313,-2.2091141 c 0.1992187,0.058594 0.3984375,0.082031 0.609375,0.082031 0.1289062,0 0.4570317,0 0.8437497,-0.2109375 0.09375,-0.058594 0.46875,-0.3046875 0.46875,-0.4335938 0,-0.082031 -0.05859,-0.09375 -0.08203,-0.09375 -0.02344,0 -0.02344,0 -0.09375,0.023437 -0.210937,0.082031 -0.515625,0.1640625 -0.9023437,0.1640625 -0.2929688,0 -0.6210938,-0.046875 -0.890625,-0.1523437 -0.058594,-0.023437 -0.082031,-0.035156 -0.1054688,-0.035156 -0.082031,0 -0.082031,0.058594 -0.082031,0.1640625 v 1.79296879 c 0,0.09375 0,0.1640625 0.1054687,0.1640625 0.058594,0 0.070312,-0.0234375 0.1171875,-0.0703125 C 9.2851387,-1.0020833 9.55467,-1.2013021 10.02342,-1.2013021 c 0.726562,0 0.726562,0.89062504 0.726562,1.07812504 0,0.234375 -0.01172,0.57421875 -0.210937,0.8203125 -0.1875,0.22265625 -0.457031,0.31640626 -0.7148438,0.31640626 -0.4101562,0 -0.8320312,-0.22265626 -0.9726562,-0.57421876 0.2929687,0 0.328125,-0.234375 0.328125,-0.3046875 0,-0.1640625 -0.1171875,-0.3046875 -0.3046875,-0.3046875 -0.058594,0 -0.3046875,0.0234375 -0.3046875,0.328125 0,0.55078125 0.515625,1.07812496 1.265625,1.07812496 0.820312,0 1.511719,-0.58593746 1.511719,-1.33593746 0,-0.6796875 -0.550782,-1.30078124 -1.3125,-1.30078124 -0.386719,0 -0.6914065,0.1289062 -0.8789065,0.2929687 z m 0,0"
         style="fill:#000000;fill-opacity:1;fill-rule:nonzero;stroke:none" />
      <path
         id="path29"
         d="m 18.771466,-19.834114 c 0,-1.183594 -0.820313,-2.179688 -1.898438,-2.179688 -0.480469,0 -0.902344,0.164063 -1.265625,0.503907 v -1.933594 c 0.199219,0.05859 0.527344,0.128906 0.84375,0.128906 1.230469,0 1.933594,-0.914062 1.933594,-1.042969 0,-0.05859 -0.03516,-0.105468 -0.105469,-0.105468 -0.01172,0 -0.03516,0 -0.08203,0.02344 -0.199219,0.09375 -0.679688,0.292969 -1.347656,0.292969 -0.398438,0 -0.855469,-0.07031 -1.324219,-0.28125 -0.08203,-0.02344 -0.105469,-0.02344 -0.128906,-0.02344 -0.09375,0 -0.09375,0.08203 -0.09375,0.234375 v 2.953125 c 0,0.175782 0,0.257813 0.140625,0.257813 0.07031,0 0.08203,-0.03516 0.128906,-0.09375 0.105469,-0.152344 0.480469,-0.691406 1.277344,-0.691406 0.527343,0 0.773437,0.457031 0.855468,0.632812 0.152344,0.375 0.175782,0.761719 0.175782,1.253906 0,0.351563 0,0.949219 -0.234375,1.371094 -0.246094,0.386719 -0.609375,0.644531 -1.066407,0.644531 -0.726562,0 -1.300781,-0.527343 -1.464843,-1.113281 0.02344,0.01172 0.05859,0.01172 0.164062,0.01172 0.328125,0 0.503906,-0.246094 0.503906,-0.480469 0,-0.246094 -0.175781,-0.492187 -0.503906,-0.492187 -0.140625,0 -0.480469,0.07031 -0.480469,0.527343 0,0.855469 0.679688,1.828125 1.792969,1.828125 1.160156,0 2.179688,-0.960937 2.179688,-2.226562 z m 0,0"
         style="fill:#000000;fill-opacity:1;fill-rule:nonzero;stroke:none" />
    </g>
    <path
       id="path30"
       d="M 613.531,337.391 791.227,515.09"
       style="fill:none;stroke:#000000;stroke-width:3.985;stroke-linecap:butt;stroke-linejoin:miter;stroke-miterlimit:10;stroke-dasharray:none;stroke-opacity:1"
       transform="matrix(0.13333333,0,0,-0.13333333,0,86.906667)" />
  </g>
</svg>
