<?xml version="1.0" encoding="UTF-8" standalone="no"?>
<!-- Created with Inkscape (http://www.inkscape.org/) -->

<svg
   version="1.1"
   id="svg1"
   width="84.986664"
   height="86.90667"
   viewBox="0 0 84.986664 86.90667"
   sodipodi:docname="imagelabelled_4-0-0.pdf"
   xmlns:inkscape="http://www.inkscape.org/namespaces/inkscape"
   xmlns:sodipodi="http://sodipodi.sourceforge.net/DTD/sodipodi-0.dtd"
   xmlns="http://www.w3.org/2000/svg"
   xmlns:svg="http://www.w3.org/2000/svg">
  <defs
     id="defs1" />
  <sodipodi:namedview
     id="namedview1"
     pagecolor="#ffffff"
     bordercolor="#000000"
     borderopacity="0.25"
     inkscape:showpageshadow="2"
     inkscape:pageopacity="0.0"
     inkscape:pagecheckerboard="0"
     inkscape:deskcolor="#d1d1d1">
    <inkscape:page
       x="0"
       y="0"
       inkscape:label="1"
       id="page1"
       width="84.986664"
       height="86.90667"
       margin="0"
       bleed="0" />
  </sodipodi:namedview>
  <g
     id="g1"
     inkscape:groupmode="layer"
     inkscape:label="1">
    <path
       id="path1"
       d="m 332.781,326.02 c 0,7.781 -6.308,14.089 -14.09,14.089 -7.781,0 -14.089,-6.308 -14.089,-14.089 0,-7.782 6.308,-14.09 14.089,-14.09 7.782,0 14.09,6.308 14.09,14.09 z"
       style="fill:#ffffff;fill-opacity:1;fill-rule:nonzero;stroke:#000000;stroke-width:3.985;stroke-linecap:butt;stroke-linejoin:miter;stroke-miterlimit:10;stroke-dasharray:none;stroke-opacity:1"
       transform="matrix(0.13333333,0,0,-0.13333333,0,86.906667)" />
    <path
       id="path2"
       d="m 132.34,526.461 c 0,7.785 -6.309,14.09 -14.094,14.09 -7.781,0 -14.09,-6.305 -14.09,-14.09 0,-7.781 6.309,-14.09 14.09,-14.09 7.785,0 14.094,6.309 14.094,14.09 z"
       style="fill:#000000;fill-opacity:1;fill-rule:nonzero;stroke:#000000;stroke-width:3.985;stroke-linecap:butt;stroke-linejoin:miter;stroke-miterlimit:10;stroke-dasharray:none;stroke-opacity:1"
       transform="matrix(0.13333333,0,0,-0.13333333,0,86.906667)" />
    <g
       id="g2"
       aria-label="M&#10;1&#10;1"
       transform="matrix(1.3333333,0,0,1.3333333,12.993227,38.573867)">
      <path
         id="path3"
         d="m 7.7335956,-4.7927047 c 0.082031,-0.3164062 0.09375,-0.3867187 0.65625,-0.3867187 0.1875,0 0.28125,0 0.28125,-0.1523438 0,-0.1054687 -0.1054687,-0.1054687 -0.2460937,-0.1054687 h -1.03125 c -0.2109375,0 -0.234375,0 -0.3398438,0.1523437 L 4.0421894,-0.73801719 3.3390644,-5.2262984 c -0.035156,-0.1992188 -0.035156,-0.2109375 -0.28125,-0.2109375 h -1.078125 c -0.140625,0 -0.2460938,0 -0.2460938,0.140625 0,0.1171875 0.1054688,0.1171875 0.234375,0.1171875 0.2578125,0 0.4921875,0 0.4921875,0.1289062 0,0.035156 -0.011719,0.035156 -0.035156,0.140625 l -1.0078125,4.05468751 c -0.09375,0.3984375 -0.3046875,0.57421875 -0.83203127,0.59765625 -0.046875,0 -0.15234375,0 -0.15234375,0.140625 0,0.05859375 0.046875,0.1171875025 0.12890625,0.1171875025 0.0234375,0 0.2109375,-0.0234375025 0.78515627,-0.0234375025 0.6328125,0 0.75,0.0234375025 0.8203125,0.0234375025 0.035156,0 0.1523437,0 0.1523437,-0.1523437525 0,-0.09375 -0.09375,-0.10546875 -0.140625,-0.10546875 -0.2929687,-0.0117188 -0.5273437,-0.0585938 -0.5273437,-0.33984375 0,-0.0351563 0.023437,-0.15234375 0.023437,-0.1640625 l 1.078125,-4.32421871 h 0.011719 l 0.7734375,4.87499996 c 0.023437,0.12890625 0.035156,0.2109375025 0.140625,0.2109375025 0.1171875,0 0.1640625,-0.0820312525 0.2226563,-0.1640625025 L 7.1710956,-5.1442672 h 0.011719 l -1.125,4.51171876 c -0.070312,0.3046875 -0.09375,0.375 -0.6796875,0.375 -0.1523438,0 -0.2460938,0 -0.2460938,0.140625 0,0.03515625 0.023437,0.1171875025 0.1289063,0.1171875025 0.1054687,0 0.3398437,-0.0117187525 0.4570312,-0.0234375025 h 0.5039063 c 0.7382812,0 0.9375,0.0234375025 0.984375,0.0234375025 0.046875,0 0.1640625,0 0.1640625,-0.1523437525 0,-0.10546875 -0.1054688,-0.10546875 -0.234375,-0.10546875 -0.023437,0 -0.1757813,0 -0.3046875,-0.0234375 -0.1757813,-0.0117188 -0.1875,-0.0351563 -0.1875,-0.10546875 0,-0.046875 0.011719,-0.09375 0.023437,-0.12890625 z m 0,0"
         style="fill:#000000;fill-opacity:1;fill-rule:nonzero;stroke:none" />
      <path
         id="path4"
         d="m 10.279494,-2.6891891 c 0,-0.1757812 -0.02344,-0.1757812 -0.199219,-0.1757812 -0.3984372,0.375 -1.0078122,0.375 -1.2187497,0.375 v 0.234375 c 0.1523438,0 0.5507813,0 0.9023438,-0.1640625 v 3.02343749 c 0,0.1875 0,0.26953125 -0.609375,0.26953125 H 8.8966816 V 1.1076859 c 0.328125,-0.023437 0.796875,-0.023437 1.1250004,-0.023437 0.339843,0 0.796875,0 1.136718,0.023437 V 0.87331094 h -0.257812 c -0.621094,0 -0.621094,-0.0820313 -0.621094,-0.26953125 z m 0,0"
         style="fill:#000000;fill-opacity:1;fill-rule:nonzero;stroke:none" />
      <path
         id="path5"
         d="m -3.4929669,-25.575908 c 0,-0.234375 0,-0.257812 -0.234375,-0.257812 -0.609375,0.632812 -1.4882812,0.632812 -1.8046875,0.632812 v 0.316406 c 0.1992188,0 0.7851563,0 1.3007813,-0.257812 v 5.15625 c 0,0.351562 -0.035156,0.480469 -0.9257813,0.480469 h -0.3164062 v 0.304687 c 0.3515625,-0.03516 1.2070312,-0.03516 1.6054687,-0.03516 0.3984375,0 1.265625,0 1.6171875,0.03516 v -0.304687 h -0.3164062 c -0.9023438,0 -0.9257813,-0.117188 -0.9257813,-0.480469 z m 0,0"
         style="fill:#000000;fill-opacity:1;fill-rule:nonzero;stroke:none" />
    </g>
    <path
       id="path6"
       d="M 307.316,337.391 129.621,515.09"
       style="fill:none;stroke:#000000;stroke-width:3.985;stroke-linecap:butt;stroke-linejoin:miter;stroke-miterlimit:10;stroke-dasharray:none;stroke-opacity:1"
       transform="matrix(0.13333333,0,0,-0.13333333,0,86.906667)" />
    <path
       id="path7"
       d="m 132.34,125.578 c 0,7.781 -6.309,14.09 -14.094,14.09 -7.781,0 -14.09,-6.309 -14.09,-14.09 0,-7.781 6.309,-14.09 14.09,-14.09 7.785,0 14.094,6.309 14.094,14.09 z"
       style="fill:#000000;fill-opacity:1;fill-rule:nonzero;stroke:#000000;stroke-width:3.985;stroke-linecap:butt;stroke-linejoin:miter;stroke-miterlimit:10;stroke-dasharray:none;stroke-opacity:1"
       transform="matrix(0.13333333,0,0,-0.13333333,0,86.906667)" />
    <g
       id="g7"
       aria-label="M&#10;2&#10;2"
       transform="matrix(1.3333333,0,0,1.3333333,26.5464,67.64)">
      <path
         id="path8"
         d="m 7.7347313,-4.7925 c 0.082031,-0.3164062 0.09375,-0.3867187 0.65625,-0.3867187 0.1875,0 0.28125,0 0.28125,-0.1523438 0,-0.1054687 -0.1054688,-0.1054687 -0.2460938,-0.1054687 h -1.03125 c -0.2109375,0 -0.234375,0 -0.3398437,0.1523437 L 4.043325,-0.7378125 3.3402,-5.2260937 C 3.3050438,-5.4253125 3.3050438,-5.4370312 3.05895,-5.4370312 H 1.980825 c -0.140625,0 -0.2460937,0 -0.2460937,0.140625 0,0.1171875 0.1054687,0.1171875 0.234375,0.1171875 0.2578125,0 0.4921875,0 0.4921875,0.1289062 0,0.035156 -0.011719,0.035156 -0.035156,0.140625 L 1.418325,-0.855 c -0.09375,0.3984375 -0.3046875,0.57421875 -0.83203125,0.59765625 -0.046875,0 -0.15234375,0 -0.15234375,0.140625 0,0.05859375 0.046875,0.1171875 0.12890625,0.1171875 0.0234375,0 0.2109375,-0.0234375 0.78515625,-0.0234375 0.6328125,0 0.75,0.0234375 0.8203125,0.0234375 0.035156,0 0.1523438,0 0.1523438,-0.15234375 0,-0.09375 -0.09375,-0.10546875 -0.140625,-0.10546875 C 1.887075,-0.2690625 1.6527,-0.3159375 1.6527,-0.5971875 c 0,-0.0351563 0.023437,-0.15234375 0.023437,-0.1640625 l 1.078125,-4.3242187 h 0.011719 l 0.7734375,4.87499995 c 0.023437,0.12890625 0.035156,0.2109375 0.140625,0.2109375 0.1171875,0 0.1640625,-0.08203125 0.2226562,-0.1640625 L 7.1722313,-5.1440625 H 7.18395 l -1.125,4.51171875 c -0.070312,0.3046875 -0.09375,0.375 -0.6796875,0.375 -0.1523437,0 -0.2460937,0 -0.2460937,0.140625 0,0.03515625 0.023437,0.1171875 0.1289062,0.1171875 0.1054688,0 0.3398438,-0.01171875 0.4570313,-0.0234375 h 0.5039062 c 0.7382813,0 0.9375,0.0234375 0.984375,0.0234375 0.046875,0 0.1640625,0 0.1640625,-0.15234375 0,-0.10546875 -0.1054687,-0.10546875 -0.234375,-0.10546875 -0.023437,0 -0.1757812,0 -0.3046875,-0.0234375 -0.1757812,-0.0117188 -0.1875,-0.0351563 -0.1875,-0.10546875 0,-0.046875 0.011719,-0.09375 0.023437,-0.12890625 z m 0,0"
         style="fill:#000000;fill-opacity:1;fill-rule:nonzero;stroke:none" />
      <path
         id="path9"
         d="m 11.347036,-0.00539062 h -0.210938 c -0.02344,0.08203125 -0.08203,0.46875 -0.164062,0.5390625 -0.04687,0.0351563 -0.527344,0.0351563 -0.609375,0.0351563 H 9.2376609 l 0.7734371,-0.62109375 c 0.199219,-0.1640625 0.726563,-0.5390625 0.914063,-0.7265625 0.175781,-0.17578125 0.421875,-0.48046873 0.421875,-0.90234383 0,-0.75 -0.667969,-1.1835937 -1.4765626,-1.1835937 -0.7617187,0 -1.3007812,0.5039062 -1.3007812,1.0664062 0,0.3046875 0.2578125,0.3398438 0.3164062,0.3398438 0.1523438,0 0.328125,-0.1054688 0.328125,-0.3164063 0,-0.140625 -0.082031,-0.328125 -0.3398437,-0.328125 0.1289062,-0.3046875 0.5039062,-0.5273437 0.9140625,-0.5273437 0.6210938,0 0.9609378,0.46875 0.9609378,0.9492187 0,0.421875 -0.28125,0.85546883 -0.703125,1.24218758 l -1.4179691,1.3007812 c -0.058594,0.0585938 -0.058594,0.0585938 -0.058594,0.24609372 h 2.6015631 z m 0,0"
         style="fill:#000000;fill-opacity:1;fill-rule:nonzero;stroke:none" />
      <path
         id="path10"
         d="m -15.321909,10.353984 1.054687,-1.0312496 c 1.558594,-1.3710938 2.15625,-1.9101563 2.15625,-2.90625 0,-1.1367188 -0.902344,-1.9335938 -2.121094,-1.9335938 -1.125,0 -1.851562,0.9140625 -1.851562,1.8046875 0,0.5507813 0.492187,0.5507813 0.527344,0.5507813 0.164062,0 0.515625,-0.1171875 0.515625,-0.5273438 0,-0.2578125 -0.1875,-0.515625 -0.527344,-0.515625 -0.08203,0 -0.105469,0 -0.128906,0.011719 0.222656,-0.6445313 0.761718,-1.0195313 1.335937,-1.0195313 0.914063,0 1.335938,0.8085938 1.335938,1.6289063 0,0.796875 -0.492188,1.5820312 -1.042969,2.203125 l -1.910156,2.1328124 c -0.105469,0.105469 -0.105469,0.128906 -0.105469,0.363281 h 3.691406 l 0.28125,-1.7343747 h -0.257812 c -0.04687,0.3046875 -0.117188,0.7382807 -0.210938,0.8906247 -0.07031,0.08203 -0.726562,0.08203 -0.949219,0.08203 z m 0,0"
         style="fill:#000000;fill-opacity:1;fill-rule:nonzero;stroke:none" />
    </g>
    <path
       id="path11"
       d="M 307.316,314.648 129.621,136.949"
       style="fill:none;stroke:#000000;stroke-width:3.985;stroke-linecap:butt;stroke-linejoin:miter;stroke-miterlimit:10;stroke-dasharray:none;stroke-opacity:1"
       transform="matrix(0.13333333,0,0,-0.13333333,0,86.906667)" />
    <path
       id="path12"
       d="m 533.223,125.578 c 0,7.781 -6.309,14.09 -14.09,14.09 -7.781,0 -14.09,-6.309 -14.09,-14.09 0,-7.781 6.309,-14.09 14.09,-14.09 7.781,0 14.09,6.309 14.09,14.09 z"
       style="fill:#000000;fill-opacity:1;fill-rule:nonzero;stroke:#000000;stroke-width:3.985;stroke-linecap:butt;stroke-linejoin:miter;stroke-miterlimit:10;stroke-dasharray:none;stroke-opacity:1"
       transform="matrix(0.13333333,0,0,-0.13333333,0,86.906667)" />
    <g
       id="g12"
       aria-label="M&#10;3&#10;3"
       transform="matrix(1.3333333,0,0,1.3333333,55.612533,54.0864)">
      <path
         id="path13"
         d="m 7.7349359,-4.7933156 c 0.082031,-0.3164063 0.09375,-0.3867188 0.65625,-0.3867188 0.1875,0 0.28125,0 0.28125,-0.1523437 0,-0.1054688 -0.1054687,-0.1054688 -0.2460937,-0.1054688 h -1.03125 c -0.2109375,0 -0.234375,0 -0.3398438,0.1523438 L 4.0435297,-0.73862812 3.3404047,-5.2269094 c -0.035156,-0.1992187 -0.035156,-0.2109375 -0.28125,-0.2109375 h -1.078125 c -0.140625,0 -0.2460938,0 -0.2460938,0.140625 0,0.1171875 0.1054688,0.1171875 0.234375,0.1171875 0.2578125,0 0.4921875,0 0.4921875,0.1289063 0,0.035156 -0.011719,0.035156 -0.035156,0.140625 l -1.0078125,4.05468748 c -0.09375,0.3984375 -0.3046875,0.57421875 -0.83203126,0.59765625 -0.046875,0 -0.15234375,0 -0.15234375,0.140625 0,0.05859375 0.046875,0.117187495 0.12890625,0.117187495 0.0234375,0 0.2109375,-0.023437495 0.78515626,-0.023437495 0.6328125,0 0.75,0.023437495 0.8203125,0.023437495 0.035156,0 0.1523437,0 0.1523437,-0.152343745 0,-0.09375 -0.09375,-0.10546875 -0.140625,-0.10546875 -0.2929687,-0.0117188 -0.5273437,-0.0585938 -0.5273437,-0.33984375 0,-0.0351563 0.023437,-0.15234375 0.023437,-0.1640625 l 1.078125,-4.32421878 h 0.011719 l 0.7734375,4.87500003 c 0.023437,0.12890625 0.035156,0.210937495 0.140625,0.210937495 0.1171875,0 0.1640625,-0.082031245 0.2226563,-0.164062495 L 7.1724359,-5.1448781 h 0.011719 l -1.125,4.51171873 c -0.070312,0.3046875 -0.09375,0.375 -0.6796875,0.375 -0.1523438,0 -0.2460938,0 -0.2460938,0.140625 0,0.03515625 0.023437,0.117187495 0.1289063,0.117187495 0.1054687,0 0.3398437,-0.011718745 0.4570312,-0.023437495 h 0.5039063 c 0.7382812,0 0.9375,0.023437495 0.984375,0.023437495 0.046875,0 0.1640625,0 0.1640625,-0.152343745 0,-0.10546875 -0.1054688,-0.10546875 -0.234375,-0.10546875 -0.023437,0 -0.1757813,0 -0.3046875,-0.0234375 -0.1757813,-0.0117188 -0.1875,-0.0351563 -0.1875,-0.10546875 0,-0.046875 0.011719,-0.09375 0.023437,-0.12890625 z m 0,0"
         style="fill:#000000;fill-opacity:1;fill-rule:nonzero;stroke:none" />
      <path
         id="path14"
         d="m 9.8941156,-0.87339375 c 0.5039064,0 0.8437504,0.33984375 0.8437504,0.94921875 0,0.65625 -0.386719,0.9375 -0.8320316,0.9375 -0.1523438,0 -0.7734375,-0.0351563 -1.0429688,-0.375 0.234375,-0.0234375 0.328125,-0.1875 0.328125,-0.33984375 0,-0.2109375 -0.140625,-0.33984375 -0.3398437,-0.33984375 -0.1640625,0 -0.3398438,0.09375 -0.3398438,0.3515625 0,0.5859375 0.65625,0.9257813 1.4179688,0.9257813 0.8789061,0 1.4765621,-0.5742188 1.4765621,-1.1601563 0,-0.43359375 -0.339843,-0.90234375 -1.042968,-1.078125 0.46875,-0.1523437 0.855468,-0.5390625 0.855468,-1.03125 0,-0.4804687 -0.5625,-0.8320312 -1.2773434,-0.8320312 -0.703125,0 -1.2421875,0.3164062 -1.2421875,0.8085937 0,0.2578125 0.1992188,0.328125 0.3164063,0.328125 0.1640625,0 0.328125,-0.1054687 0.328125,-0.3164062 0,-0.1875 -0.140625,-0.2929688 -0.2929688,-0.3164063 0.2695313,-0.3046875 0.8203125,-0.3046875 0.8671875,-0.3046875 0.3046879,0 0.6914059,0.140625 0.6914059,0.6328125 0,0.328125 -0.1875,0.9023438 -0.7851559,0.9375 -0.1054687,0.011719 -0.2695312,0.023437 -0.3164062,0.023437 -0.058594,0 -0.1289063,0.011719 -0.1289063,0.10546875 0,0.09375 0.070312,0.09375 0.1640625,0.09375 z m 0,0"
         style="fill:#000000;fill-opacity:1;fill-rule:nonzero;stroke:none" />
      <path
         id="path15"
         d="m 16.620678,17.776997 c 0.808594,-0.269531 1.394531,-0.972656 1.394531,-1.757813 0,-0.820312 -0.878906,-1.371093 -1.839843,-1.371093 -1.007813,0 -1.757813,0.597656 -1.757813,1.347656 0,0.339844 0.210938,0.527344 0.503906,0.527344 0.304688,0 0.503907,-0.222657 0.503907,-0.515625 0,-0.492188 -0.46875,-0.492188 -0.609375,-0.492188 0.304687,-0.492187 0.960937,-0.621094 1.324218,-0.621094 0.410157,0 0.949219,0.222657 0.949219,1.113282 0,0.128906 -0.01172,0.703125 -0.269531,1.136718 -0.304688,0.480469 -0.644531,0.515625 -0.890625,0.515625 -0.08203,0.01172 -0.316406,0.03516 -0.386719,0.03516 -0.08203,0.01172 -0.152344,0.02344 -0.152344,0.117187 0,0.117188 0.07031,0.117188 0.234375,0.117188 h 0.445313 c 0.808594,0 1.183594,0.667968 1.183594,1.652343 0,1.347657 -0.691407,1.640625 -1.125,1.640625 -0.433594,0 -1.171875,-0.175781 -1.523438,-0.761718 0.351563,0.05859 0.65625,-0.164063 0.65625,-0.539063 0,-0.363281 -0.269531,-0.5625 -0.5625,-0.5625 -0.234375,0 -0.550781,0.140625 -0.550781,0.574219 0,0.914062 0.925781,1.570312 2.003906,1.570312 1.21875,0 2.121094,-0.914062 2.121094,-1.921875 0,-0.820312 -0.621094,-1.59375 -1.652344,-1.804687 z m 0,0"
         style="fill:#000000;fill-opacity:1;fill-rule:nonzero;stroke:none" />
    </g>
    <path
       id="path16"
       d="M 330.063,314.648 507.762,136.949"
       style="fill:none;stroke:#000000;stroke-width:3.985;stroke-linecap:butt;stroke-linejoin:miter;stroke-miterlimit:10;stroke-dasharray:none;stroke-opacity:1"
       transform="matrix(0.13333333,0,0,-0.13333333,0,86.906667)" />
    <path
       id="path17"
       d="m 533.223,526.461 c 0,7.785 -6.309,14.09 -14.09,14.09 -7.781,0 -14.09,-6.305 -14.09,-14.09 0,-7.781 6.309,-14.09 14.09,-14.09 7.781,0 14.09,6.309 14.09,14.09 z"
       style="fill:#000000;fill-opacity:1;fill-rule:nonzero;stroke:#000000;stroke-width:3.985;stroke-linecap:butt;stroke-linejoin:miter;stroke-miterlimit:10;stroke-dasharray:none;stroke-opacity:1"
       transform="matrix(0.13333333,0,0,-0.13333333,0,86.906667)" />
    <g
       id="g17"
       aria-label="M&#10;4&#10;4"
       transform="matrix(1.3333333,0,0,1.3333333,42.0588,25.020667)">
      <path
         id="path18"
         d="m 7.7342203,-4.7938203 c 0.082031,-0.3164063 0.09375,-0.3867188 0.65625,-0.3867188 0.1875,0 0.28125,0 0.28125,-0.1523437 0,-0.1054688 -0.1054687,-0.1054688 -0.2460937,-0.1054688 h -1.03125 c -0.2109375,0 -0.234375,0 -0.3398438,0.1523438 L 4.0428141,-0.73913281 3.3396891,-5.2274141 c -0.035156,-0.1992187 -0.035156,-0.2109375 -0.28125,-0.2109375 h -1.078125 c -0.140625,0 -0.2460938,0 -0.2460938,0.140625 0,0.1171875 0.1054688,0.1171875 0.234375,0.1171875 0.2578125,0 0.4921875,0 0.4921875,0.1289063 0,0.035156 -0.011719,0.035156 -0.035156,0.140625 l -1.0078125,4.05468749 c -0.09375,0.3984375 -0.3046875,0.57421875 -0.83203129,0.59765625 -0.046875,0 -0.15234375,0 -0.15234375,0.140625 0,0.05859375 0.046875,0.1171874975 0.12890625,0.1171874975 0.0234375,0 0.2109375,-0.0234374975 0.78515629,-0.0234374975 0.6328125,0 0.75,0.0234374975 0.8203125,0.0234374975 0.035156,0 0.1523437,0 0.1523437,-0.1523437475 0,-0.09375 -0.09375,-0.10546875 -0.140625,-0.10546875 -0.2929687,-0.0117188 -0.5273437,-0.0585938 -0.5273437,-0.33984375 0,-0.0351563 0.023437,-0.15234375 0.023437,-0.1640625 l 1.078125,-4.32421879 h 0.011719 l 0.7734375,4.87500004 c 0.023437,0.12890625 0.035156,0.2109374975 0.140625,0.2109374975 0.1171875,0 0.1640625,-0.0820312475 0.2226563,-0.1640624975 L 7.1717203,-5.1453828 h 0.011719 l -1.125,4.51171874 c -0.070312,0.3046875 -0.09375,0.375 -0.6796875,0.375 -0.1523438,0 -0.2460938,0 -0.2460938,0.140625 0,0.03515625 0.023437,0.1171874975 0.1289063,0.1171874975 0.1054687,0 0.3398437,-0.0117187475 0.4570312,-0.0234374975 h 0.5039063 c 0.7382812,0 0.9375,0.0234374975 0.984375,0.0234374975 0.046875,0 0.1640625,0 0.1640625,-0.1523437475 0,-0.10546875 -0.1054688,-0.10546875 -0.234375,-0.10546875 -0.023437,0 -0.1757813,0 -0.3046875,-0.0234375 -0.1757813,-0.0117188 -0.1875,-0.0351563 -0.1875,-0.10546875 0,-0.046875 0.011719,-0.09375 0.023437,-0.12890625 z m 0,0"
         style="fill:#000000;fill-opacity:1;fill-rule:nonzero;stroke:none" />
      <path
         id="path19"
         d="m 11.510588,0.12219531 v -0.234375 H 10.807463 V -2.7488984 c 0,-0.140625 0,-0.1757813 -0.152344,-0.1757813 -0.105469,0 -0.117188,0.011719 -0.175781,0.082031 l -2.0742192,2.73046871 v 0.234375 H 10.2684 v 0.48046875 c 0,0.19921875 0,0.26953125 -0.5039062,0.26953125 H 9.5887125 V 1.1065703 c 0.1289063,-0.011719 0.6914065,-0.023437 0.9492185,-0.023437 0.257813,0 0.820313,0.011719 0.949219,0.023437 V 0.87219531 h -0.175781 c -0.503906,0 -0.503906,-0.0703125 -0.503906,-0.26953125 V 0.12219531 Z M 10.315275,-2.2801484 v 2.16796871 H 8.6629313 Z m 0,0"
         style="fill:#000000;fill-opacity:1;fill-rule:nonzero;stroke:none" />
      <path
         id="path20"
         d="m 26.821134,-10.676633 v 0.8671877 c 0,0.3515625 -0.02344,0.46875 -0.761718,0.46875 h -0.210938 v 0.3046875 c 0.410156,-0.035156 0.9375,-0.035156 1.347656,-0.035156 0.421875,0 0.949219,0 1.359375,0.035156 v -0.3046875 h -0.210937 c -0.738281,0 -0.761719,-0.1171875 -0.761719,-0.46875 v -0.8671877 h 0.996094 v -0.316406 h -0.996094 v -4.523438 c 0,-0.199218 0,-0.257812 -0.152344,-0.257812 -0.09375,0 -0.117187,0 -0.199218,0.117187 l -3.058594,4.664063 v 0.316406 z m 0.05859,-0.316406 h -2.425781 l 2.425781,-3.714844 z m 0,0"
         style="fill:#000000;fill-opacity:1;fill-rule:nonzero;stroke:none" />
    </g>
    <path
       id="path21"
       d="M 330.063,337.391 507.762,515.09"
       style="fill:none;stroke:#000000;stroke-width:3.985;stroke-linecap:butt;stroke-linejoin:miter;stroke-miterlimit:10;stroke-dasharray:none;stroke-opacity:1"
       transform="matrix(0.13333333,0,0,-0.13333333,0,86.906667)" />
  </g>
</svg>
