<?xml version="1.0" encoding="UTF-8" standalone="no"?>
<!-- Created with Inkscape (http://www.inkscape.org/) -->

<svg
   version="1.1"
   id="svg1"
   width="104.38667"
   height="110.86667"
   viewBox="0 0 104.38667 110.86667"
   sodipodi:docname="imagelabelled_5-0-0.pdf"
   xmlns:inkscape="http://www.inkscape.org/namespaces/inkscape"
   xmlns:sodipodi="http://sodipodi.sourceforge.net/DTD/sodipodi-0.dtd"
   xmlns="http://www.w3.org/2000/svg"
   xmlns:svg="http://www.w3.org/2000/svg">
  <defs
     id="defs1" />
  <sodipodi:namedview
     id="namedview1"
     pagecolor="#ffffff"
     bordercolor="#000000"
     borderopacity="0.25"
     inkscape:showpageshadow="2"
     inkscape:pageopacity="0.0"
     inkscape:pagecheckerboard="0"
     inkscape:deskcolor="#d1d1d1">
    <inkscape:page
       x="0"
       y="0"
       inkscape:label="1"
       id="page1"
       width="104.38667"
       height="110.86667"
       margin="0"
       bleed="0" />
  </sodipodi:namedview>
  <g
     id="g1"
     inkscape:groupmode="layer"
     inkscape:label="1">
    <path
       id="path1"
       d="m 370.309,415.93 c 0,7.781 -6.309,14.09 -14.09,14.09 -7.781,0 -14.09,-6.309 -14.09,-14.09 0,-7.782 6.309,-14.09 14.09,-14.09 7.781,0 14.09,6.308 14.09,14.09 z"
       style="fill:#ffffff;fill-opacity:1;fill-rule:nonzero;stroke:#000000;stroke-width:3.985;stroke-linecap:butt;stroke-linejoin:miter;stroke-miterlimit:10;stroke-dasharray:none;stroke-opacity:1"
       transform="matrix(0.13333333,0,0,-0.13333333,0,110.86667)" />
    <path
       id="path2"
       d="m 457.906,685.527 c 0,7.782 -6.308,14.09 -14.09,14.09 -7.781,0 -14.089,-6.308 -14.089,-14.09 0,-7.781 6.308,-14.089 14.089,-14.089 7.782,0 14.09,6.308 14.09,14.089 z"
       style="fill:#000000;fill-opacity:1;fill-rule:nonzero;stroke:#000000;stroke-width:3.985;stroke-linecap:butt;stroke-linejoin:miter;stroke-miterlimit:10;stroke-dasharray:none;stroke-opacity:1"
       transform="matrix(0.13333333,0,0,-0.13333333,0,110.86667)" />
    <g
       id="g2"
       aria-label="M&#10;1&#10;1"
       transform="matrix(1.3333333,0,0,1.3333333,36.5432,35.793733)">
      <path
         id="path3"
         d="m 7.7342016,-4.7935422 c 0.082031,-0.3164062 0.09375,-0.3867187 0.65625,-0.3867187 0.1875,0 0.28125,0 0.28125,-0.1523438 0,-0.1054687 -0.1054688,-0.1054687 -0.2460938,-0.1054687 h -1.03125 c -0.2109375,0 -0.234375,0 -0.3398437,0.1523437 L 4.0427953,-0.73885469 3.3396703,-5.2271359 c -0.035156,-0.1992188 -0.035156,-0.2109375 -0.28125,-0.2109375 h -1.078125 c -0.140625,0 -0.2460937,0 -0.2460937,0.140625 0,0.1171875 0.1054687,0.1171875 0.234375,0.1171875 0.2578125,0 0.4921875,0 0.4921875,0.1289062 0,0.035156 -0.011719,0.035156 -0.035156,0.140625 l -1.0078125,4.05468751 c -0.09375,0.3984375 -0.3046875,0.57421875 -0.83203124,0.59765625 -0.046875,0 -0.15234375,0 -0.15234375,0.140625 0,0.05859375 0.046875,0.1171875025 0.12890625,0.1171875025 0.0234375,0 0.2109375,-0.0234375025 0.78515624,-0.0234375025 0.6328125,0 0.75,0.0234375025 0.8203125,0.0234375025 0.035156,0 0.1523438,0 0.1523438,-0.1523437525 0,-0.09375 -0.09375,-0.10546875 -0.140625,-0.10546875 -0.2929688,-0.0117188 -0.5273438,-0.0585938 -0.5273438,-0.33984375 0,-0.0351563 0.023437,-0.15234375 0.023437,-0.1640625 l 1.078125,-4.32421871 h 0.011719 l 0.7734375,4.87499996 c 0.023437,0.12890625 0.035156,0.2109375025 0.140625,0.2109375025 0.1171875,0 0.1640625,-0.0820312525 0.2226562,-0.1640625025 L 7.1717016,-5.1451047 h 0.011719 l -1.125,4.51171876 c -0.070312,0.3046875 -0.09375,0.375 -0.6796875,0.375 -0.1523437,0 -0.2460937,0 -0.2460937,0.140625 0,0.03515625 0.023437,0.1171875025 0.1289062,0.1171875025 0.1054688,0 0.3398438,-0.0117187525 0.4570313,-0.0234375025 h 0.5039062 c 0.7382813,0 0.9375,0.0234375025 0.984375,0.0234375025 0.046875,0 0.1640625,0 0.1640625,-0.1523437525 0,-0.10546875 -0.1054687,-0.10546875 -0.234375,-0.10546875 -0.023437,0 -0.1757812,0 -0.3046875,-0.0234375 -0.1757812,-0.0117188 -0.1875,-0.0351563 -0.1875,-0.10546875 0,-0.046875 0.011719,-0.09375 0.023437,-0.12890625 z m 0,0"
         style="fill:#000000;fill-opacity:1;fill-rule:nonzero;stroke:none" />
      <path
         id="path4"
         d="m 10.2801,-2.6900266 c 0,-0.1757812 -0.02344,-0.1757812 -0.199219,-0.1757812 -0.3984372,0.375 -1.0078122,0.375 -1.2187497,0.375 v 0.234375 c 0.1523437,0 0.5507812,0 0.9023437,-0.1640625 v 3.02343749 c 0,0.1875 0,0.26953125 -0.609375,0.26953125 H 8.8972875 V 1.1068484 c 0.328125,-0.023437 0.796875,-0.023437 1.1250005,-0.023437 0.339843,0 0.796875,0 1.136718,0.023437 V 0.87247344 h -0.257812 c -0.621094,0 -0.621094,-0.0820313 -0.621094,-0.26953125 z m 0,0"
         style="fill:#000000;fill-opacity:1;fill-rule:nonzero;stroke:none" />
      <path
         id="path5"
         d="m 20.041819,-23.499597 c 0,-0.234375 0,-0.257812 -0.234375,-0.257812 -0.609375,0.632812 -1.488282,0.632812 -1.804688,0.632812 v 0.316406 c 0.199219,0 0.785156,0 1.300781,-0.257812 v 5.15625 c 0,0.351562 -0.03516,0.480469 -0.925781,0.480469 H 18.06135 v 0.304687 c 0.351562,-0.03516 1.207031,-0.03516 1.605469,-0.03516 0.398437,0 1.265625,0 1.617187,0.03516 v -0.304687 H 20.9676 c -0.902344,0 -0.925781,-0.117188 -0.925781,-0.480469 z m 0,0"
         style="fill:#000000;fill-opacity:1;fill-rule:nonzero;stroke:none" />
    </g>
    <path
       id="path6"
       d="M 361.191,431.227 438.848,670.23"
       style="fill:none;stroke:#000000;stroke-width:3.985;stroke-linecap:butt;stroke-linejoin:miter;stroke-miterlimit:10;stroke-dasharray:none;stroke-opacity:1"
       transform="matrix(0.13333333,0,0,-0.13333333,0,110.86667)" />
    <path
       id="path7"
       d="m 140.98,582.547 c 0,7.781 -6.308,14.09 -14.093,14.09 -7.782,0 -14.09,-6.309 -14.09,-14.09 0,-7.781 6.308,-14.09 14.09,-14.09 7.785,0 14.093,6.309 14.093,14.09 z"
       style="fill:#000000;fill-opacity:1;fill-rule:nonzero;stroke:#000000;stroke-width:3.985;stroke-linecap:butt;stroke-linejoin:miter;stroke-miterlimit:10;stroke-dasharray:none;stroke-opacity:1"
       transform="matrix(0.13333333,0,0,-0.13333333,0,110.86667)" />
    <g
       id="g7"
       aria-label="M&#10;2&#10;2"
       transform="matrix(1.3333333,0,0,1.3333333,17.045867,53.974933)">
      <path
         id="path8"
         d="m 7.7351313,-4.7917469 c 0.082031,-0.3164062 0.09375,-0.3867187 0.65625,-0.3867187 0.1875,0 0.28125,0 0.28125,-0.1523438 0,-0.1054687 -0.1054688,-0.1054687 -0.2460938,-0.1054687 h -1.03125 c -0.2109375,0 -0.234375,0 -0.3398437,0.1523437 L 4.043725,-0.73705937 3.3406,-5.2253406 C 3.3054438,-5.4245594 3.3054438,-5.4362781 3.05935,-5.4362781 H 1.981225 c -0.140625,0 -0.2460937,0 -0.2460937,0.140625 0,0.1171875 0.1054687,0.1171875 0.234375,0.1171875 0.2578125,0 0.4921875,0 0.4921875,0.1289062 0,0.035156 -0.011719,0.035156 -0.035156,0.140625 L 1.418725,-0.85424687 c -0.09375,0.3984375 -0.3046875,0.57421875 -0.83203125,0.59765625 -0.046875,0 -0.15234375,0 -0.15234375,0.140625 0,0.05859375 0.046875,0.1171875 0.12890625,0.1171875 0.0234375,0 0.2109375,-0.0234375 0.78515625,-0.0234375 0.6328125,0 0.75,0.0234375 0.8203125,0.0234375 0.035156,0 0.1523438,0 0.1523438,-0.15234375 0,-0.09375 -0.09375,-0.10546875 -0.140625,-0.10546875 C 1.887475,-0.26830937 1.6531,-0.31518437 1.6531,-0.59643437 c 0,-0.0351563 0.023437,-0.15234375 0.023437,-0.1640625 L 2.754662,-5.0847156 h 0.011719 l 0.7734375,4.87499998 c 0.023437,0.12890625 0.035156,0.2109375 0.140625,0.2109375 0.1171875,0 0.1640625,-0.08203125 0.2226562,-0.1640625 L 7.1726313,-5.1433094 H 7.18435 l -1.125,4.51171878 c -0.070312,0.3046875 -0.09375,0.375 -0.6796875,0.375 -0.1523437,0 -0.2460937,0 -0.2460937,0.140625 0,0.03515625 0.023437,0.1171875 0.1289062,0.1171875 0.1054688,0 0.3398438,-0.01171875 0.4570313,-0.0234375 h 0.5039062 c 0.7382813,0 0.9375,0.0234375 0.984375,0.0234375 0.046875,0 0.1640625,0 0.1640625,-0.15234375 0,-0.10546875 -0.1054687,-0.10546875 -0.234375,-0.10546875 -0.023437,0 -0.1757812,0 -0.3046875,-0.0234375 -0.1757812,-0.0117188 -0.1875,-0.0351563 -0.1875,-0.10546875 0,-0.046875 0.011719,-0.09375 0.023437,-0.12890625 z m 0,0"
         style="fill:#000000;fill-opacity:1;fill-rule:nonzero;stroke:none" />
      <path
         id="path9"
         d="m 11.347436,-0.00756719 h -0.210938 c -0.02344,0.08203125 -0.08203,0.46875 -0.164062,0.5390625 -0.04687,0.0351563 -0.527344,0.0351563 -0.609375,0.0351563 H 9.2380609 l 0.7734371,-0.62109375 c 0.199219,-0.1640625 0.726563,-0.5390625 0.914063,-0.7265625 0.175781,-0.17578125 0.421875,-0.48046866 0.421875,-0.90234366 0,-0.7500001 -0.667969,-1.1835939 -1.4765626,-1.1835939 -0.7617187,0 -1.3007812,0.5039064 -1.3007812,1.0664064 0,0.3046875 0.2578125,0.3398437 0.3164062,0.3398437 0.1523438,0 0.328125,-0.1054687 0.328125,-0.3164062 0,-0.140625 -0.082031,-0.3281251 -0.3398437,-0.3281251 0.1289062,-0.3046875 0.5039062,-0.5273438 0.9140625,-0.5273438 0.6210938,0 0.9609378,0.46875 0.9609378,0.9492188 0,0.421875 -0.28125,0.85546876 -0.703125,1.24218751 l -1.4179691,1.3007812 c -0.058594,0.0585938 -0.058594,0.0585938 -0.058594,0.24609379 h 2.6015631 z m 0,0"
         style="fill:#000000;fill-opacity:1;fill-rule:nonzero;stroke:none" />
      <path
         id="path10"
         d="m -8.1994391,-18.136473 1.0546875,-1.03125 c 1.5585938,-1.371094 2.15625,-1.910157 2.15625,-2.90625 0,-1.136719 -0.9023437,-1.933594 -2.1210937,-1.933594 -1.125,0 -1.8515625,0.914062 -1.8515625,1.804687 0,0.550782 0.4921875,0.550782 0.5273437,0.550782 0.1640625,0 0.515625,-0.117188 0.515625,-0.527344 0,-0.257813 -0.1875,-0.515625 -0.5273437,-0.515625 -0.082031,0 -0.1054688,0 -0.1289063,0.01172 0.2226563,-0.644532 0.7617188,-1.019532 1.3359375,-1.019532 0.9140625,0 1.3359375,0.808594 1.3359375,1.628907 0,0.796875 -0.4921875,1.582031 -1.0429687,2.203125 l -1.9101563,2.132812 c -0.1054687,0.105469 -0.1054687,0.128906 -0.1054687,0.363281 h 3.6914062 l 0.28125,-1.734375 h -0.2578125 c -0.046875,0.304688 -0.1171875,0.738282 -0.2109375,0.890625 -0.070312,0.08203 -0.7265625,0.08203 -0.9492187,0.08203 z m 0,0"
         style="fill:#000000;fill-opacity:1;fill-rule:nonzero;stroke:none" />
    </g>
    <path
       id="path11"
       d="M 343.211,425.383 139.898,573.094"
       style="fill:none;stroke:#000000;stroke-width:3.985;stroke-linecap:butt;stroke-linejoin:miter;stroke-miterlimit:10;stroke-dasharray:none;stroke-opacity:1"
       transform="matrix(0.13333333,0,0,-0.13333333,0,110.86667)" />
    <path
       id="path12"
       d="m 140.98,249.313 c 0,7.781 -6.308,14.089 -14.093,14.089 -7.782,0 -14.09,-6.308 -14.09,-14.089 0,-7.782 6.308,-14.09 14.09,-14.09 7.785,0 14.093,6.308 14.093,14.09 z"
       style="fill:#000000;fill-opacity:1;fill-rule:nonzero;stroke:#000000;stroke-width:3.985;stroke-linecap:butt;stroke-linejoin:miter;stroke-miterlimit:10;stroke-dasharray:none;stroke-opacity:1"
       transform="matrix(0.13333333,0,0,-0.13333333,0,110.86667)" />
    <g
       id="g12"
       aria-label="M&#10;3&#10;3"
       transform="matrix(1.3333333,0,0,1.3333333,28.312533,78.136)">
      <path
         id="path13"
         d="m 7.73435,-4.7924297 c 0.082031,-0.3164062 0.09375,-0.3867187 0.65625,-0.3867187 0.1875,0 0.28125,0 0.28125,-0.1523438 0,-0.1054687 -0.1054688,-0.1054687 -0.2460938,-0.1054687 h -1.03125 c -0.2109375,0 -0.234375,0 -0.3398437,0.1523437 L 4.0429437,-0.73774219 3.3398187,-5.2260234 c -0.035156,-0.1992188 -0.035156,-0.2109375 -0.28125,-0.2109375 h -1.078125 c -0.140625,0 -0.2460937,0 -0.2460937,0.140625 0,0.1171875 0.1054687,0.1171875 0.234375,0.1171875 0.2578125,0 0.4921875,0 0.4921875,0.1289062 0,0.035156 -0.011719,0.035156 -0.035156,0.140625 L 1.417944,-0.85492969 c -0.09375,0.3984375 -0.3046875,0.57421875 -0.8320312,0.59765625 -0.046875,0 -0.15234375,0 -0.15234375,0.140625 0,0.05859375 0.046875,0.1171875025 0.12890625,0.1171875025 0.0234375,0 0.2109375,-0.0234375025 0.7851562,-0.0234375025 0.6328125,0 0.75,0.0234375025 0.8203125,0.0234375025 0.035156,0 0.1523438,0 0.1523438,-0.1523437525 0,-0.09375 -0.09375,-0.10546875 -0.140625,-0.10546875 -0.2929688,-0.0117188 -0.5273438,-0.0585938 -0.5273438,-0.33984375 0,-0.0351563 0.023437,-0.15234375 0.023437,-0.1640625 L 2.7538812,-5.0853984 H 2.7656 l 0.7734375,4.87499996 c 0.023437,0.12890625 0.035156,0.2109375025 0.140625,0.2109375025 0.1171875,0 0.1640625,-0.0820312525 0.2226562,-0.1640625025 L 7.17185,-5.1439922 h 0.011719 l -1.125,4.51171876 c -0.070312,0.3046875 -0.09375,0.375 -0.6796875,0.375 -0.1523437,0 -0.2460937,0 -0.2460937,0.140625 0,0.03515625 0.023437,0.1171875025 0.1289062,0.1171875025 0.1054688,0 0.3398438,-0.0117187525 0.4570313,-0.0234375025 h 0.5039062 c 0.7382813,0 0.9375,0.0234375025 0.984375,0.0234375025 0.046875,0 0.1640625,0 0.1640625,-0.1523437525 0,-0.10546875 -0.1054687,-0.10546875 -0.234375,-0.10546875 -0.023437,0 -0.1757812,0 -0.3046875,-0.0234375 -0.1757812,-0.0117188 -0.1875,-0.0351563 -0.1875,-0.10546875 0,-0.046875 0.011719,-0.09375 0.023437,-0.12890625 z m 0,0"
         style="fill:#000000;fill-opacity:1;fill-rule:nonzero;stroke:none" />
      <path
         id="path14"
         d="m 9.8935297,-0.87250781 c 0.5039063,0 0.8437503,0.33984375 0.8437503,0.94921875 0,0.65625 -0.386719,0.93749996 -0.8320316,0.93749996 -0.1523437,0 -0.7734375,-0.0351562 -1.0429687,-0.37499996 0.234375,-0.0234375 0.328125,-0.1875 0.328125,-0.33984375 0,-0.2109375 -0.140625,-0.33984375 -0.3398438,-0.33984375 -0.1640625,0 -0.3398437,0.09375 -0.3398437,0.3515625 0,0.5859375 0.65625,0.92578126 1.4179687,0.92578126 0.8789061,0 1.4765621,-0.57421876 1.4765621,-1.16015626 0,-0.43359375 -0.339843,-0.90234375 -1.042968,-1.07812504 0.46875,-0.1523437 0.855468,-0.5390625 0.855468,-1.03125 0,-0.4804687 -0.5625,-0.8320312 -1.2773433,-0.8320312 -0.703125,0 -1.2421875,0.3164062 -1.2421875,0.8085937 0,0.2578125 0.1992187,0.328125 0.3164062,0.328125 0.1640625,0 0.328125,-0.1054687 0.328125,-0.3164062 0,-0.1875 -0.140625,-0.2929688 -0.2929687,-0.3164063 0.2695312,-0.3046875 0.8203125,-0.3046875 0.8671875,-0.3046875 0.3046878,0 0.6914058,0.140625 0.6914058,0.6328125 0,0.328125 -0.1875,0.9023438 -0.7851558,0.9375 -0.1054688,0.011719 -0.2695313,0.023437 -0.3164063,0.023437 -0.058594,0 -0.1289062,0.011719 -0.1289062,0.10546879 0,0.09375 0.070312,0.09375 0.1640625,0.09375 z m 0,0"
         style="fill:#000000;fill-opacity:1;fill-rule:nonzero;stroke:none" />
      <path
         id="path15"
         d="m -15.020533,4.3218281 c 0.808594,-0.2695312 1.394531,-0.9726562 1.394531,-1.7578125 0,-0.8203125 -0.878906,-1.3710937 -1.839843,-1.3710937 -1.007813,0 -1.757813,0.5976562 -1.757813,1.3476562 0,0.3398438 0.210938,0.5273438 0.503906,0.5273438 0.304688,0 0.503907,-0.2226563 0.503907,-0.515625 0,-0.4921875 -0.46875,-0.4921875 -0.609375,-0.4921875 0.304687,-0.4921875 0.960937,-0.6210938 1.324218,-0.6210938 0.410157,0 0.949219,0.2226563 0.949219,1.1132813 0,0.1289062 -0.01172,0.703125 -0.269531,1.1367187 -0.304688,0.4804688 -0.644531,0.515625 -0.890625,0.515625 -0.08203,0.011719 -0.316406,0.035156 -0.386719,0.035156 -0.08203,0.011719 -0.152344,0.023437 -0.152344,0.1171875 0,0.1171875 0.07031,0.1171875 0.234375,0.1171875 h 0.445313 c 0.808594,0 1.183594,0.6679687 1.183594,1.6523437 0,1.3476563 -0.691407,1.640625 -1.125,1.640625 -0.433594,0 -1.171875,-0.1757812 -1.523438,-0.7617187 0.351563,0.058594 0.65625,-0.1640625 0.65625,-0.5390625 0,-0.3632813 -0.269531,-0.5625 -0.5625,-0.5625 -0.234375,0 -0.550781,0.140625 -0.550781,0.5742187 0,0.9140625 0.925781,1.5703125 2.003906,1.5703125 1.21875,0 2.121094,-0.9140625 2.121094,-1.921875 0,-0.8203125 -0.621094,-1.59375 -1.652344,-1.8046872 z m 0,0"
         style="fill:#000000;fill-opacity:1;fill-rule:nonzero;stroke:none" />
    </g>
    <path
       id="path16"
       d="M 343.211,406.477 139.898,258.766"
       style="fill:none;stroke:#000000;stroke-width:3.985;stroke-linecap:butt;stroke-linejoin:miter;stroke-miterlimit:10;stroke-dasharray:none;stroke-opacity:1"
       transform="matrix(0.13333333,0,0,-0.13333333,0,110.86667)" />
    <path
       id="path17"
       d="m 457.906,146.332 c 0,7.785 -6.308,14.094 -14.09,14.094 -7.781,0 -14.089,-6.309 -14.089,-14.094 0,-7.781 6.308,-14.09 14.089,-14.09 7.782,0 14.09,6.309 14.09,14.09 z"
       style="fill:#000000;fill-opacity:1;fill-rule:nonzero;stroke:#000000;stroke-width:3.985;stroke-linecap:butt;stroke-linejoin:miter;stroke-miterlimit:10;stroke-dasharray:none;stroke-opacity:1"
       transform="matrix(0.13333333,0,0,-0.13333333,0,110.86667)" />
    <g
       id="g17"
       aria-label="M&#10;4&#10;4"
       transform="matrix(1.3333333,0,0,1.3333333,54.7724,74.887467)">
      <path
         id="path18"
         d="m 7.7351531,-4.7935297 c 0.082031,-0.3164062 0.09375,-0.3867187 0.65625,-0.3867187 0.1875,0 0.28125,0 0.28125,-0.1523438 0,-0.1054687 -0.1054687,-0.1054687 -0.2460937,-0.1054687 h -1.03125 c -0.2109375,0 -0.234375,0 -0.3398438,0.1523437 L 4.0437469,-0.73884219 3.3406219,-5.2271234 c -0.035156,-0.1992188 -0.035156,-0.2109375 -0.28125,-0.2109375 h -1.078125 c -0.140625,0 -0.2460938,0 -0.2460938,0.140625 0,0.1171875 0.1054688,0.1171875 0.234375,0.1171875 0.2578125,0 0.4921875,0 0.4921875,0.1289062 0,0.035156 -0.011719,0.035156 -0.035156,0.140625 l -1.0078125,4.05468751 c -0.09375,0.3984375 -0.3046875,0.57421875 -0.83203128,0.59765625 -0.046875,0 -0.15234375,0 -0.15234375,0.140625 0,0.05859375 0.046875,0.1171875025 0.12890625,0.1171875025 0.0234375,0 0.2109375,-0.0234375025 0.78515628,-0.0234375025 0.6328125,0 0.75,0.0234375025 0.8203125,0.0234375025 0.035156,0 0.1523437,0 0.1523437,-0.1523437525 0,-0.09375 -0.09375,-0.10546875 -0.140625,-0.10546875 -0.2929687,-0.0117188 -0.5273437,-0.0585938 -0.5273437,-0.33984375 0,-0.0351563 0.023437,-0.15234375 0.023437,-0.1640625 l 1.078125,-4.32421871 h 0.011719 l 0.7734375,4.87499996 c 0.023437,0.12890625 0.035156,0.2109375025 0.140625,0.2109375025 0.1171875,0 0.1640625,-0.0820312525 0.2226563,-0.1640625025 L 7.1726531,-5.1450922 h 0.011719 l -1.125,4.51171876 c -0.070312,0.3046875 -0.09375,0.375 -0.6796875,0.375 -0.1523438,0 -0.2460938,0 -0.2460938,0.140625 0,0.03515625 0.023437,0.1171875025 0.1289063,0.1171875025 0.1054687,0 0.3398437,-0.0117187525 0.4570312,-0.0234375025 h 0.5039063 c 0.7382812,0 0.9375,0.0234375025 0.984375,0.0234375025 0.046875,0 0.1640625,0 0.1640625,-0.1523437525 0,-0.10546875 -0.1054688,-0.10546875 -0.234375,-0.10546875 -0.023437,0 -0.1757813,0 -0.3046875,-0.0234375 -0.1757813,-0.0117188 -0.1875,-0.0351563 -0.1875,-0.10546875 0,-0.046875 0.011719,-0.09375 0.023437,-0.12890625 z m 0,0"
         style="fill:#000000;fill-opacity:1;fill-rule:nonzero;stroke:none" />
      <path
         id="path19"
         d="m 11.51152,0.12248594 v -0.234375 H 10.808395 V -2.7486078 c 0,-0.140625 0,-0.1757813 -0.152343,-0.1757813 -0.105469,0 -0.117188,0.011719 -0.175782,0.082031 l -2.0742184,2.73046874 v 0.234375 h 1.8632814 v 0.48046875 c 0,0.19921875 0,0.26953125 -0.5039064,0.26953125 H 9.5896453 V 1.1068609 c 0.1289063,-0.011719 0.6914067,-0.023437 0.9492187,-0.023437 0.257813,0 0.820313,0.011719 0.949219,0.023437 V 0.87248594 h -0.175781 c -0.503907,0 -0.503907,-0.0703125 -0.503907,-0.26953125 V 0.12248594 Z M 10.316208,-2.2798578 v 2.16796874 H 8.6638641 Z m 0,0"
         style="fill:#000000;fill-opacity:1;fill-rule:nonzero;stroke:none" />
      <path
         id="path20"
         d="m 6.3699187,22.007252 v 0.867187 c 0,0.351563 -0.023437,0.46875 -0.7617187,0.46875 H 5.3972625 v 0.304688 c 0.4101562,-0.03516 0.9375,-0.03516 1.3476562,-0.03516 0.421875,0 0.9492188,0 1.359375,0.03516 V 23.343189 H 7.8933562 c -0.7382812,0 -0.7617187,-0.117187 -0.7617187,-0.46875 V 22.007252 H 8.1277312 V 21.690845 H 7.1316375 v -4.523437 c 0,-0.199219 0,-0.257813 -0.1523438,-0.257813 -0.09375,0 -0.1171875,0 -0.1992187,0.117188 l -3.0585938,4.664062 v 0.316407 z m 0.058594,-0.316407 H 4.0027312 l 2.4257813,-3.714843 z m 0,0"
         style="fill:#000000;fill-opacity:1;fill-rule:nonzero;stroke:none" />
    </g>
    <path
       id="path21"
       d="M 361.191,400.633 438.848,161.629"
       style="fill:none;stroke:#000000;stroke-width:3.985;stroke-linecap:butt;stroke-linejoin:miter;stroke-miterlimit:10;stroke-dasharray:none;stroke-opacity:1"
       transform="matrix(0.13333333,0,0,-0.13333333,0,110.86667)" />
    <path
       id="path22"
       d="m 653.777,415.93 c 0,7.781 -6.308,14.09 -14.089,14.09 -7.782,0 -14.09,-6.309 -14.09,-14.09 0,-7.782 6.308,-14.09 14.09,-14.09 7.781,0 14.089,6.308 14.089,14.09 z"
       style="fill:#000000;fill-opacity:1;fill-rule:nonzero;stroke:#000000;stroke-width:3.985;stroke-linecap:butt;stroke-linejoin:miter;stroke-miterlimit:10;stroke-dasharray:none;stroke-opacity:1"
       transform="matrix(0.13333333,0,0,-0.13333333,0,110.86667)" />
    <g
       id="g22"
       aria-label="M&#10;5&#10;5"
       transform="matrix(1.3333333,0,0,1.3333333,59.859333,48.718267)">
      <path
         id="path23"
         d="m 7.7344062,-4.7926062 c 0.082031,-0.3164063 0.09375,-0.3867188 0.65625,-0.3867188 0.1875,0 0.28125,0 0.28125,-0.1523437 0,-0.1054688 -0.1054687,-0.1054688 -0.2460937,-0.1054688 h -1.03125 c -0.2109375,0 -0.234375,0 -0.3398438,0.1523438 L 4.043,-0.73791875 3.339875,-5.2262 C 3.3047187,-5.4254187 3.3047187,-5.4371375 3.058625,-5.4371375 H 1.9805 c -0.140625,0 -0.2460938,0 -0.2460938,0.140625 0,0.1171875 0.1054688,0.1171875 0.234375,0.1171875 0.2578125,0 0.4921875,0 0.4921875,0.1289063 0,0.035156 -0.011719,0.035156 -0.035156,0.140625 L 1.418,-0.85510625 C 1.32425,-0.45666875 1.1133125,-0.2808875 0.58596875,-0.25745 c -0.046875,0 -0.15234375,0 -0.15234375,0.140625 0,0.05859375 0.046875,0.1171875 0.12890625,0.1171875 0.0234375,0 0.2109375,-0.0234375 0.78515625,-0.0234375 0.6328125,0 0.75,0.0234375 0.8203125,0.0234375 0.035156,0 0.1523437,0 0.1523437,-0.15234375 0,-0.09375 -0.09375,-0.10546875 -0.140625,-0.10546875 C 1.88675,-0.26916875 1.652375,-0.31604375 1.652375,-0.59729375 c 0,-0.0351563 0.023437,-0.15234375 0.023437,-0.1640625 L 2.7539375,-5.085575 h 0.011719 l 0.7734375,4.875 c 0.023437,0.12890625 0.035156,0.2109375 0.140625,0.2109375 0.1171875,0 0.1640625,-0.08203125 0.2226563,-0.1640625 l 3.2695312,-4.9804687 h 0.011719 l -1.125,4.5117187 c -0.070312,0.3046875 -0.09375,0.375 -0.6796875,0.375 -0.1523438,0 -0.2460938,0 -0.2460938,0.140625 0,0.03515625 0.023437,0.1171875 0.1289063,0.1171875 0.1054687,0 0.3398437,-0.01171875 0.4570312,-0.0234375 H 6.222688 c 0.7382812,0 0.9375,0.0234375 0.984375,0.0234375 0.046875,0 0.1640625,0 0.1640625,-0.15234375 C 7.371125,-0.25745 7.2656562,-0.25745 7.13675,-0.25745 c -0.023437,0 -0.1757813,0 -0.3046875,-0.0234375 -0.1757813,-0.0117188 -0.1875,-0.0351563 -0.1875,-0.10546875 0,-0.046875 0.011719,-0.09375 0.023437,-0.12890625 z m 0,0"
         style="fill:#000000;fill-opacity:1;fill-rule:nonzero;stroke:none" />
      <path
         id="path24"
         d="m 9.1553047,-2.2086219 c 0.1992187,0.058594 0.3984375,0.082031 0.609375,0.082031 0.1289062,0 0.4570313,0 0.8437503,-0.2109375 0.09375,-0.058594 0.46875,-0.3046875 0.46875,-0.4335938 0,-0.082031 -0.05859,-0.09375 -0.08203,-0.09375 -0.02344,0 -0.02344,0 -0.09375,0.023437 -0.210937,0.082031 -0.515625,0.1640625 -0.9023433,0.1640625 -0.2929688,0 -0.6210938,-0.046875 -0.890625,-0.1523437 -0.058594,-0.023437 -0.082031,-0.035156 -0.1054688,-0.035156 -0.082031,0 -0.082031,0.058594 -0.082031,0.1640625 v 1.79296878 c 0,0.09375 0,0.1640625 0.1054687,0.1640625 0.058594,0 0.070312,-0.0234375 0.1171875,-0.0703125 0.140625,-0.18749998 0.4101563,-0.38671878 0.8789059,-0.38671878 0.726563,0 0.726563,0.89062503 0.726563,1.07812503 0,0.234375 -0.01172,0.57421875 -0.210938,0.8203125 -0.1875,0.22265625 -0.457031,0.31640627 -0.7148434,0.31640627 -0.4101562,0 -0.8320312,-0.22265627 -0.9726562,-0.57421877 0.2929687,0 0.328125,-0.234375 0.328125,-0.3046875 0,-0.1640625 -0.1171875,-0.3046875 -0.3046875,-0.3046875 -0.058594,0 -0.3046875,0.0234375 -0.3046875,0.328125 0,0.55078125 0.515625,1.07812497 1.265625,1.07812497 0.8203126,0 1.5117186,-0.58593747 1.5117186,-1.33593747 0,-0.6796875 -0.550781,-1.30078123 -1.3125,-1.30078123 -0.3867186,0 -0.6914061,0.1289062 -0.8789061,0.2929687 z m 0,0"
         style="fill:#000000;fill-opacity:1;fill-rule:nonzero;stroke:none" />
      <path
         id="path25"
         d="m 29.563508,6.2259484 c 0,-1.1835937 -0.820313,-2.1796875 -1.898438,-2.1796875 -0.480468,0 -0.902343,0.1640625 -1.265625,0.5039063 V 2.6165734 c 0.199219,0.058594 0.527344,0.1289063 0.84375,0.1289063 1.230469,0 1.933594,-0.9140625 1.933594,-1.0429688 0,-0.058594 -0.03516,-0.1054687 -0.105469,-0.1054687 -0.01172,0 -0.03516,0 -0.08203,0.023437 -0.199219,0.09375 -0.679687,0.2929687 -1.347656,0.2929687 -0.398438,0 -0.855469,-0.070312 -1.324219,-0.28125 -0.08203,-0.023437 -0.105469,-0.023437 -0.128906,-0.023437 -0.09375,0 -0.09375,0.082031 -0.09375,0.234375 v 2.953125 c 0,0.1757813 0,0.2578125 0.140625,0.2578125 0.07031,0 0.08203,-0.035156 0.128906,-0.09375 0.105469,-0.1523437 0.480469,-0.6914062 1.277344,-0.6914062 0.527344,0 0.773437,0.4570312 0.855469,0.6328125 0.152343,0.375 0.175781,0.7617187 0.175781,1.2539062 0,0.3515625 0,0.9492188 -0.234375,1.3710938 -0.246094,0.3867187 -0.609375,0.6445312 -1.066406,0.6445312 -0.726563,0 -1.300782,-0.5273437 -1.464844,-1.1132812 0.02344,0.011719 0.05859,0.011719 0.164062,0.011719 0.328125,0 0.503907,-0.2460937 0.503907,-0.4804687 0,-0.2460938 -0.175782,-0.4921875 -0.503907,-0.4921875 -0.140625,0 -0.480468,0.070312 -0.480468,0.5273437 0,0.8554688 0.679687,1.828125 1.792968,1.828125 1.160157,0 2.179688,-0.9609375 2.179688,-2.2265625 z m 0,0"
         style="fill:#000000;fill-opacity:1;fill-rule:nonzero;stroke:none" />
    </g>
    <path
       id="path26"
       d="m 372.305,415.93 h 251.3"
       style="fill:none;stroke:#000000;stroke-width:3.985;stroke-linecap:butt;stroke-linejoin:miter;stroke-miterlimit:10;stroke-dasharray:none;stroke-opacity:1"
       transform="matrix(0.13333333,0,0,-0.13333333,0,110.86667)" />
  </g>
</svg>
