<?xml version="1.0" encoding="UTF-8" standalone="no"?>
<!-- Created with Inkscape (http://www.inkscape.org/) -->

<svg
   version="1.1"
   id="svg1"
   width="160.57333"
   height="101.29333"
   viewBox="0 0 160.57333 101.29333"
   sodipodi:docname="imagelabelled_5-0-2.pdf"
   xmlns:inkscape="http://www.inkscape.org/namespaces/inkscape"
   xmlns:sodipodi="http://sodipodi.sourceforge.net/DTD/sodipodi-0.dtd"
   xmlns="http://www.w3.org/2000/svg"
   xmlns:svg="http://www.w3.org/2000/svg">
  <defs
     id="defs1" />
  <sodipodi:namedview
     id="namedview1"
     pagecolor="#ffffff"
     bordercolor="#000000"
     borderopacity="0.25"
     inkscape:showpageshadow="2"
     inkscape:pageopacity="0.0"
     inkscape:pagecheckerboard="0"
     inkscape:deskcolor="#d1d1d1">
    <inkscape:page
       x="0"
       y="0"
       inkscape:label="1"
       id="page1"
       width="160.57333"
       height="101.29333"
       margin="0"
       bleed="0" />
  </sodipodi:namedview>
  <g
     id="g1"
     inkscape:groupmode="layer"
     inkscape:label="1">
    <path
       id="path1"
       d="m 332.781,326.02 c 0,7.781 -6.308,14.089 -14.09,14.089 -7.781,0 -14.089,-6.308 -14.089,-14.089 0,-7.782 6.308,-14.09 14.089,-14.09 7.782,0 14.09,6.308 14.09,14.09 z"
       style="fill:#ffffff;fill-opacity:1;fill-rule:nonzero;stroke:#000000;stroke-width:3.985;stroke-linecap:butt;stroke-linejoin:miter;stroke-miterlimit:10;stroke-dasharray:none;stroke-opacity:1"
       transform="matrix(0.13333333,0,0,-0.13333333,0,101.29333)" />
    <path
       id="path2"
       d="m 616.25,326.02 c 0,7.781 -6.309,14.089 -14.094,14.089 -7.781,0 -14.09,-6.308 -14.09,-14.089 0,-7.782 6.309,-14.09 14.09,-14.09 7.785,0 14.094,6.308 14.094,14.09 z"
       style="fill:#ffffff;fill-opacity:1;fill-rule:nonzero;stroke:#000000;stroke-width:3.985;stroke-linecap:butt;stroke-linejoin:miter;stroke-miterlimit:10;stroke-dasharray:none;stroke-opacity:1"
       transform="matrix(0.13333333,0,0,-0.13333333,0,101.29333)" />
    <path
       id="path3"
       d="m 899.715,326.02 c 0,7.781 -6.309,14.089 -14.09,14.089 -7.781,0 -14.09,-6.308 -14.09,-14.089 0,-7.782 6.309,-14.09 14.09,-14.09 7.781,0 14.09,6.308 14.09,14.09 z"
       style="fill:#ffffff;fill-opacity:1;fill-rule:nonzero;stroke:#000000;stroke-width:3.985;stroke-linecap:butt;stroke-linejoin:miter;stroke-miterlimit:10;stroke-dasharray:none;stroke-opacity:1"
       transform="matrix(0.13333333,0,0,-0.13333333,0,101.29333)" />
    <path
       id="path4"
       d="m 132.34,526.461 c 0,7.785 -6.309,14.09 -14.094,14.09 -7.781,0 -14.09,-6.305 -14.09,-14.09 0,-7.781 6.309,-14.09 14.09,-14.09 7.785,0 14.094,6.309 14.094,14.09 z"
       style="fill:#000000;fill-opacity:1;fill-rule:nonzero;stroke:#000000;stroke-width:3.985;stroke-linecap:butt;stroke-linejoin:miter;stroke-miterlimit:10;stroke-dasharray:none;stroke-opacity:1"
       transform="matrix(0.13333333,0,0,-0.13333333,0,101.29333)" />
    <path
       id="path5"
       d="m 132.34,125.578 c 0,7.781 -6.309,14.09 -14.094,14.09 -7.781,0 -14.09,-6.309 -14.09,-14.09 0,-7.781 6.309,-14.09 14.09,-14.09 7.785,0 14.094,6.309 14.094,14.09 z"
       style="fill:#000000;fill-opacity:1;fill-rule:nonzero;stroke:#000000;stroke-width:3.985;stroke-linecap:butt;stroke-linejoin:miter;stroke-miterlimit:10;stroke-dasharray:none;stroke-opacity:1"
       transform="matrix(0.13333333,0,0,-0.13333333,0,101.29333)" />
    <path
       id="path6"
       d="m 1100.16,125.578 c 0,7.781 -6.31,14.09 -14.09,14.09 -7.78,0 -14.09,-6.309 -14.09,-14.09 0,-7.781 6.31,-14.09 14.09,-14.09 7.78,0 14.09,6.309 14.09,14.09 z"
       style="fill:#000000;fill-opacity:1;fill-rule:nonzero;stroke:#000000;stroke-width:3.985;stroke-linecap:butt;stroke-linejoin:miter;stroke-miterlimit:10;stroke-dasharray:none;stroke-opacity:1"
       transform="matrix(0.13333333,0,0,-0.13333333,0,101.29333)" />
    <path
       id="path7"
       d="m 1100.16,526.461 c 0,7.785 -6.31,14.09 -14.09,14.09 -7.78,0 -14.09,-6.305 -14.09,-14.09 0,-7.781 6.31,-14.09 14.09,-14.09 7.78,0 14.09,6.309 14.09,14.09 z"
       style="fill:#000000;fill-opacity:1;fill-rule:nonzero;stroke:#000000;stroke-width:3.985;stroke-linecap:butt;stroke-linejoin:miter;stroke-miterlimit:10;stroke-dasharray:none;stroke-opacity:1"
       transform="matrix(0.13333333,0,0,-0.13333333,0,101.29333)" />
    <path
       id="path8"
       d="m 616.25,609.488 c 0,7.782 -6.309,14.09 -14.094,14.09 -7.781,0 -14.09,-6.308 -14.09,-14.09 0,-7.781 6.309,-14.09 14.09,-14.09 7.785,0 14.094,6.309 14.094,14.09 z"
       style="fill:#000000;fill-opacity:1;fill-rule:nonzero;stroke:#000000;stroke-width:3.985;stroke-linecap:butt;stroke-linejoin:miter;stroke-miterlimit:10;stroke-dasharray:none;stroke-opacity:1"
       transform="matrix(0.13333333,0,0,-0.13333333,0,101.29333)" />
    <path
       id="path9"
       d="m 334.773,326.02 h 251.301 m 32.168,0 h 251.301"
       style="fill:none;stroke:#000000;stroke-width:3.985;stroke-linecap:butt;stroke-linejoin:miter;stroke-miterlimit:10;stroke-dasharray:none;stroke-opacity:1"
       transform="matrix(0.13333333,0,0,-0.13333333,0,101.29333)" />
    <g
       id="g9"
       aria-label="M&#10;6&#10;M&#10;7"
       transform="matrix(1.3333333,0,0,1.3333333,53.200533,69.7788)">
      <path
         id="path10"
         d="m 7.7333891,-4.7940609 c 0.082031,-0.3164063 0.09375,-0.3867188 0.65625,-0.3867188 0.1875,0 0.28125,0 0.28125,-0.1523437 0,-0.1054688 -0.1054688,-0.1054688 -0.2460938,-0.1054688 h -1.03125 c -0.2109375,0 -0.234375,0 -0.3398437,0.1523438 L 4.0419828,-0.73937344 3.3388578,-5.2276547 c -0.035156,-0.1992187 -0.035156,-0.2109375 -0.28125,-0.2109375 h -1.078125 c -0.140625,0 -0.2460937,0 -0.2460937,0.140625 0,0.1171875 0.1054687,0.1171875 0.234375,0.1171875 0.2578125,0 0.4921875,0 0.4921875,0.1289063 0,0.035156 -0.011719,0.035156 -0.035156,0.140625 l -1.0078125,4.05468746 c -0.09375,0.3984375 -0.3046875,0.57421875 -0.83203124,0.59765625 -0.046875,0 -0.15234375,0 -0.15234375,0.140625 0,0.05859375 0.046875,0.1171875 0.12890625,0.1171875 0.0234375,0 0.2109375,-0.0234375 0.78515624,-0.0234375 0.6328125,0 0.75,0.0234375 0.8203125,0.0234375 0.035156,0 0.1523438,0 0.1523438,-0.15234375 0,-0.09375 -0.09375,-0.10546875 -0.140625,-0.10546875 -0.2929688,-0.0117188 -0.5273438,-0.0585938 -0.5273438,-0.33984375 0,-0.0351563 0.023437,-0.15234375 0.023437,-0.1640625 l 1.078125,-4.32421876 h 0.011719 l 0.7734375,4.87500001 c 0.023437,0.12890625 0.035156,0.2109375 0.140625,0.2109375 0.1171875,0 0.1640625,-0.08203125 0.2226562,-0.1640625 L 7.1708891,-5.1456234 h 0.011719 l -1.125,4.51171871 c -0.070312,0.3046875 -0.09375,0.375 -0.6796875,0.375 -0.1523437,0 -0.2460937,0 -0.2460937,0.140625 0,0.03515625 0.023437,0.1171875 0.1289062,0.1171875 0.1054688,0 0.3398438,-0.01171875 0.4570313,-0.0234375 h 0.5039062 c 0.7382813,0 0.9375,0.0234375 0.984375,0.0234375 0.046875,0 0.1640625,0 0.1640625,-0.15234375 0,-0.10546875 -0.1054687,-0.10546875 -0.234375,-0.10546875 -0.023437,0 -0.1757812,0 -0.3046875,-0.0234375 -0.1757812,-0.0117188 -0.1875,-0.0351563 -0.1875,-0.10546875 0,-0.046875 0.011719,-0.09375 0.023437,-0.12890625 z m 0,0"
         style="fill:#000000;fill-opacity:1;fill-rule:nonzero;stroke:none" />
      <path
         id="path11"
         d="M 9.1074125,-0.87413906 C 9.1191313,-1.1671078 9.13085,-1.6710141 9.3417875,-2.0342953 9.5996,-2.4913266 9.9980375,-2.6671078 10.3496,-2.6671078 c 0.140625,0 0.410156,0.023437 0.5625,0.1875 -0.222656,0.035156 -0.257812,0.1875 -0.257812,0.28125 0,0.1640625 0.105468,0.2929687 0.28125,0.2929687 0.175781,0 0.292968,-0.1171875 0.292968,-0.3046875 0,-0.3632812 -0.269531,-0.65625 -0.878906,-0.65625 -0.9257812,0 -1.8398437,0.8085938 -1.8398437,2.07421879 0,1.453125 0.6796875,2.02734371 1.4648437,2.02734371 0.234375,0 0.644531,-0.035156 1.007813,-0.38671871 0.1875,-0.19921875 0.421875,-0.43359375 0.421875,-0.9609375 0,-0.19921875 -0.02344,-0.5859375 -0.386719,-0.92578129 -0.210938,-0.1875 -0.46875,-0.3984375 -0.984375,-0.3984375 -0.4218752,0 -0.7265627,0.2109375 -0.9257815,0.56250004 z M 9.9746,1.0125797 c -0.84375,0 -0.84375,-1.01953126 -0.84375,-1.25390626 0,-0.515625 0.3398438,-1.00781254 0.878906,-1.00781254 0.304688,0 0.480469,0.1289063 0.632813,0.31640629 0.164062,0.234375 0.164062,0.50390625 0.164062,0.8203125 0,0.41015625 -0.01172,0.609375 -0.210937,0.85546875 C 10.44335,0.91882969 10.25585,1.0125797 9.9746,1.0125797 Z m 0,0"
         style="fill:#000000;fill-opacity:1;fill-rule:nonzero;stroke:none" />
      <path
         id="path12"
         d="m 36.081045,-4.7940609 c 0.08203,-0.3164063 0.09375,-0.3867188 0.65625,-0.3867188 0.1875,0 0.28125,0 0.28125,-0.1523437 0,-0.1054688 -0.105468,-0.1054688 -0.246093,-0.1054688 h -1.03125 c -0.210938,0 -0.234375,0 -0.339844,0.1523438 l -3.011719,4.54687496 -0.703125,-4.48828126 c -0.03516,-0.1992187 -0.03516,-0.2109375 -0.28125,-0.2109375 h -1.078125 c -0.140625,0 -0.246094,0 -0.246094,0.140625 0,0.1171875 0.105469,0.1171875 0.234375,0.1171875 0.257813,0 0.492188,0 0.492188,0.1289063 0,0.035156 -0.01172,0.035156 -0.03516,0.140625 l -1.007813,4.05468746 c -0.09375,0.3984375 -0.304687,0.57421875 -0.832031,0.59765625 -0.04687,0 -0.152344,0 -0.152344,0.140625 0,0.05859375 0.04687,0.1171875 0.128906,0.1171875 0.02344,0 0.210938,-0.0234375 0.785157,-0.0234375 0.632812,0 0.75,0.0234375 0.820312,0.0234375 0.03516,0 0.152344,0 0.152344,-0.15234375 0,-0.09375 -0.09375,-0.10546875 -0.140625,-0.10546875 -0.292969,-0.0117188 -0.527344,-0.0585938 -0.527344,-0.33984375 0,-0.0351563 0.02344,-0.15234375 0.02344,-0.1640625 l 1.078125,-4.32421876 h 0.01172 l 0.773438,4.87500001 c 0.02344,0.12890625 0.03516,0.2109375 0.140625,0.2109375 0.117187,0 0.164062,-0.08203125 0.222656,-0.1640625 l 3.269531,-4.98046871 h 0.01172 l -1.125,4.51171871 c -0.07031,0.3046875 -0.09375,0.375 -0.679687,0.375 -0.152344,0 -0.246094,0 -0.246094,0.140625 0,0.03515625 0.02344,0.1171875 0.128906,0.1171875 0.105469,0 0.339844,-0.01171875 0.457031,-0.0234375 h 0.503907 c 0.738281,0 0.9375,0.0234375 0.984375,0.0234375 0.04687,0 0.164062,0 0.164062,-0.15234375 0,-0.10546875 -0.105469,-0.10546875 -0.234375,-0.10546875 -0.02344,0 -0.175781,0 -0.304687,-0.0234375 -0.175782,-0.0117188 -0.1875,-0.0351563 -0.1875,-0.10546875 0,-0.046875 0.01172,-0.09375 0.02344,-0.12890625 z m 0,0"
         style="fill:#000000;fill-opacity:1;fill-rule:nonzero;stroke:none" />
      <path
         id="path13"
         d="m 39.892569,-2.5030453 c 0.05859,-0.058594 0.05859,-0.070312 0.05859,-0.234375 h -1.546875 c -0.246094,0 -0.386719,-0.011719 -0.621094,-0.023437 -0.292969,-0.023437 -0.363281,-0.035156 -0.386719,-0.1757813 h -0.222656 l -0.222656,1.3125 h 0.222656 c 0.02344,-0.1289062 0.08203,-0.4804687 0.164062,-0.5390625 0.05859,-0.046875 0.5625,-0.046875 0.65625,-0.046875 h 1.347657 c -0.05859,0.09375 -0.386719,0.46875 -0.527344,0.6445313 -0.585938,0.70312499 -0.984375,1.54687499 -0.984375,2.46093749 0,0.046875 0,0.33984371 0.28125,0.33984371 0.292969,0 0.292969,-0.28124996 0.292969,-0.35156246 V 0.70789219 c 0,-1.1484375 0.246093,-1.73437499 0.550781,-2.08593749 z m 0,0"
         style="fill:#000000;fill-opacity:1;fill-rule:nonzero;stroke:none" />
    </g>
    <path
       id="path14"
       d="M 602.156,342.102 V 593.406"
       style="fill:none;stroke:#000000;stroke-width:3.985;stroke-linecap:butt;stroke-linejoin:miter;stroke-miterlimit:10;stroke-dasharray:none;stroke-opacity:1"
       transform="matrix(0.13333333,0,0,-0.13333333,0,101.29333)" />
    <g
       id="g14"
       aria-label="M&#10;5&#10;5"
       transform="matrix(1.3333333,0,0,1.3333333,59.216133,38.0392)">
      <path
         id="path15"
         d="m 7.7334078,-4.7930719 c 0.082031,-0.3164062 0.09375,-0.3867187 0.65625,-0.3867187 0.1875,0 0.28125,0 0.28125,-0.1523438 0,-0.1054687 -0.1054687,-0.1054687 -0.2460937,-0.1054687 h -1.03125 c -0.2109375,0 -0.234375,0 -0.3398438,0.1523437 L 4.0420016,-0.73838437 3.3388766,-5.2266656 c -0.035156,-0.1992188 -0.035156,-0.2109375 -0.28125,-0.2109375 h -1.078125 c -0.140625,0 -0.2460938,0 -0.2460938,0.140625 0,0.1171875 0.1054688,0.1171875 0.234375,0.1171875 0.2578125,0 0.4921875,0 0.4921875,0.1289062 0,0.035156 -0.011719,0.035156 -0.035156,0.140625 l -1.0078125,4.05468753 c -0.09375,0.3984375 -0.3046875,0.57421875 -0.83203129,0.59765625 -0.046875,0 -0.15234375,0 -0.15234375,0.140625 0,0.05859375 0.046875,0.117187495 0.12890625,0.117187495 0.0234375,0 0.2109375,-0.023437495 0.78515629,-0.023437495 0.6328125,0 0.75,0.023437495 0.8203125,0.023437495 0.035156,0 0.1523437,0 0.1523437,-0.152343745 0,-0.09375 -0.09375,-0.10546875 -0.140625,-0.10546875 -0.2929687,-0.0117188 -0.5273437,-0.0585938 -0.5273437,-0.33984375 0,-0.0351563 0.023437,-0.15234375 0.023437,-0.1640625 l 1.078125,-4.32421873 h 0.011719 l 0.7734375,4.87499998 c 0.023437,0.12890625 0.035156,0.210937495 0.140625,0.210937495 0.1171875,0 0.1640625,-0.082031245 0.2226563,-0.164062495 L 7.1709078,-5.1446344 h 0.011719 l -1.125,4.51171878 c -0.070312,0.3046875 -0.09375,0.375 -0.6796875,0.375 -0.1523438,0 -0.2460938,0 -0.2460938,0.140625 0,0.03515625 0.023437,0.117187495 0.1289063,0.117187495 0.1054687,0 0.3398437,-0.011718745 0.4570312,-0.023437495 h 0.5039063 c 0.7382812,0 0.9375,0.023437495 0.984375,0.023437495 0.046875,0 0.1640625,0 0.1640625,-0.152343745 0,-0.10546875 -0.1054688,-0.10546875 -0.234375,-0.10546875 -0.023437,0 -0.1757813,0 -0.3046875,-0.0234375 -0.1757813,-0.0117188 -0.1875,-0.0351563 -0.1875,-0.10546875 0,-0.046875 0.011719,-0.09375 0.023437,-0.12890625 z m 0,0"
         style="fill:#000000;fill-opacity:1;fill-rule:nonzero;stroke:none" />
      <path
         id="path16"
         d="m 9.1543063,-2.2090875 c 0.1992187,0.058594 0.3984375,0.082031 0.609375,0.082031 0.1289062,0 0.4570317,0 0.8437497,-0.2109375 0.09375,-0.058594 0.46875,-0.3046875 0.46875,-0.4335938 0,-0.082031 -0.05859,-0.09375 -0.08203,-0.09375 -0.02344,0 -0.02344,0 -0.09375,0.023437 -0.210937,0.082031 -0.515625,0.1640625 -0.9023437,0.1640625 -0.2929688,0 -0.6210938,-0.046875 -0.890625,-0.1523437 -0.058594,-0.023437 -0.082031,-0.035156 -0.1054688,-0.035156 -0.082031,0 -0.082031,0.058594 -0.082031,0.1640625 v 1.79296875 c 0,0.09375 0,0.1640625 0.1054687,0.1640625 0.058594,0 0.070312,-0.0234375 0.1171875,-0.0703125 0.140625,-0.18749995 0.4101563,-0.38671875 0.8789063,-0.38671875 0.726562,0 0.726562,0.890625 0.726562,1.078125 0,0.234375 -0.01172,0.57421875 -0.210937,0.8203125 -0.1875,0.22265625 -0.457031,0.3164063 -0.7148438,0.3164063 -0.4101562,0 -0.8320312,-0.2226563 -0.9726562,-0.5742188 0.2929687,0 0.328125,-0.234375 0.328125,-0.3046875 0,-0.1640625 -0.1171875,-0.3046875 -0.3046875,-0.3046875 -0.058594,0 -0.3046875,0.0234375 -0.3046875,0.328125 0,0.55078125 0.515625,1.078125 1.265625,1.078125 0.820312,0 1.511719,-0.5859375 1.511719,-1.3359375 0,-0.6796875 -0.550782,-1.3007812 -1.3125,-1.3007812 -0.386719,0 -0.6914065,0.1289062 -0.8789065,0.2929687 z m 0,0"
         style="fill:#000000;fill-opacity:1;fill-rule:nonzero;stroke:none" />
      <path
         id="path17"
         d="m 17.788095,-20.806744 c 0,-1.183593 -0.820312,-2.179687 -1.898437,-2.179687 -0.480469,0 -0.902344,0.164062 -1.265625,0.503906 v -1.933594 c 0.199219,0.05859 0.527344,0.128907 0.84375,0.128907 1.230469,0 1.933594,-0.914063 1.933594,-1.042969 0,-0.05859 -0.03516,-0.105469 -0.105469,-0.105469 -0.01172,0 -0.03516,0 -0.08203,0.02344 -0.199219,0.09375 -0.679688,0.292968 -1.347657,0.292968 -0.398437,0 -0.855468,-0.07031 -1.324218,-0.28125 -0.08203,-0.02344 -0.105469,-0.02344 -0.128907,-0.02344 -0.09375,0 -0.09375,0.08203 -0.09375,0.234375 v 2.953125 c 0,0.175781 0,0.257812 0.140625,0.257812 0.07031,0 0.08203,-0.03516 0.128907,-0.09375 0.105468,-0.152343 0.480468,-0.691406 1.277343,-0.691406 0.527344,0 0.773438,0.457031 0.855469,0.632813 0.152344,0.375 0.175781,0.761718 0.175781,1.253906 0,0.351562 0,0.949219 -0.234375,1.371094 -0.246093,0.386718 -0.609375,0.644531 -1.066406,0.644531 -0.726562,0 -1.300781,-0.527344 -1.464844,-1.113281 0.02344,0.01172 0.05859,0.01172 0.164063,0.01172 0.328125,0 0.503906,-0.246093 0.503906,-0.480468 0,-0.246094 -0.175781,-0.492188 -0.503906,-0.492188 -0.140625,0 -0.480469,0.07031 -0.480469,0.527344 0,0.855469 0.679688,1.828125 1.792969,1.828125 1.160156,0 2.179687,-0.960938 2.179687,-2.226563 z m 0,0"
         style="fill:#000000;fill-opacity:1;fill-rule:nonzero;stroke:none" />
    </g>
    <path
       id="path18"
       d="M 307.316,337.391 129.621,515.09"
       style="fill:none;stroke:#000000;stroke-width:3.985;stroke-linecap:butt;stroke-linejoin:miter;stroke-miterlimit:10;stroke-dasharray:none;stroke-opacity:1"
       transform="matrix(0.13333333,0,0,-0.13333333,0,101.29333)" />
    <g
       id="g18"
       aria-label="M&#10;1&#10;1"
       transform="matrix(1.3333333,0,0,1.3333333,12.993227,52.960533)">
      <path
         id="path19"
         d="m 7.7335956,-4.7926656 c 0.082031,-0.3164063 0.09375,-0.3867188 0.65625,-0.3867188 0.1875,0 0.28125,0 0.28125,-0.1523437 0,-0.1054688 -0.1054687,-0.1054688 -0.2460937,-0.1054688 h -1.03125 c -0.2109375,0 -0.234375,0 -0.3398438,0.1523438 L 4.0421894,-0.73797812 3.3390644,-5.2262594 c -0.035156,-0.1992187 -0.035156,-0.2109375 -0.28125,-0.2109375 h -1.078125 c -0.140625,0 -0.2460938,0 -0.2460938,0.140625 0,0.1171875 0.1054688,0.1171875 0.234375,0.1171875 0.2578125,0 0.4921875,0 0.4921875,0.1289063 0,0.035156 -0.011719,0.035156 -0.035156,0.140625 l -1.0078125,4.05468748 c -0.09375,0.3984375 -0.3046875,0.57421875 -0.83203127,0.59765625 -0.046875,0 -0.15234375,0 -0.15234375,0.140625 0,0.05859375 0.046875,0.117187495 0.12890625,0.117187495 0.0234375,0 0.2109375,-0.023437495 0.78515627,-0.023437495 0.6328125,0 0.75,0.023437495 0.8203125,0.023437495 0.035156,0 0.1523437,0 0.1523437,-0.152343745 0,-0.09375 -0.09375,-0.10546875 -0.140625,-0.10546875 -0.2929687,-0.0117188 -0.5273437,-0.0585938 -0.5273437,-0.33984375 0,-0.0351563 0.023437,-0.15234375 0.023437,-0.1640625 l 1.078125,-4.32421878 h 0.011719 l 0.7734375,4.87500003 c 0.023437,0.12890625 0.035156,0.210937495 0.140625,0.210937495 0.1171875,0 0.1640625,-0.082031245 0.2226563,-0.164062495 L 7.1710956,-5.1442281 h 0.011719 l -1.125,4.51171873 c -0.070312,0.3046875 -0.09375,0.375 -0.6796875,0.375 -0.1523438,0 -0.2460938,0 -0.2460938,0.140625 0,0.03515625 0.023437,0.117187495 0.1289063,0.117187495 0.1054687,0 0.3398437,-0.011718745 0.4570312,-0.023437495 h 0.5039063 c 0.7382812,0 0.9375,0.023437495 0.984375,0.023437495 0.046875,0 0.1640625,0 0.1640625,-0.152343745 0,-0.10546875 -0.1054688,-0.10546875 -0.234375,-0.10546875 -0.023437,0 -0.1757813,0 -0.3046875,-0.0234375 -0.1757813,-0.0117188 -0.1875,-0.0351563 -0.1875,-0.10546875 0,-0.046875 0.011719,-0.09375 0.023437,-0.12890625 z m 0,0"
         style="fill:#000000;fill-opacity:1;fill-rule:nonzero;stroke:none" />
      <path
         id="path20"
         d="m 10.279494,-2.68915 c 0,-0.1757812 -0.02344,-0.1757812 -0.199219,-0.1757812 -0.3984372,0.375 -1.0078122,0.375 -1.2187497,0.375 v 0.234375 c 0.1523438,0 0.5507813,0 0.9023438,-0.1640625 v 3.02343745 c 0,0.1875 0,0.26953125 -0.609375,0.26953125 H 8.8966816 v 0.234375 c 0.328125,-0.023437 0.796875,-0.023437 1.1250004,-0.023437 0.339843,0 0.796875,0 1.136718,0.023437 V 0.87335 h -0.257812 c -0.621094,0 -0.621094,-0.0820313 -0.621094,-0.26953125 z m 0,0"
         style="fill:#000000;fill-opacity:1;fill-rule:nonzero;stroke:none" />
      <path
         id="path21"
         d="m -3.4929669,-25.575869 c 0,-0.234375 0,-0.257812 -0.234375,-0.257812 -0.609375,0.632812 -1.4882812,0.632812 -1.8046875,0.632812 v 0.316407 c 0.1992188,0 0.7851563,0 1.3007813,-0.257813 v 5.15625 c 0,0.351563 -0.035156,0.480469 -0.9257813,0.480469 h -0.3164062 v 0.304687 c 0.3515625,-0.03516 1.2070312,-0.03516 1.6054687,-0.03516 0.3984375,0 1.265625,0 1.6171875,0.03516 v -0.304687 h -0.3164062 c -0.9023438,0 -0.9257813,-0.117188 -0.9257813,-0.480469 z m 0,0"
         style="fill:#000000;fill-opacity:1;fill-rule:nonzero;stroke:none" />
    </g>
    <path
       id="path22"
       d="M 307.316,314.648 129.621,136.949"
       style="fill:none;stroke:#000000;stroke-width:3.985;stroke-linecap:butt;stroke-linejoin:miter;stroke-miterlimit:10;stroke-dasharray:none;stroke-opacity:1"
       transform="matrix(0.13333333,0,0,-0.13333333,0,101.29333)" />
    <g
       id="g22"
       aria-label="M&#10;2&#10;2"
       transform="matrix(1.3333333,0,0,1.3333333,26.5464,82.026667)">
      <path
         id="path23"
         d="m 7.7347313,-4.7924609 c 0.082031,-0.3164063 0.09375,-0.3867188 0.65625,-0.3867188 0.1875,0 0.28125,0 0.28125,-0.1523437 0,-0.1054688 -0.1054688,-0.1054688 -0.2460938,-0.1054688 h -1.03125 c -0.2109375,0 -0.234375,0 -0.3398437,0.1523438 L 4.043325,-0.73777344 3.3402,-5.2260547 C 3.3050438,-5.4252734 3.3050438,-5.4369922 3.05895,-5.4369922 H 1.980825 c -0.140625,0 -0.2460937,0 -0.2460937,0.140625 0,0.1171875 0.1054687,0.1171875 0.234375,0.1171875 0.2578125,0 0.4921875,0 0.4921875,0.1289063 0,0.035156 -0.011719,0.035156 -0.035156,0.140625 L 1.418325,-0.85496094 c -0.09375,0.3984375 -0.3046875,0.57421875 -0.83203125,0.59765625 -0.046875,0 -0.15234375,0 -0.15234375,0.140625 0,0.05859375 0.046875,0.1171875025 0.12890625,0.1171875025 0.0234375,0 0.2109375,-0.0234375025 0.78515625,-0.0234375025 0.6328125,0 0.75,0.0234375025 0.8203125,0.0234375025 0.035156,0 0.1523438,0 0.1523438,-0.1523437525 0,-0.09375 -0.09375,-0.10546875 -0.140625,-0.10546875 C 1.887075,-0.26902344 1.6527,-0.31589844 1.6527,-0.59714844 c 0,-0.0351563 0.023437,-0.15234375 0.023437,-0.1640625 L 2.754262,-5.0854297 h 0.011719 l 0.7734375,4.87500001 c 0.023437,0.12890625 0.035156,0.2109375025 0.140625,0.2109375025 0.1171875,0 0.1640625,-0.0820312525 0.2226562,-0.1640625025 L 7.1722313,-5.1440234 H 7.18395 l -1.125,4.51171871 c -0.070312,0.3046875 -0.09375,0.375 -0.6796875,0.375 -0.1523437,0 -0.2460937,0 -0.2460937,0.140625 0,0.03515625 0.023437,0.1171875025 0.1289062,0.1171875025 0.1054688,0 0.3398438,-0.0117187525 0.4570313,-0.0234375025 h 0.5039062 c 0.7382813,0 0.9375,0.0234375025 0.984375,0.0234375025 0.046875,0 0.1640625,0 0.1640625,-0.1523437525 0,-0.10546875 -0.1054687,-0.10546875 -0.234375,-0.10546875 -0.023437,0 -0.1757812,0 -0.3046875,-0.0234375 -0.1757812,-0.0117188 -0.1875,-0.0351563 -0.1875,-0.10546875 0,-0.046875 0.011719,-0.09375 0.023437,-0.12890625 z m 0,0"
         style="fill:#000000;fill-opacity:1;fill-rule:nonzero;stroke:none" />
      <path
         id="path24"
         d="m 11.347036,-0.00535156 h -0.210938 c -0.02344,0.08203125 -0.08203,0.46875 -0.164062,0.5390625 -0.04687,0.0351563 -0.527344,0.0351563 -0.609375,0.0351563 H 9.2376609 l 0.7734371,-0.62109375 c 0.199219,-0.1640625 0.726563,-0.5390625 0.914063,-0.7265625 0.175781,-0.17578125 0.421875,-0.48046869 0.421875,-0.90234369 0,-0.75 -0.667969,-1.1835939 -1.4765626,-1.1835939 -0.7617187,0 -1.3007812,0.5039064 -1.3007812,1.0664064 0,0.3046875 0.2578125,0.3398437 0.3164062,0.3398437 0.1523438,0 0.328125,-0.1054687 0.328125,-0.3164062 0,-0.140625 -0.082031,-0.328125 -0.3398437,-0.328125 0.1289062,-0.3046875 0.5039062,-0.5273439 0.9140625,-0.5273439 0.6210938,0 0.9609378,0.46875 0.9609378,0.9492189 0,0.421875 -0.28125,0.85546869 -0.703125,1.24218744 l -1.4179691,1.3007812 c -0.058594,0.0585938 -0.058594,0.0585938 -0.058594,0.24609376 h 2.6015631 z m 0,0"
         style="fill:#000000;fill-opacity:1;fill-rule:nonzero;stroke:none" />
      <path
         id="path25"
         d="m -15.321909,10.354023 1.054687,-1.0312496 c 1.558594,-1.3710937 2.15625,-1.9101562 2.15625,-2.90625 0,-1.1367187 -0.902344,-1.9335937 -2.121094,-1.9335937 -1.125,0 -1.851562,0.9140625 -1.851562,1.8046875 0,0.5507812 0.492187,0.5507812 0.527344,0.5507812 0.164062,0 0.515625,-0.1171875 0.515625,-0.5273437 0,-0.2578125 -0.1875,-0.515625 -0.527344,-0.515625 -0.08203,0 -0.105469,0 -0.128906,0.011719 0.222656,-0.6445312 0.761718,-1.0195312 1.335937,-1.0195312 0.914063,0 1.335938,0.8085937 1.335938,1.6289062 0,0.796875 -0.492188,1.5820313 -1.042969,2.203125 l -1.910156,2.1328123 c -0.105469,0.105469 -0.105469,0.128906 -0.105469,0.363281 h 3.691406 l 0.28125,-1.7343745 h -0.257812 c -0.04687,0.3046875 -0.117188,0.7382805 -0.210938,0.8906245 -0.07031,0.08203 -0.726562,0.08203 -0.949219,0.08203 z m 0,0"
         style="fill:#000000;fill-opacity:1;fill-rule:nonzero;stroke:none" />
    </g>
    <path
       id="path26"
       d="M 897,314.648 1074.7,136.949"
       style="fill:none;stroke:#000000;stroke-width:3.985;stroke-linecap:butt;stroke-linejoin:miter;stroke-miterlimit:10;stroke-dasharray:none;stroke-opacity:1"
       transform="matrix(0.13333333,0,0,-0.13333333,0,101.29333)" />
    <g
       id="g26"
       aria-label="M&#10;3&#10;3"
       transform="matrix(1.3333333,0,0,1.3333333,131.2036,68.473067)">
      <path
         id="path27"
         d="m 7.7340188,-4.7932766 c 0.082031,-0.3164062 0.09375,-0.3867187 0.65625,-0.3867187 0.1875,0 0.28125,0 0.28125,-0.1523438 0,-0.1054687 -0.1054688,-0.1054687 -0.2460938,-0.1054687 h -1.03125 c -0.2109375,0 -0.234375,0 -0.3398437,0.1523437 L 4.0426125,-0.73858906 3.3394875,-5.2268703 c -0.035156,-0.1992188 -0.035156,-0.2109375 -0.28125,-0.2109375 h -1.078125 c -0.140625,0 -0.2460937,0 -0.2460937,0.140625 0,0.1171875 0.1054687,0.1171875 0.234375,0.1171875 0.2578125,0 0.4921875,0 0.4921875,0.1289062 0,0.035156 -0.011719,0.035156 -0.035156,0.140625 l -1.0078125,4.05468754 c -0.09375,0.3984375 -0.3046875,0.57421875 -0.83203125,0.59765625 -0.046875,0 -0.15234375,0 -0.15234375,0.140625 0,0.05859375 0.046875,0.1171874975 0.12890625,0.1171874975 0.0234375,0 0.2109375,-0.0234374975 0.78515625,-0.0234374975 0.6328125,0 0.75,0.0234374975 0.8203125,0.0234374975 0.035156,0 0.1523438,0 0.1523438,-0.1523437475 0,-0.09375 -0.09375,-0.10546875 -0.140625,-0.10546875 -0.2929688,-0.0117188 -0.5273438,-0.0585938 -0.5273438,-0.33984375 0,-0.0351563 0.023437,-0.15234375 0.023437,-0.1640625 L 2.75355,-5.0862453 h 0.011719 l 0.7734375,4.87499999 c 0.023437,0.12890625 0.035156,0.2109374975 0.140625,0.2109374975 0.1171875,0 0.1640625,-0.0820312475 0.2226562,-0.1640624975 L 7.1715188,-5.1448391 h 0.011719 l -1.125,4.51171879 c -0.070312,0.3046875 -0.09375,0.375 -0.6796875,0.375 -0.1523437,0 -0.2460937,0 -0.2460937,0.140625 0,0.03515625 0.023437,0.1171874975 0.1289062,0.1171874975 0.1054688,0 0.3398438,-0.0117187475 0.4570313,-0.0234374975 H 6.2223 c 0.7382813,0 0.9375,0.0234374975 0.984375,0.0234374975 0.046875,0 0.1640625,0 0.1640625,-0.1523437475 0,-0.10546875 -0.1054687,-0.10546875 -0.234375,-0.10546875 -0.023437,0 -0.1757812,0 -0.3046875,-0.0234375 -0.1757812,-0.0117188 -0.1875,-0.0351563 -0.1875,-0.10546875 0,-0.046875 0.011719,-0.09375 0.023437,-0.12890625 z m 0,0"
         style="fill:#000000;fill-opacity:1;fill-rule:nonzero;stroke:none" />
      <path
         id="path28"
         d="m 9.8931984,-0.87335469 c 0.5039066,0 0.8437496,0.33984375 0.8437496,0.94921875 0,0.65625 -0.386718,0.93750004 -0.8320308,0.93750004 -0.1523438,0 -0.7734375,-0.0351563 -1.0429688,-0.37500004 0.234375,-0.0234375 0.328125,-0.1875 0.328125,-0.33984375 0,-0.2109375 -0.140625,-0.33984375 -0.3398437,-0.33984375 -0.1640625,0 -0.3398438,0.09375 -0.3398438,0.3515625 0,0.5859375 0.65625,0.92578124 1.4179688,0.92578124 0.8789063,0 1.4765623,-0.57421874 1.4765623,-1.16015624 0,-0.43359375 -0.339844,-0.90234375 -1.042969,-1.07812496 0.46875,-0.1523438 0.855469,-0.5390625 0.855469,-1.03125 0,-0.4804688 -0.5625,-0.8320313 -1.2773436,-0.8320313 -0.703125,0 -1.2421875,0.3164063 -1.2421875,0.8085938 0,0.2578125 0.1992188,0.328125 0.3164063,0.328125 0.1640625,0 0.328125,-0.1054688 0.328125,-0.3164063 0,-0.1875 -0.140625,-0.2929687 -0.2929688,-0.3164062 0.2695313,-0.3046875 0.8203125,-0.3046875 0.8671875,-0.3046875 0.3046871,0 0.6914061,0.140625 0.6914061,0.6328125 0,0.328125 -0.1875,0.9023437 -0.7851561,0.9375 -0.1054687,0.011719 -0.2695312,0.023437 -0.3164062,0.023437 -0.058594,0 -0.1289063,0.011719 -0.1289063,0.10546871 0,0.09375 0.070312,0.09375 0.1640625,0.09375 z m 0,0"
         style="fill:#000000;fill-opacity:1;fill-rule:nonzero;stroke:none" />
      <path
         id="path29"
         d="m 16.619761,17.777036 c 0.808594,-0.269531 1.394531,-0.972656 1.394531,-1.757813 0,-0.820312 -0.878906,-1.371093 -1.839844,-1.371093 -1.007812,0 -1.757812,0.597656 -1.757812,1.347656 0,0.339844 0.210937,0.527344 0.503906,0.527344 0.304688,0 0.503906,-0.222657 0.503906,-0.515625 0,-0.492188 -0.46875,-0.492188 -0.609375,-0.492188 0.304688,-0.492187 0.960938,-0.621094 1.324219,-0.621094 0.410156,0 0.949219,0.222657 0.949219,1.113282 0,0.128906 -0.01172,0.703125 -0.269531,1.136718 -0.304688,0.480469 -0.644532,0.515625 -0.890625,0.515625 -0.08203,0.01172 -0.316407,0.03516 -0.386719,0.03516 -0.08203,0.01172 -0.152344,0.02344 -0.152344,0.117187 0,0.117188 0.07031,0.117188 0.234375,0.117188 h 0.445313 c 0.808593,0 1.183593,0.667968 1.183593,1.652343 0,1.347657 -0.691406,1.640625 -1.125,1.640625 -0.433593,0 -1.171875,-0.175781 -1.523437,-0.761718 0.351562,0.05859 0.65625,-0.164063 0.65625,-0.539063 0,-0.363281 -0.269531,-0.5625 -0.5625,-0.5625 -0.234375,0 -0.550781,0.140625 -0.550781,0.574219 0,0.914062 0.925781,1.570312 2.003906,1.570312 1.21875,0 2.121094,-0.914062 2.121094,-1.921875 0,-0.820312 -0.621094,-1.59375 -1.652344,-1.804687 z m 0,0"
         style="fill:#000000;fill-opacity:1;fill-rule:nonzero;stroke:none" />
    </g>
    <path
       id="path30"
       d="M 897,337.391 1074.7,515.09"
       style="fill:none;stroke:#000000;stroke-width:3.985;stroke-linecap:butt;stroke-linejoin:miter;stroke-miterlimit:10;stroke-dasharray:none;stroke-opacity:1"
       transform="matrix(0.13333333,0,0,-0.13333333,0,101.29333)" />
    <g
       id="g30"
       aria-label="M&#10;4&#10;4"
       transform="matrix(1.3333333,0,0,1.3333333,117.65053,39.407333)">
      <path
         id="path31"
         d="m 7.7357328,-4.7937812 c 0.082031,-0.3164063 0.09375,-0.3867188 0.65625,-0.3867188 0.1875,0 0.28125,0 0.28125,-0.1523437 0,-0.1054688 -0.1054687,-0.1054688 -0.2460937,-0.1054688 h -1.03125 c -0.2109375,0 -0.234375,0 -0.3398438,0.1523438 L 4.0443266,-0.73909375 3.3412016,-5.227375 c -0.035156,-0.1992187 -0.035156,-0.2109375 -0.28125,-0.2109375 h -1.078125 c -0.140625,0 -0.2460938,0 -0.2460938,0.140625 0,0.1171875 0.1054688,0.1171875 0.234375,0.1171875 0.2578125,0 0.4921875,0 0.4921875,0.1289063 0,0.035156 -0.011719,0.035156 -0.035156,0.140625 l -1.0078125,4.05468745 c -0.09375,0.3984375 -0.3046875,0.57421875 -0.83203129,0.59765625 -0.046875,0 -0.15234375,0 -0.15234375,0.140625 0,0.05859375 0.046875,0.1171875 0.12890625,0.1171875 0.0234375,0 0.2109375,-0.0234375 0.78515629,-0.0234375 0.6328125,0 0.75,0.0234375 0.8203125,0.0234375 0.035156,0 0.1523437,0 0.1523437,-0.15234375 0,-0.09375 -0.09375,-0.10546875 -0.140625,-0.10546875 -0.2929687,-0.0117188 -0.5273437,-0.0585938 -0.5273437,-0.33984375 0,-0.0351563 0.023437,-0.15234375 0.023437,-0.1640625 L 2.7552641,-5.08675 h 0.011719 l 0.7734375,4.875 c 0.023437,0.12890625 0.035156,0.2109375 0.140625,0.2109375 0.1171875,0 0.1640625,-0.08203125 0.2226563,-0.1640625 l 3.2695312,-4.9804687 h 0.011719 l -1.125,4.5117187 c -0.070312,0.3046875 -0.09375,0.375 -0.6796875,0.375 -0.1523438,0 -0.2460938,0 -0.2460938,0.140625 0,0.03515625 0.023437,0.1171875 0.1289063,0.1171875 0.1054687,0 0.3398437,-0.01171875 0.4570312,-0.0234375 h 0.5039063 c 0.7382812,0 0.9375,0.0234375 0.984375,0.0234375 0.046875,0 0.1640625,0 0.1640625,-0.15234375 0,-0.10546875 -0.1054688,-0.10546875 -0.234375,-0.10546875 -0.023437,0 -0.1757813,0 -0.3046875,-0.0234375 -0.1757813,-0.0117188 -0.1875,-0.0351563 -0.1875,-0.10546875 0,-0.046875 0.011719,-0.09375 0.023437,-0.12890625 z m 0,0"
         style="fill:#000000;fill-opacity:1;fill-rule:nonzero;stroke:none" />
      <path
         id="path32"
         d="m 11.5121,0.12223438 v -0.234375 H 10.808975 V -2.7488594 c 0,-0.140625 0,-0.1757812 -0.152344,-0.1757812 -0.105469,0 -0.117187,0.011719 -0.175781,0.082031 l -2.0742188,2.73046878 v 0.234375 h 1.8632808 v 0.48046875 c 0,0.19921875 0,0.26953125 -0.5039058,0.26953125 H 9.590225 V 1.1066094 c 0.1289062,-0.011719 0.691406,-0.023437 0.949219,-0.023437 0.257812,0 0.820312,0.011719 0.949218,0.023437 V 0.87223438 h -0.175781 c -0.503906,0 -0.503906,-0.0703125 -0.503906,-0.26953125 V 0.12223438 Z M 10.316787,-2.2801094 v 2.16796878 H 8.6644437 Z m 0,0"
         style="fill:#000000;fill-opacity:1;fill-rule:nonzero;stroke:none" />
      <path
         id="path33"
         d="m 26.819717,-10.676594 v 0.8671878 c 0,0.3515625 -0.02344,0.46875 -0.761719,0.46875 h -0.210937 v 0.3046875 c 0.410156,-0.035156 0.9375,-0.035156 1.347656,-0.035156 0.421875,0 0.949219,0 1.359375,0.035156 v -0.3046875 h -0.210937 c -0.738282,0 -0.761719,-0.1171875 -0.761719,-0.46875 V -10.676594 H 28.57753 V -10.993 h -0.996094 v -4.523437 c 0,-0.199219 0,-0.257813 -0.152344,-0.257813 -0.09375,0 -0.117187,0 -0.199219,0.117188 L 24.17128,-10.993 v 0.316406 z M 26.878311,-10.993 H 24.45253 l 2.425781,-3.714844 z m 0,0"
         style="fill:#000000;fill-opacity:1;fill-rule:nonzero;stroke:none" />
    </g>
  </g>
</svg>
