<?xml version="1.0" encoding="UTF-8" standalone="no"?>
<!-- Created with Inkscape (http://www.inkscape.org/) -->

<svg
   version="1.1"
   id="svg1"
   width="89.199997"
   height="102.52"
   viewBox="0 0 89.199997 102.52"
   sodipodi:docname="imagelabelled_3-0-0.pdf"
   xmlns:inkscape="http://www.inkscape.org/namespaces/inkscape"
   xmlns:sodipodi="http://sodipodi.sourceforge.net/DTD/sodipodi-0.dtd"
   xmlns="http://www.w3.org/2000/svg"
   xmlns:svg="http://www.w3.org/2000/svg">
  <defs
     id="defs1" />
  <sodipodi:namedview
     id="namedview1"
     pagecolor="#ffffff"
     bordercolor="#000000"
     borderopacity="0.25"
     inkscape:showpageshadow="2"
     inkscape:pageopacity="0.0"
     inkscape:pagecheckerboard="0"
     inkscape:deskcolor="#d1d1d1">
    <inkscape:page
       x="0"
       y="0"
       inkscape:label="1"
       id="page1"
       width="89.199997"
       height="102.52"
       margin="0"
       bleed="0" />
  </sodipodi:namedview>
  <g
     id="g1"
     inkscape:groupmode="layer"
     inkscape:label="1">
    <path
       id="path1"
       d="m 440.691,384.52 c 0,7.781 -6.308,14.089 -14.089,14.089 -7.786,0 -14.094,-6.308 -14.094,-14.089 0,-7.782 6.308,-14.09 14.094,-14.09 7.781,0 14.089,6.308 14.089,14.09 z"
       style="fill:#ffffff;fill-opacity:1;fill-rule:nonzero;stroke:#000000;stroke-width:3.985;stroke-linecap:butt;stroke-linejoin:miter;stroke-miterlimit:10;stroke-dasharray:none;stroke-opacity:1"
       transform="matrix(0.13333333,0,0,-0.13333333,0,102.52)" />
    <path
       id="path2"
       d="m 157.223,384.52 c 0,7.781 -6.309,14.089 -14.09,14.089 -7.781,0 -14.09,-6.308 -14.09,-14.089 0,-7.782 6.309,-14.09 14.09,-14.09 7.781,0 14.09,6.308 14.09,14.09 z"
       style="fill:#000000;fill-opacity:1;fill-rule:nonzero;stroke:#000000;stroke-width:3.985;stroke-linecap:butt;stroke-linejoin:miter;stroke-miterlimit:10;stroke-dasharray:none;stroke-opacity:1"
       transform="matrix(0.13333333,0,0,-0.13333333,0,102.52)" />
    <g
       id="g2"
       aria-label="M&#10;1&#10;1"
       transform="matrix(1.3333333,0,0,1.3333333,28.138,44.5596)">
      <path
         id="path3"
         d="m 7.7334141,-4.7937234 c 0.082031,-0.3164063 0.09375,-0.3867188 0.65625,-0.3867188 0.1875,0 0.28125,0 0.28125,-0.1523437 0,-0.1054688 -0.1054688,-0.1054688 -0.2460938,-0.1054688 h -1.03125 c -0.2109375,0 -0.234375,0 -0.3398437,0.1523438 L 4.0420078,-0.73903594 3.3388828,-5.2273172 c -0.035156,-0.1992187 -0.035156,-0.2109375 -0.28125,-0.2109375 h -1.078125 c -0.140625,0 -0.2460937,0 -0.2460937,0.140625 0,0.1171875 0.1054687,0.1171875 0.234375,0.1171875 0.2578125,0 0.4921875,0 0.4921875,0.1289063 0,0.035156 -0.011719,0.035156 -0.035156,0.140625 l -1.0078125,4.05468746 c -0.09375,0.3984375 -0.3046875,0.57421875 -0.83203124,0.59765625 -0.046875,0 -0.15234375,0 -0.15234375,0.140625 0,0.05859375 0.046875,0.1171875025 0.12890625,0.1171875025 0.0234375,0 0.2109375,-0.0234375025 0.78515624,-0.0234375025 0.6328125,0 0.75,0.0234375025 0.8203125,0.0234375025 0.035156,0 0.1523438,0 0.1523438,-0.1523437525 0,-0.09375 -0.09375,-0.10546875 -0.140625,-0.10546875 -0.2929688,-0.0117188 -0.5273438,-0.0585938 -0.5273438,-0.33984375 0,-0.0351563 0.023437,-0.15234375 0.023437,-0.1640625 l 1.078125,-4.32421876 h 0.011719 l 0.7734375,4.87500001 c 0.023437,0.12890625 0.035156,0.2109375025 0.140625,0.2109375025 0.1171875,0 0.1640625,-0.0820312525 0.2226562,-0.1640625025 L 7.1709141,-5.1452859 h 0.011719 l -1.125,4.51171871 c -0.070312,0.3046875 -0.09375,0.375 -0.6796875,0.375 -0.1523437,0 -0.2460937,0 -0.2460937,0.140625 0,0.03515625 0.023437,0.1171875025 0.1289062,0.1171875025 0.1054688,0 0.3398438,-0.0117187525 0.4570313,-0.0234375025 h 0.5039062 c 0.7382813,0 0.9375,0.0234375025 0.984375,0.0234375025 0.046875,0 0.1640625,0 0.1640625,-0.1523437525 0,-0.10546875 -0.1054687,-0.10546875 -0.234375,-0.10546875 -0.023437,0 -0.1757812,0 -0.3046875,-0.0234375 -0.1757812,-0.0117188 -0.1875,-0.0351563 -0.1875,-0.10546875 0,-0.046875 0.011719,-0.09375 0.023437,-0.12890625 z m 0,0"
         style="fill:#000000;fill-opacity:1;fill-rule:nonzero;stroke:none" />
      <path
         id="path4"
         d="m 10.282242,-2.6902078 c 0,-0.1757813 -0.02344,-0.1757813 -0.199219,-0.1757813 -0.3984371,0.375 -1.0078121,0.375 -1.2187496,0.375 v 0.234375 c 0.1523438,0 0.5507813,0 0.9023438,-0.1640625 v 3.02343754 c 0,0.1875 0,0.26953125 -0.609375,0.26953125 H 8.8994297 V 1.1066672 c 0.328125,-0.023437 0.796875,-0.023437 1.1250003,-0.023437 0.339843,0 0.796875,0 1.136718,0.023437 V 0.87229219 h -0.257812 c -0.621094,0 -0.621094,-0.0820313 -0.621094,-0.26953125 z m 0,0"
         style="fill:#000000;fill-opacity:1;fill-rule:nonzero;stroke:none" />
      <path
         id="path5"
         d="m -14.854477,1.8537375 c 0,-0.234375 0,-0.2578125 -0.234375,-0.2578125 -0.609375,0.6328125 -1.488281,0.6328125 -1.804687,0.6328125 v 0.3164063 c 0.199219,0 0.785156,0 1.300781,-0.2578125 v 5.15625 c 0,0.3515625 -0.03516,0.4804687 -0.925781,0.4804687 h -0.316406 v 0.3046875 c 0.351562,-0.035156 1.207031,-0.035156 1.605468,-0.035156 0.398438,0 1.265625,0 1.617188,0.035156 V 7.92405 h -0.316406 c -0.902344,0 -0.925782,-0.1171875 -0.925782,-0.4804687 z m 0,0"
         style="fill:#000000;fill-opacity:1;fill-rule:nonzero;stroke:none" />
    </g>
    <path
       id="path6"
       d="M 410.516,384.52 H 159.215"
       style="fill:none;stroke:#000000;stroke-width:3.985;stroke-linecap:butt;stroke-linejoin:miter;stroke-miterlimit:10;stroke-dasharray:none;stroke-opacity:1"
       transform="matrix(0.13333333,0,0,-0.13333333,0,102.52)" />
    <path
       id="path7"
       d="m 582.426,139.027 c 0,7.786 -6.309,14.094 -14.094,14.094 -7.781,0 -14.09,-6.308 -14.09,-14.094 0,-7.781 6.309,-14.089 14.09,-14.089 7.785,0 14.094,6.308 14.094,14.089 z"
       style="fill:#000000;fill-opacity:1;fill-rule:nonzero;stroke:#000000;stroke-width:3.985;stroke-linecap:butt;stroke-linejoin:miter;stroke-miterlimit:10;stroke-dasharray:none;stroke-opacity:1"
       transform="matrix(0.13333333,0,0,-0.13333333,0,102.52)" />
    <g
       id="g7"
       aria-label="M&#10;2&#10;2"
       transform="matrix(1.3333333,0,0,1.3333333,50.6672,76.734)">
      <path
         id="path8"
         d="m 7.7349516,-4.7926875 c 0.082031,-0.3164062 0.09375,-0.3867187 0.65625,-0.3867187 0.1875,0 0.28125,0 0.28125,-0.1523438 0,-0.1054687 -0.1054688,-0.1054687 -0.2460938,-0.1054687 h -1.03125 c -0.2109375,0 -0.234375,0 -0.3398437,0.1523437 L 4.0435453,-0.738 3.3404203,-5.2262812 C 3.3052641,-5.4255 3.3052641,-5.4372187 3.0591703,-5.4372187 h -1.078125 c -0.140625,0 -0.2460937,0 -0.2460937,0.140625 0,0.1171875 0.1054687,0.1171875 0.234375,0.1171875 0.2578125,0 0.4921875,0 0.4921875,0.1289062 0,0.035156 -0.011719,0.035156 -0.035156,0.140625 l -1.0078125,4.0546875 c -0.09375,0.3984375 -0.3046875,0.57421875 -0.83203124,0.59765625 -0.046875,0 -0.15234375,0 -0.15234375,0.140625 0,0.05859375 0.046875,0.1171875 0.12890625,0.1171875 0.0234375,0 0.2109375,-0.0234375 0.78515624,-0.0234375 0.6328125,0 0.75,0.0234375 0.8203125,0.0234375 0.035156,0 0.1523438,0 0.1523438,-0.15234375 0,-0.09375 -0.09375,-0.10546875 -0.140625,-0.10546875 C 1.8872953,-0.26925 1.6529203,-0.316125 1.6529203,-0.597375 c 0,-0.0351563 0.023437,-0.15234375 0.023437,-0.1640625 l 1.078125,-4.3242187 h 0.011719 l 0.7734375,4.87499995 c 0.023437,0.12890625 0.035156,0.2109375 0.140625,0.2109375 0.1171875,0 0.1640625,-0.08203125 0.2226562,-0.1640625 L 7.1724516,-5.14425 h 0.011719 l -1.125,4.51171875 c -0.070312,0.3046875 -0.09375,0.375 -0.6796875,0.375 -0.1523437,0 -0.2460937,0 -0.2460937,0.140625 0,0.03515625 0.023437,0.1171875 0.1289062,0.1171875 0.1054688,0 0.3398438,-0.01171875 0.4570313,-0.0234375 h 0.5039062 c 0.7382813,0 0.9375,0.0234375 0.984375,0.0234375 0.046875,0 0.1640625,0 0.1640625,-0.15234375 0,-0.10546875 -0.1054687,-0.10546875 -0.234375,-0.10546875 -0.023437,0 -0.1757812,0 -0.3046875,-0.0234375 -0.1757812,-0.0117188 -0.1875,-0.0351563 -0.1875,-0.10546875 0,-0.046875 0.011719,-0.09375 0.023437,-0.12890625 z m 0,0"
         style="fill:#000000;fill-opacity:1;fill-rule:nonzero;stroke:none" />
      <path
         id="path9"
         d="m 11.347256,-0.00557812 h -0.210937 c -0.02344,0.08203125 -0.08203,0.46875 -0.164063,0.5390625 -0.04687,0.0351563 -0.527343,0.0351563 -0.609375,0.0351563 H 9.2378813 l 0.7734377,-0.62109375 c 0.199219,-0.1640625 0.726562,-0.5390625 0.914062,-0.7265625 0.175782,-0.17578125 0.421875,-0.48046873 0.421875,-0.90234383 0,-0.75 -0.667968,-1.1835937 -1.4765622,-1.1835937 -0.7617188,0 -1.3007813,0.5039062 -1.3007813,1.0664062 0,0.3046875 0.2578125,0.3398438 0.3164063,0.3398438 0.1523437,0 0.328125,-0.1054688 0.328125,-0.3164063 0,-0.140625 -0.082031,-0.328125 -0.3398438,-0.328125 0.1289063,-0.3046875 0.5039063,-0.5273437 0.9140625,-0.5273437 0.6210935,0 0.9609375,0.46875 0.9609375,0.9492187 0,0.421875 -0.28125,0.85546883 -0.703125,1.24218758 l -1.4179687,1.3007812 c -0.058594,0.0585938 -0.058594,0.0585938 -0.058594,0.24609372 h 2.6015627 z m 0,0"
         style="fill:#000000;fill-opacity:1;fill-rule:nonzero;stroke:none" />
      <path
         id="path10"
         d="m 21.858975,15.249305 1.054687,-1.03125 c 1.558594,-1.371094 2.15625,-1.910157 2.15625,-2.90625 0,-1.136719 -0.902343,-1.9335941 -2.121093,-1.9335941 -1.125,0 -1.851563,0.9140621 -1.851563,1.8046871 0,0.550782 0.492188,0.550782 0.527344,0.550782 0.164062,0 0.515625,-0.117188 0.515625,-0.527344 0,-0.257813 -0.1875,-0.515625 -0.527344,-0.515625 -0.08203,0 -0.105469,0 -0.128906,0.01172 0.222656,-0.644532 0.761719,-1.0195316 1.335937,-1.0195316 0.914063,0 1.335938,0.8085936 1.335938,1.6289066 0,0.796875 -0.492188,1.582031 -1.042969,2.203125 l -1.910156,2.132812 c -0.105469,0.105469 -0.105469,0.128906 -0.105469,0.363281 h 3.691406 l 0.28125,-1.734375 H 24.8121 c -0.04687,0.304688 -0.117188,0.738282 -0.210938,0.890625 -0.07031,0.08203 -0.726562,0.08203 -0.949218,0.08203 z m 0,0"
         style="fill:#000000;fill-opacity:1;fill-rule:nonzero;stroke:none" />
    </g>
    <path
       id="path11"
       d="M 434.641,370.594 560.293,152.957"
       style="fill:none;stroke:#000000;stroke-width:3.985;stroke-linecap:butt;stroke-linejoin:miter;stroke-miterlimit:10;stroke-dasharray:none;stroke-opacity:1"
       transform="matrix(0.13333333,0,0,-0.13333333,0,102.52)" />
    <path
       id="path12"
       d="m 582.426,630.012 c 0,7.781 -6.309,14.09 -14.094,14.09 -7.781,0 -14.09,-6.309 -14.09,-14.09 0,-7.782 6.309,-14.09 14.09,-14.09 7.785,0 14.094,6.308 14.094,14.09 z"
       style="fill:#000000;fill-opacity:1;fill-rule:nonzero;stroke:#000000;stroke-width:3.985;stroke-linecap:butt;stroke-linejoin:miter;stroke-miterlimit:10;stroke-dasharray:none;stroke-opacity:1"
       transform="matrix(0.13333333,0,0,-0.13333333,0,102.52)" />
    <g
       id="g12"
       aria-label="M&#10;3&#10;3"
       transform="matrix(1.3333333,0,0,1.3333333,67.266667,41.136133)">
      <path
         id="path13"
         d="m 7.7335938,-4.7925297 c 0.082031,-0.3164062 0.09375,-0.3867187 0.65625,-0.3867187 0.1875,0 0.28125,0 0.28125,-0.1523438 0,-0.1054687 -0.1054688,-0.1054687 -0.2460938,-0.1054687 H 7.39375 c -0.2109375,0 -0.234375,0 -0.3398437,0.1523437 L 4.0421875,-0.73784219 3.3390625,-5.2261234 c -0.035156,-0.1992188 -0.035156,-0.2109375 -0.28125,-0.2109375 h -1.078125 c -0.140625,0 -0.2460937,0 -0.2460937,0.140625 0,0.1171875 0.1054687,0.1171875 0.234375,0.1171875 0.2578125,0 0.4921875,0 0.4921875,0.1289062 0,0.035156 -0.011719,0.035156 -0.035156,0.140625 l -1.0078125,4.05468751 c -0.09375,0.3984375 -0.3046875,0.57421875 -0.83203125,0.59765625 -0.046875,0 -0.15234375,0 -0.15234375,0.140625 0,0.05859375 0.046875,0.1171875025 0.12890625,0.1171875025 0.0234375,0 0.2109375,-0.0234375025 0.78515625,-0.0234375025 0.6328125,0 0.75,0.0234375025 0.8203125,0.0234375025 0.035156,0 0.1523438,0 0.1523438,-0.1523437525 0,-0.09375 -0.09375,-0.10546875 -0.140625,-0.10546875 -0.2929688,-0.0117188 -0.5273438,-0.0585938 -0.5273438,-0.33984375 0,-0.0351563 0.023437,-0.15234375 0.023437,-0.1640625 L 2.753125,-5.0854984 h 0.011719 l 0.7734375,4.87499996 c 0.023437,0.12890625 0.035156,0.2109375025 0.140625,0.2109375025 0.1171875,0 0.1640625,-0.0820312525 0.2226562,-0.1640625025 L 7.1710938,-5.1440922 h 0.011719 l -1.125,4.51171876 c -0.070312,0.3046875 -0.09375,0.375 -0.6796875,0.375 -0.1523437,0 -0.2460937,0 -0.2460937,0.140625 0,0.03515625 0.023437,0.1171875025 0.1289062,0.1171875025 0.1054688,0 0.3398438,-0.0117187525 0.4570313,-0.0234375025 H 6.221875 c 0.7382813,0 0.9375,0.0234375025 0.984375,0.0234375025 0.046875,0 0.1640625,0 0.1640625,-0.1523437525 0,-0.10546875 -0.1054687,-0.10546875 -0.234375,-0.10546875 -0.023437,0 -0.1757812,0 -0.3046875,-0.0234375 -0.1757812,-0.0117188 -0.1875,-0.0351563 -0.1875,-0.10546875 0,-0.046875 0.011719,-0.09375 0.023437,-0.12890625 z m 0,0"
         style="fill:#000000;fill-opacity:1;fill-rule:nonzero;stroke:none" />
      <path
         id="path14"
         d="m 9.8927734,-0.87260781 c 0.5039066,0 0.8437496,0.33984375 0.8437496,0.94921875 0,0.65625 -0.386718,0.93749996 -0.8320308,0.93749996 -0.1523438,0 -0.7734375,-0.0351562 -1.0429688,-0.37499996 0.234375,-0.0234375 0.328125,-0.1875 0.328125,-0.33984375 0,-0.2109375 -0.140625,-0.33984375 -0.3398437,-0.33984375 -0.1640625,0 -0.3398438,0.09375 -0.3398438,0.3515625 0,0.5859375 0.65625,0.92578126 1.4179688,0.92578126 0.8789063,0 1.4765623,-0.57421876 1.4765623,-1.16015626 0,-0.43359375 -0.339844,-0.90234375 -1.042969,-1.07812504 0.46875,-0.1523437 0.855469,-0.5390625 0.855469,-1.03125 0,-0.4804687 -0.5625,-0.8320312 -1.2773436,-0.8320312 -0.703125,0 -1.2421875,0.3164062 -1.2421875,0.8085937 0,0.2578125 0.1992188,0.328125 0.3164063,0.328125 0.1640625,0 0.328125,-0.1054687 0.328125,-0.3164062 0,-0.1875 -0.140625,-0.2929688 -0.2929688,-0.3164063 0.2695313,-0.3046875 0.8203125,-0.3046875 0.8671875,-0.3046875 0.3046871,0 0.6914061,0.140625 0.6914061,0.6328125 0,0.328125 -0.1875,0.9023438 -0.7851561,0.9375 -0.1054687,0.011719 -0.2695312,0.023437 -0.3164062,0.023437 -0.058594,0 -0.1289063,0.011719 -0.1289063,0.10546879 0,0.09375 0.070312,0.09375 0.1640625,0.09375 z m 0,0"
         style="fill:#000000;fill-opacity:1;fill-rule:nonzero;stroke:none" />
      <path
         id="path15"
         d="m 11.038281,-24.620655 c 0.808594,-0.269531 1.394532,-0.972656 1.394532,-1.757812 0,-0.820313 -0.878907,-1.371094 -1.839844,-1.371094 -1.0078127,0 -1.7578127,0.597656 -1.7578127,1.347656 0,0.339844 0.2109375,0.527344 0.5039062,0.527344 0.3046875,0 0.5039063,-0.222656 0.5039063,-0.515625 0,-0.492187 -0.46875,-0.492187 -0.609375,-0.492187 0.3046875,-0.492188 0.9609372,-0.621094 1.3242192,-0.621094 0.410156,0 0.949218,0.222656 0.949218,1.113281 0,0.128906 -0.01172,0.703125 -0.269531,1.136719 -0.304687,0.480469 -0.644531,0.515625 -0.890625,0.515625 -0.08203,0.01172 -0.316406,0.03516 -0.3867187,0.03516 -0.082031,0.01172 -0.1523438,0.02344 -0.1523438,0.117188 0,0.117187 0.070312,0.117187 0.2343755,0.117187 H 10.4875 c 0.808594,0 1.183594,0.667969 1.183594,1.652344 0,1.347656 -0.691406,1.640625 -1.125,1.640625 -0.433594,0 -1.1718752,-0.175781 -1.5234377,-0.761719 0.3515625,0.05859 0.65625,-0.164062 0.65625,-0.539062 0,-0.363282 -0.2695313,-0.5625 -0.5625,-0.5625 -0.234375,0 -0.5507813,0.140625 -0.5507813,0.574218 0,0.914063 0.9257813,1.570313 2.003906,1.570313 1.21875,0 2.121094,-0.914063 2.121094,-1.921875 0,-0.820313 -0.621094,-1.59375 -1.652344,-1.804688 z m 0,0"
         style="fill:#000000;fill-opacity:1;fill-rule:nonzero;stroke:none" />
    </g>
    <path
       id="path16"
       d="M 434.641,398.449 560.293,616.082"
       style="fill:none;stroke:#000000;stroke-width:3.985;stroke-linecap:butt;stroke-linejoin:miter;stroke-miterlimit:10;stroke-dasharray:none;stroke-opacity:1"
       transform="matrix(0.13333333,0,0,-0.13333333,0,102.52)" />
  </g>
</svg>
