<?xml version="1.0" encoding="UTF-8" standalone="no"?>
<!-- Created with Inkscape (http://www.inkscape.org/) -->

<svg
   version="1.1"
   id="svg1"
   width="57.733334"
   height="57.733334"
   viewBox="0 0 57.733334 57.733334"
   sodipodi:docname="image_4-0-0.pdf"
   xmlns:inkscape="http://www.inkscape.org/namespaces/inkscape"
   xmlns:sodipodi="http://sodipodi.sourceforge.net/DTD/sodipodi-0.dtd"
   xmlns="http://www.w3.org/2000/svg"
   xmlns:svg="http://www.w3.org/2000/svg">
  <defs
     id="defs1" />
  <sodipodi:namedview
     id="namedview1"
     pagecolor="#ffffff"
     bordercolor="#000000"
     borderopacity="0.25"
     inkscape:showpageshadow="2"
     inkscape:pageopacity="0.0"
     inkscape:pagecheckerboard="0"
     inkscape:deskcolor="#d1d1d1">
    <inkscape:page
       x="0"
       y="0"
       inkscape:label="1"
       id="page1"
       width="57.733334"
       height="57.733334"
       margin="0"
       bleed="0" />
  </sodipodi:namedview>
  <g
     id="g1"
     inkscape:groupmode="layer"
     inkscape:label="1">
    <path
       id="path1"
       d="m 230.629,216.371 c 0,7.781 -6.309,14.09 -14.09,14.09 -7.781,0 -14.09,-6.309 -14.09,-14.09 0,-7.781 6.309,-14.09 14.09,-14.09 7.781,0 14.09,6.309 14.09,14.09 z"
       style="fill:#ffffff;fill-opacity:1;fill-rule:nonzero;stroke:#000000;stroke-width:3.985;stroke-linecap:butt;stroke-linejoin:miter;stroke-miterlimit:10;stroke-dasharray:none;stroke-opacity:1"
       transform="matrix(0.13333333,0,0,-0.13333333,0,57.733333)" />
    <path
       id="path2"
       d="m 30.1875,416.813 c 0,7.781 -6.3086,14.089 -14.0898,14.089 -7.78129,0 -14.08989,-6.308 -14.08989,-14.089 0,-7.782 6.3086,-14.09 14.08989,-14.09 7.7812,0 14.0898,6.308 14.0898,14.09 z"
       style="fill:#000000;fill-opacity:1;fill-rule:nonzero;stroke:#000000;stroke-width:3.985;stroke-linecap:butt;stroke-linejoin:miter;stroke-miterlimit:10;stroke-dasharray:none;stroke-opacity:1"
       transform="matrix(0.13333333,0,0,-0.13333333,0,57.733333)" />
    <path
       id="path3"
       d="M 205.168,227.742 27.4688,405.441"
       style="fill:none;stroke:#000000;stroke-width:3.985;stroke-linecap:butt;stroke-linejoin:miter;stroke-miterlimit:10;stroke-dasharray:none;stroke-opacity:1"
       transform="matrix(0.13333333,0,0,-0.13333333,0,57.733333)" />
    <path
       id="path4"
       d="m 30.1875,15.9297 c 0,7.7812 -6.3086,14.0898 -14.0898,14.0898 -7.78129,0 -14.08989,-6.3086 -14.08989,-14.0898 0,-7.78517 6.3086,-14.09376 14.08989,-14.09376 7.7812,0 14.0898,6.30859 14.0898,14.09376 z"
       style="fill:#000000;fill-opacity:1;fill-rule:nonzero;stroke:#000000;stroke-width:3.985;stroke-linecap:butt;stroke-linejoin:miter;stroke-miterlimit:10;stroke-dasharray:none;stroke-opacity:1"
       transform="matrix(0.13333333,0,0,-0.13333333,0,57.733333)" />
    <path
       id="path5"
       d="M 205.168,204.996 27.4688,27.3008"
       style="fill:none;stroke:#000000;stroke-width:3.985;stroke-linecap:butt;stroke-linejoin:miter;stroke-miterlimit:10;stroke-dasharray:none;stroke-opacity:1"
       transform="matrix(0.13333333,0,0,-0.13333333,0,57.733333)" />
    <path
       id="path6"
       d="m 431.074,15.9297 c 0,7.7812 -6.308,14.0898 -14.094,14.0898 -7.781,0 -14.089,-6.3086 -14.089,-14.0898 0,-7.78517 6.308,-14.09376 14.089,-14.09376 7.786,0 14.094,6.30859 14.094,14.09376 z"
       style="fill:#000000;fill-opacity:1;fill-rule:nonzero;stroke:#000000;stroke-width:3.985;stroke-linecap:butt;stroke-linejoin:miter;stroke-miterlimit:10;stroke-dasharray:none;stroke-opacity:1"
       transform="matrix(0.13333333,0,0,-0.13333333,0,57.733333)" />
    <path
       id="path7"
       d="M 227.914,204.996 405.609,27.3008"
       style="fill:none;stroke:#000000;stroke-width:3.985;stroke-linecap:butt;stroke-linejoin:miter;stroke-miterlimit:10;stroke-dasharray:none;stroke-opacity:1"
       transform="matrix(0.13333333,0,0,-0.13333333,0,57.733333)" />
    <path
       id="path8"
       d="m 431.074,416.813 c 0,7.781 -6.308,14.089 -14.094,14.089 -7.781,0 -14.089,-6.308 -14.089,-14.089 0,-7.782 6.308,-14.09 14.089,-14.09 7.786,0 14.094,6.308 14.094,14.09 z"
       style="fill:#000000;fill-opacity:1;fill-rule:nonzero;stroke:#000000;stroke-width:3.985;stroke-linecap:butt;stroke-linejoin:miter;stroke-miterlimit:10;stroke-dasharray:none;stroke-opacity:1"
       transform="matrix(0.13333333,0,0,-0.13333333,0,57.733333)" />
    <path
       id="path9"
       d="M 227.914,227.742 405.609,405.441"
       style="fill:none;stroke:#000000;stroke-width:3.985;stroke-linecap:butt;stroke-linejoin:miter;stroke-miterlimit:10;stroke-dasharray:none;stroke-opacity:1"
       transform="matrix(0.13333333,0,0,-0.13333333,0,57.733333)" />
  </g>
</svg>
