<?xml version="1.0" encoding="UTF-8" standalone="no"?>
<!-- Created with Inkscape (http://www.inkscape.org/) -->

<svg
   version="1.1"
   id="svg1"
   width="84.440002"
   height="84.440002"
   viewBox="0 0 84.440002 84.440002"
   sodipodi:docname="image_3-0-0.pdf"
   xmlns:inkscape="http://www.inkscape.org/namespaces/inkscape"
   xmlns:sodipodi="http://sodipodi.sourceforge.net/DTD/sodipodi-0.dtd"
   xmlns="http://www.w3.org/2000/svg"
   xmlns:svg="http://www.w3.org/2000/svg">
  <defs
     id="defs1" />
  <sodipodi:namedview
     id="namedview1"
     pagecolor="#ffffff"
     bordercolor="#000000"
     borderopacity="0.25"
     inkscape:showpageshadow="2"
     inkscape:pageopacity="0.0"
     inkscape:pagecheckerboard="0"
     inkscape:deskcolor="#d1d1d1">
    <inkscape:page
       x="0"
       y="0"
       inkscape:label="1"
       id="page1"
       width="84.440002"
       height="84.440002"
       margin="0"
       bleed="0" />
  </sodipodi:namedview>
  <g
     id="g1"
     inkscape:groupmode="layer"
     inkscape:label="1">
    <path
       id="path1"
       d="m 330.801,316.289 c 0,7.781 -6.309,14.09 -14.09,14.09 -7.781,0 -14.09,-6.309 -14.09,-14.09 0,-7.781 6.309,-14.09 14.09,-14.09 7.781,0 14.09,6.309 14.09,14.09 z"
       style="fill:#ffffff;fill-opacity:1;fill-rule:nonzero;stroke:#000000;stroke-width:3.985;stroke-linecap:butt;stroke-linejoin:miter;stroke-miterlimit:10;stroke-dasharray:none;stroke-opacity:1"
       transform="matrix(0.13333333,0,0,-0.13333333,0,84.44)" />
    <path
       id="path2"
       d="m 47.332,316.289 c 0,7.781 -6.3086,14.09 -14.0898,14.09 -7.7813,0 -14.0899,-6.309 -14.0899,-14.09 0,-7.781 6.3086,-14.09 14.0899,-14.09 7.7812,0 14.0898,6.309 14.0898,14.09 z"
       style="fill:#000000;fill-opacity:1;fill-rule:nonzero;stroke:#000000;stroke-width:3.985;stroke-linecap:butt;stroke-linejoin:miter;stroke-miterlimit:10;stroke-dasharray:none;stroke-opacity:1"
       transform="matrix(0.13333333,0,0,-0.13333333,0,84.44)" />
    <path
       id="path3"
       d="M 300.629,316.289 H 49.3242"
       style="fill:none;stroke:#000000;stroke-width:3.985;stroke-linecap:butt;stroke-linejoin:miter;stroke-miterlimit:10;stroke-dasharray:none;stroke-opacity:1"
       transform="matrix(0.13333333,0,0,-0.13333333,0,84.44)" />
    <path
       id="path4"
       d="m 472.535,70.8008 c 0,7.7812 -6.308,14.0898 -14.09,14.0898 -7.785,0 -14.093,-6.3086 -14.093,-14.0898 0,-7.7852 6.308,-14.0938 14.093,-14.0938 7.782,0 14.09,6.3086 14.09,14.0938 z"
       style="fill:#000000;fill-opacity:1;fill-rule:nonzero;stroke:#000000;stroke-width:3.985;stroke-linecap:butt;stroke-linejoin:miter;stroke-miterlimit:10;stroke-dasharray:none;stroke-opacity:1"
       transform="matrix(0.13333333,0,0,-0.13333333,0,84.44)" />
    <path
       id="path5"
       d="M 324.75,302.363 450.402,84.7266"
       style="fill:none;stroke:#000000;stroke-width:3.985;stroke-linecap:butt;stroke-linejoin:miter;stroke-miterlimit:10;stroke-dasharray:none;stroke-opacity:1"
       transform="matrix(0.13333333,0,0,-0.13333333,0,84.44)" />
    <path
       id="path6"
       d="m 472.535,561.781 c 0,7.782 -6.308,14.09 -14.09,14.09 -7.785,0 -14.093,-6.308 -14.093,-14.09 0,-7.781 6.308,-14.09 14.093,-14.09 7.782,0 14.09,6.309 14.09,14.09 z"
       style="fill:#000000;fill-opacity:1;fill-rule:nonzero;stroke:#000000;stroke-width:3.985;stroke-linecap:butt;stroke-linejoin:miter;stroke-miterlimit:10;stroke-dasharray:none;stroke-opacity:1"
       transform="matrix(0.13333333,0,0,-0.13333333,0,84.44)" />
    <path
       id="path7"
       d="M 324.75,330.219 450.402,547.852"
       style="fill:none;stroke:#000000;stroke-width:3.985;stroke-linecap:butt;stroke-linejoin:miter;stroke-miterlimit:10;stroke-dasharray:none;stroke-opacity:1"
       transform="matrix(0.13333333,0,0,-0.13333333,0,84.44)" />
  </g>
</svg>
