<?xml version="1.0" encoding="UTF-8" standalone="no"?>
<!-- Created with Inkscape (http://www.inkscape.org/) -->

<svg
   version="1.1"
   id="svg1"
   width="182.70667"
   height="111.4"
   viewBox="0 0 182.70667 111.4"
   sodipodi:docname="imagelabelled_5-0-2.pdf"
   xmlns:inkscape="http://www.inkscape.org/namespaces/inkscape"
   xmlns:sodipodi="http://sodipodi.sourceforge.net/DTD/sodipodi-0.dtd"
   xmlns="http://www.w3.org/2000/svg"
   xmlns:svg="http://www.w3.org/2000/svg">
  <defs
     id="defs1" />
  <sodipodi:namedview
     id="namedview1"
     pagecolor="#ffffff"
     bordercolor="#000000"
     borderopacity="0.25"
     inkscape:showpageshadow="2"
     inkscape:pageopacity="0.0"
     inkscape:pagecheckerboard="0"
     inkscape:deskcolor="#d1d1d1">
    <inkscape:page
       x="0"
       y="0"
       inkscape:label="1"
       id="page1"
       width="182.70667"
       height="111.4"
       margin="0"
       bleed="0" />
  </sodipodi:namedview>
  <g
     id="g1"
     inkscape:groupmode="layer"
     inkscape:label="1">
    <path
       id="path1"
       d="m 415.762,401.328 c 0,7.785 -6.309,14.094 -14.09,14.094 -7.785,0 -14.094,-6.309 -14.094,-14.094 0,-7.781 6.309,-14.09 14.094,-14.09 7.781,0 14.09,6.309 14.09,14.09 z"
       style="fill:#ffffff;fill-opacity:1;fill-rule:nonzero;stroke:#000000;stroke-width:3.985;stroke-linecap:butt;stroke-linejoin:miter;stroke-miterlimit:10;stroke-dasharray:none;stroke-opacity:1"
       transform="matrix(0.13333333,0,0,-0.13333333,0,111.4)" />
    <path
       id="path2"
       d="m 699.227,401.328 c 0,7.785 -6.309,14.094 -14.09,14.094 -7.782,0 -14.09,-6.309 -14.09,-14.094 0,-7.781 6.308,-14.09 14.09,-14.09 7.781,0 14.09,6.309 14.09,14.09 z"
       style="fill:#ffffff;fill-opacity:1;fill-rule:nonzero;stroke:#000000;stroke-width:3.985;stroke-linecap:butt;stroke-linejoin:miter;stroke-miterlimit:10;stroke-dasharray:none;stroke-opacity:1"
       transform="matrix(0.13333333,0,0,-0.13333333,0,111.4)" />
    <path
       id="path3"
       d="m 982.695,401.328 c 0,7.785 -6.308,14.094 -14.09,14.094 -7.781,0 -14.089,-6.309 -14.089,-14.094 0,-7.781 6.308,-14.09 14.089,-14.09 7.782,0 14.09,6.309 14.09,14.09 z"
       style="fill:#ffffff;fill-opacity:1;fill-rule:nonzero;stroke:#000000;stroke-width:3.985;stroke-linecap:butt;stroke-linejoin:miter;stroke-miterlimit:10;stroke-dasharray:none;stroke-opacity:1"
       transform="matrix(0.13333333,0,0,-0.13333333,0,111.4)" />
    <path
       id="path4"
       d="m 215.316,601.773 c 0,7.782 -6.308,14.09 -14.089,14.09 -7.782,0 -14.09,-6.308 -14.09,-14.09 0,-7.781 6.308,-14.089 14.09,-14.089 7.781,0 14.089,6.308 14.089,14.089 z"
       style="fill:#000000;fill-opacity:1;fill-rule:nonzero;stroke:#000000;stroke-width:3.985;stroke-linecap:butt;stroke-linejoin:miter;stroke-miterlimit:10;stroke-dasharray:none;stroke-opacity:1"
       transform="matrix(0.13333333,0,0,-0.13333333,0,111.4)" />
    <path
       id="path5"
       d="m 215.316,200.887 c 0,7.781 -6.308,14.09 -14.089,14.09 -7.782,0 -14.09,-6.309 -14.09,-14.09 0,-7.782 6.308,-14.09 14.09,-14.09 7.781,0 14.089,6.308 14.089,14.09 z"
       style="fill:#000000;fill-opacity:1;fill-rule:nonzero;stroke:#000000;stroke-width:3.985;stroke-linecap:butt;stroke-linejoin:miter;stroke-miterlimit:10;stroke-dasharray:none;stroke-opacity:1"
       transform="matrix(0.13333333,0,0,-0.13333333,0,111.4)" />
    <path
       id="path6"
       d="m 1183.14,200.887 c 0,7.781 -6.31,14.09 -14.09,14.09 -7.78,0 -14.09,-6.309 -14.09,-14.09 0,-7.782 6.31,-14.09 14.09,-14.09 7.78,0 14.09,6.308 14.09,14.09 z"
       style="fill:#000000;fill-opacity:1;fill-rule:nonzero;stroke:#000000;stroke-width:3.985;stroke-linecap:butt;stroke-linejoin:miter;stroke-miterlimit:10;stroke-dasharray:none;stroke-opacity:1"
       transform="matrix(0.13333333,0,0,-0.13333333,0,111.4)" />
    <path
       id="path7"
       d="m 1183.14,601.773 c 0,7.782 -6.31,14.09 -14.09,14.09 -7.78,0 -14.09,-6.308 -14.09,-14.09 0,-7.781 6.31,-14.089 14.09,-14.089 7.78,0 14.09,6.308 14.09,14.089 z"
       style="fill:#000000;fill-opacity:1;fill-rule:nonzero;stroke:#000000;stroke-width:3.985;stroke-linecap:butt;stroke-linejoin:miter;stroke-miterlimit:10;stroke-dasharray:none;stroke-opacity:1"
       transform="matrix(0.13333333,0,0,-0.13333333,0,111.4)" />
    <path
       id="path8"
       d="m 699.227,684.797 c 0,7.781 -6.309,14.09 -14.09,14.09 -7.782,0 -14.09,-6.309 -14.09,-14.09 0,-7.781 6.308,-14.09 14.09,-14.09 7.781,0 14.09,6.309 14.09,14.09 z"
       style="fill:#000000;fill-opacity:1;fill-rule:nonzero;stroke:#000000;stroke-width:3.985;stroke-linecap:butt;stroke-linejoin:miter;stroke-miterlimit:10;stroke-dasharray:none;stroke-opacity:1"
       transform="matrix(0.13333333,0,0,-0.13333333,0,111.4)" />
    <path
       id="path9"
       d="m 417.754,401.328 h 251.301 m 32.168,0 h 251.3"
       style="fill:none;stroke:#000000;stroke-width:3.985;stroke-linecap:butt;stroke-linejoin:miter;stroke-miterlimit:10;stroke-dasharray:none;stroke-opacity:1"
       transform="matrix(0.13333333,0,0,-0.13333333,0,111.4)" />
    <g
       id="g9"
       aria-label="M&#10;6&#10;M&#10;7"
       transform="matrix(1.3333333,0,0,1.3333333,64.264533,69.844267)">
      <path
         id="path10"
         d="m 7.7351938,-4.7933562 c 0.082031,-0.3164063 0.09375,-0.3867188 0.65625,-0.3867188 0.1875,0 0.28125,0 0.28125,-0.1523437 0,-0.1054688 -0.1054688,-0.1054688 -0.2460938,-0.1054688 H 7.39535 c -0.2109375,0 -0.234375,0 -0.3398437,0.1523438 L 4.0437875,-0.73866875 3.3406625,-5.22695 c -0.035156,-0.1992187 -0.035156,-0.2109375 -0.28125,-0.2109375 h -1.078125 c -0.140625,0 -0.2460937,0 -0.2460937,0.140625 0,0.1171875 0.1054687,0.1171875 0.234375,0.1171875 0.2578125,0 0.4921875,0 0.4921875,0.1289063 0,0.035156 -0.011719,0.035156 -0.035156,0.140625 L 1.4187875,-0.85585625 C 1.3250375,-0.45741875 1.1141,-0.2816375 0.58675625,-0.2582 c -0.046875,0 -0.15234375,0 -0.15234375,0.140625 0,0.05859375 0.046875,0.1171875 0.12890625,0.1171875 0.0234375,0 0.2109375,-0.0234375 0.78515625,-0.0234375 0.6328125,0 0.75,0.0234375 0.8203125,0.0234375 0.035156,0 0.1523438,0 0.1523438,-0.15234375 0,-0.09375 -0.09375,-0.10546875 -0.140625,-0.10546875 -0.2929688,-0.0117188 -0.5273438,-0.0585938 -0.5273438,-0.33984375 0,-0.0351563 0.023437,-0.15234375 0.023437,-0.1640625 L 2.754725,-5.086325 h 0.011719 l 0.7734375,4.875 c 0.023437,0.12890625 0.035156,0.2109375 0.140625,0.2109375 0.1171875,0 0.1640625,-0.08203125 0.2226562,-0.1640625 L 7.172694,-5.1449187 h 0.011719 l -1.125,4.5117187 c -0.070312,0.3046875 -0.09375,0.375 -0.6796875,0.375 -0.1523437,0 -0.2460937,0 -0.2460937,0.140625 0,0.03515625 0.023437,0.1171875 0.1289062,0.1171875 0.1054688,0 0.3398438,-0.01171875 0.4570313,-0.0234375 H 6.223475 c 0.7382813,0 0.9375,0.0234375 0.984375,0.0234375 0.046875,0 0.1640625,0 0.1640625,-0.15234375 C 7.3719125,-0.2582 7.2664438,-0.2582 7.1375375,-0.2582 c -0.023437,0 -0.1757812,0 -0.3046875,-0.0234375 -0.1757812,-0.0117188 -0.1875,-0.0351563 -0.1875,-0.10546875 0,-0.046875 0.011719,-0.09375 0.023437,-0.12890625 z m 0,0"
         style="fill:#000000;fill-opacity:1;fill-rule:nonzero;stroke:none" />
      <path
         id="path11"
         d="m 9.1092172,-0.87343437 c 0.011719,-0.29296873 0.023437,-0.79687503 0.234375,-1.16015623 0.2578125,-0.4570313 0.65625,-0.6328125 1.0078128,-0.6328125 0.140625,0 0.410156,0.023437 0.5625,0.1875 -0.222657,0.035156 -0.257813,0.1875 -0.257813,0.28125 0,0.1640625 0.105469,0.2929687 0.28125,0.2929687 0.175781,0 0.292969,-0.1171875 0.292969,-0.3046875 0,-0.3632812 -0.269531,-0.65625 -0.878906,-0.65625 -0.9257816,0 -1.8398441,0.8085938 -1.8398441,2.07421878 0,1.453125 0.6796875,2.02734372 1.4648438,2.02734372 0.2343753,0 0.6445313,-0.035156 1.0078123,-0.38671872 0.1875,-0.19921875 0.421875,-0.43359375 0.421875,-0.9609375 0,-0.19921875 -0.02344,-0.5859375 -0.386719,-0.92578128 -0.210937,-0.1875 -0.46875,-0.3984375 -0.984375,-0.3984375 -0.4218746,0 -0.7265621,0.2109375 -0.9257808,0.56250003 z M 9.9764047,1.0132844 c -0.84375,0 -0.84375,-1.01953127 -0.84375,-1.25390627 0,-0.515625 0.3398437,-1.00781253 0.8789063,-1.00781253 0.304687,0 0.480469,0.1289063 0.632812,0.31640628 0.164063,0.234375 0.164063,0.50390625 0.164063,0.8203125 0,0.41015625 -0.01172,0.609375 -0.210938,0.85546875 C 10.445155,0.91953438 10.257655,1.0132844 9.9764047,1.0132844 Z m 0,0"
         style="fill:#000000;fill-opacity:1;fill-rule:nonzero;stroke:none" />
      <path
         id="path12"
         d="m 36.07992,-4.7933562 c 0.08203,-0.3164063 0.09375,-0.3867188 0.65625,-0.3867188 0.1875,0 0.28125,0 0.28125,-0.1523437 0,-0.1054688 -0.105468,-0.1054688 -0.246093,-0.1054688 h -1.03125 c -0.210938,0 -0.234375,0 -0.339844,0.1523438 L 32.388514,-0.73866875 31.685389,-5.22695 c -0.03516,-0.1992187 -0.03516,-0.2109375 -0.28125,-0.2109375 h -1.078125 c -0.140625,0 -0.246094,0 -0.246094,0.140625 0,0.1171875 0.105469,0.1171875 0.234375,0.1171875 0.257813,0 0.492188,0 0.492188,0.1289063 0,0.035156 -0.01172,0.035156 -0.03516,0.140625 l -1.007813,4.05468745 c -0.09375,0.3984375 -0.304687,0.57421875 -0.832031,0.59765625 -0.04687,0 -0.152344,0 -0.152344,0.140625 0,0.05859375 0.04687,0.1171875 0.128906,0.1171875 0.02344,0 0.210938,-0.0234375 0.785157,-0.0234375 0.632812,0 0.75,0.0234375 0.820312,0.0234375 0.03516,0 0.152344,0 0.152344,-0.15234375 0,-0.09375 -0.09375,-0.10546875 -0.140625,-0.10546875 -0.292969,-0.0117188 -0.527344,-0.0585938 -0.527344,-0.33984375 0,-0.0351563 0.02344,-0.15234375 0.02344,-0.1640625 L 31.099452,-5.086325 h 0.01172 l 0.773438,4.875 c 0.02344,0.12890625 0.03516,0.2109375 0.140625,0.2109375 0.117187,0 0.164062,-0.08203125 0.222656,-0.1640625 l 3.269531,-4.9804687 h 0.01172 l -1.125,4.5117187 c -0.07031,0.3046875 -0.09375,0.375 -0.679687,0.375 -0.152344,0 -0.246094,0 -0.246094,0.140625 0,0.03515625 0.02344,0.1171875 0.128906,0.1171875 0.105469,0 0.339844,-0.01171875 0.457031,-0.0234375 h 0.503907 c 0.738281,0 0.9375,0.0234375 0.984375,0.0234375 0.04687,0 0.164062,0 0.164062,-0.15234375 C 35.716639,-0.2582 35.61117,-0.2582 35.482264,-0.2582 c -0.02344,0 -0.175781,0 -0.304687,-0.0234375 -0.175782,-0.0117188 -0.1875,-0.0351563 -0.1875,-0.10546875 0,-0.046875 0.01172,-0.09375 0.02344,-0.12890625 z m 0,0"
         style="fill:#000000;fill-opacity:1;fill-rule:nonzero;stroke:none" />
      <path
         id="path13"
         d="m 39.894373,-2.5023406 c 0.05859,-0.058594 0.05859,-0.070312 0.05859,-0.234375 h -1.546875 c -0.246094,0 -0.386719,-0.011719 -0.621094,-0.023437 -0.292968,-0.023437 -0.363281,-0.035156 -0.386718,-0.1757813 h -0.222657 l -0.222656,1.3125 h 0.222656 c 0.02344,-0.1289062 0.08203,-0.4804687 0.164063,-0.5390625 0.05859,-0.046875 0.5625,-0.046875 0.65625,-0.046875 h 1.347656 c -0.05859,0.09375 -0.386719,0.46875 -0.527344,0.6445313 -0.585937,0.70312498 -0.984375,1.54687498 -0.984375,2.46093748 0,0.046875 0,0.33984372 0.28125,0.33984372 0.292969,0 0.292969,-0.28124997 0.292969,-0.35156247 V 0.70859688 c 0,-1.1484375 0.246094,-1.73437498 0.550781,-2.08593748 z m 0,0"
         style="fill:#000000;fill-opacity:1;fill-rule:nonzero;stroke:none" />
    </g>
    <path
       id="path14"
       d="M 685.137,417.414 V 668.715"
       style="fill:none;stroke:#000000;stroke-width:3.985;stroke-linecap:butt;stroke-linejoin:miter;stroke-miterlimit:10;stroke-dasharray:none;stroke-opacity:1"
       transform="matrix(0.13333333,0,0,-0.13333333,0,111.4)" />
    <g
       id="g14"
       aria-label="M&#10;5&#10;5"
       transform="matrix(1.3333333,0,0,1.3333333,70.280267,38.104667)">
      <path
         id="path15"
         d="m 7.7351125,-4.7923672 c 0.082031,-0.3164062 0.09375,-0.3867187 0.65625,-0.3867187 0.1875,0 0.28125,0 0.28125,-0.1523438 0,-0.1054687 -0.1054687,-0.1054687 -0.2460937,-0.1054687 H 7.3952687 c -0.2109375,0 -0.234375,0 -0.3398437,0.1523437 L 4.0437062,-0.73767969 3.3405812,-5.2259609 C 3.305425,-5.4251797 3.305425,-5.4368984 3.0593312,-5.4368984 h -1.078125 c -0.140625,0 -0.2460937,0 -0.2460937,0.140625 0,0.1171875 0.1054687,0.1171875 0.234375,0.1171875 0.2578125,0 0.4921875,0 0.4921875,0.1289062 0,0.035156 -0.011719,0.035156 -0.035156,0.140625 l -1.0078125,4.05468751 c -0.09375,0.3984375 -0.3046875,0.57421875 -0.8320312,0.59765625 -0.046875,0 -0.15234375,0 -0.15234375,0.140625 0,0.05859375 0.046875,0.1171875025 0.12890625,0.1171875025 0.0234375,0 0.2109375,-0.0234375025 0.7851562,-0.0234375025 0.6328125,0 0.75,0.0234375025 0.8203125,0.0234375025 0.035156,0 0.1523438,0 0.1523438,-0.1523437525 0,-0.09375 -0.09375,-0.10546875 -0.140625,-0.10546875 -0.2929688,-0.0117188 -0.5273438,-0.0585938 -0.5273438,-0.33984375 0,-0.0351563 0.023437,-0.15234375 0.023437,-0.1640625 l 1.078125,-4.32421871 h 0.011719 L 3.5398,-0.21033594 c 0.023437,0.12890625 0.035156,0.2109375025 0.140625,0.2109375025 0.1171875,0 0.1640625,-0.0820312525 0.2226562,-0.1640625025 L 7.1726125,-5.1439297 h 0.011719 l -1.125,4.51171876 c -0.070312,0.3046875 -0.09375,0.375 -0.6796875,0.375 -0.1523437,0 -0.2460937,0 -0.2460937,0.140625 0,0.03515625 0.023437,0.1171875025 0.1289062,0.1171875025 0.1054688,0 0.3398438,-0.0117187525 0.4570313,-0.0234375025 H 6.223394 c 0.7382813,0 0.9375,0.0234375025 0.984375,0.0234375025 0.046875,0 0.1640625,0 0.1640625,-0.1523437525 0,-0.10546875 -0.1054687,-0.10546875 -0.234375,-0.10546875 -0.023437,0 -0.1757812,0 -0.3046875,-0.0234375 -0.1757812,-0.0117188 -0.1875,-0.0351563 -0.1875,-0.10546875 0,-0.046875 0.011719,-0.09375 0.023437,-0.12890625 z m 0,0"
         style="fill:#000000;fill-opacity:1;fill-rule:nonzero;stroke:none" />
      <path
         id="path16"
         d="m 9.1560109,-2.2083828 c 0.1992188,0.058594 0.3984375,0.082031 0.609375,0.082031 0.1289063,0 0.4570311,0 0.8437501,-0.2109375 0.09375,-0.058594 0.46875,-0.3046875 0.46875,-0.4335937 0,-0.082031 -0.05859,-0.09375 -0.08203,-0.09375 -0.02344,0 -0.02344,0 -0.09375,0.023437 -0.210938,0.082031 -0.515625,0.1640625 -0.9023441,0.1640625 -0.2929687,0 -0.6210937,-0.046875 -0.890625,-0.1523438 -0.058594,-0.023437 -0.082031,-0.035156 -0.1054687,-0.035156 -0.082031,0 -0.082031,0.058594 -0.082031,0.1640625 v 1.79296874 c 0,0.09375 0,0.1640625 0.1054688,0.1640625 0.058594,0 0.070312,-0.0234375 0.1171875,-0.0703125 0.140625,-0.18750004 0.4101562,-0.38671874 0.8789055,-0.38671874 0.726563,0 0.726563,0.89062499 0.726563,1.07812499 0,0.234375 -0.01172,0.57421875 -0.210938,0.8203125 -0.1875,0.22265625 -0.457031,0.31640621 -0.714843,0.31640621 -0.4101563,0 -0.8320313,-0.22265621 -0.9726563,-0.57421871 0.2929688,0 0.328125,-0.234375 0.328125,-0.3046875 0,-0.1640625 -0.1171875,-0.3046875 -0.3046875,-0.3046875 -0.058594,0 -0.3046875,0.0234375 -0.3046875,0.328125 0,0.55078125 0.515625,1.07812501 1.265625,1.07812501 0.8203123,0 1.5117183,-0.58593751 1.5117183,-1.33593751 0,-0.6796875 -0.550781,-1.30078129 -1.3125,-1.30078129 -0.3867183,0 -0.6914058,0.1289063 -0.8789058,0.2929688 z m 0,0"
         style="fill:#000000;fill-opacity:1;fill-rule:nonzero;stroke:none" />
      <path
         id="path17"
         d="m 17.7898,-20.806039 c 0,-1.183594 -0.820313,-2.179688 -1.898437,-2.179688 -0.480469,0 -0.902344,0.164063 -1.265625,0.503907 v -1.933594 c 0.199218,0.05859 0.527343,0.128906 0.84375,0.128906 1.230468,0 1.933593,-0.914062 1.933593,-1.042969 0,-0.05859 -0.03516,-0.105468 -0.105469,-0.105468 -0.01172,0 -0.03516,0 -0.08203,0.02344 -0.199219,0.09375 -0.679687,0.292969 -1.347656,0.292969 -0.398437,0 -0.855469,-0.07031 -1.324219,-0.28125 -0.08203,-0.02344 -0.105468,-0.02344 -0.128906,-0.02344 -0.09375,0 -0.09375,0.08203 -0.09375,0.234375 v 2.953125 c 0,0.175782 0,0.257813 0.140625,0.257813 0.07031,0 0.08203,-0.03516 0.128906,-0.09375 0.105469,-0.152344 0.480469,-0.691406 1.277344,-0.691406 0.527344,0 0.773437,0.457031 0.855469,0.632812 0.152343,0.375 0.175781,0.761719 0.175781,1.253906 0,0.351563 0,0.949219 -0.234375,1.371094 -0.246094,0.386719 -0.609375,0.644531 -1.066406,0.644531 -0.726563,0 -1.300781,-0.527343 -1.464844,-1.113281 0.02344,0.01172 0.05859,0.01172 0.164063,0.01172 0.328125,0 0.503906,-0.246094 0.503906,-0.480469 0,-0.246094 -0.175781,-0.492187 -0.503906,-0.492187 -0.140625,0 -0.480469,0.07031 -0.480469,0.527343 0,0.855469 0.679687,1.828125 1.792969,1.828125 1.160156,0 2.179687,-0.960937 2.179687,-2.226562 z m 0,0"
         style="fill:#000000;fill-opacity:1;fill-rule:nonzero;stroke:none" />
    </g>
    <path
       id="path18"
       d="M 390.297,412.703 212.602,590.398"
       style="fill:none;stroke:#000000;stroke-width:3.985;stroke-linecap:butt;stroke-linejoin:miter;stroke-miterlimit:10;stroke-dasharray:none;stroke-opacity:1"
       transform="matrix(0.13333333,0,0,-0.13333333,0,111.4)" />
    <g
       id="g18"
       aria-label="M&#10;1&#10;1"
       transform="matrix(1.3333333,0,0,1.3333333,24.0568,53.026)">
      <path
         id="path19"
         d="m 7.7357203,-4.7919609 c 0.082031,-0.3164063 0.09375,-0.3867188 0.65625,-0.3867188 0.1875,0 0.28125,0 0.28125,-0.1523437 0,-0.1054688 -0.1054687,-0.1054688 -0.2460937,-0.1054688 h -1.03125 c -0.2109375,0 -0.234375,0 -0.3398438,0.1523438 L 4.0443141,-0.73727344 3.3411891,-5.2255547 c -0.035156,-0.1992187 -0.035156,-0.2109375 -0.28125,-0.2109375 h -1.078125 c -0.140625,0 -0.2460938,0 -0.2460938,0.140625 0,0.1171875 0.1054688,0.1171875 0.234375,0.1171875 0.2578125,0 0.4921875,0 0.4921875,0.1289063 0,0.035156 -0.011719,0.035156 -0.035156,0.140625 l -1.0078125,4.05468746 c -0.09375,0.3984375 -0.3046875,0.57421875 -0.83203129,0.59765625 -0.046875,0 -0.15234375,0 -0.15234375,0.140625 0,0.05859375 0.046875,0.1171875 0.12890625,0.1171875 0.0234375,0 0.2109375,-0.0234375 0.78515629,-0.0234375 0.6328125,0 0.75,0.0234375 0.8203125,0.0234375 0.035156,0 0.1523437,0 0.1523437,-0.15234375 0,-0.09375 -0.09375,-0.10546875 -0.140625,-0.10546875 -0.2929687,-0.0117188 -0.5273437,-0.0585938 -0.5273437,-0.33984375 0,-0.0351563 0.023437,-0.15234375 0.023437,-0.1640625 l 1.078125,-4.32421876 h 0.011719 l 0.7734375,4.87500001 c 0.023437,0.12890625 0.035156,0.2109375 0.140625,0.2109375 0.1171875,0 0.1640625,-0.08203125 0.2226563,-0.1640625 L 7.1732203,-5.1435234 h 0.011719 l -1.125,4.51171871 c -0.070312,0.3046875 -0.09375,0.375 -0.6796875,0.375 -0.1523438,0 -0.2460938,0 -0.2460938,0.140625 0,0.03515625 0.023437,0.1171875 0.1289063,0.1171875 0.1054687,0 0.3398437,-0.01171875 0.4570312,-0.0234375 h 0.5039063 c 0.7382812,0 0.9375,0.0234375 0.984375,0.0234375 0.046875,0 0.1640625,0 0.1640625,-0.15234375 0,-0.10546875 -0.1054688,-0.10546875 -0.234375,-0.10546875 -0.023437,0 -0.1757813,0 -0.3046875,-0.0234375 -0.1757813,-0.0117188 -0.1875,-0.0351563 -0.1875,-0.10546875 0,-0.046875 0.011719,-0.09375 0.023437,-0.12890625 z m 0,0"
         style="fill:#000000;fill-opacity:1;fill-rule:nonzero;stroke:none" />
      <path
         id="path20"
         d="m 10.281619,-2.6884453 c 0,-0.1757813 -0.02344,-0.1757813 -0.199219,-0.1757813 -0.3984375,0.375 -1.0078125,0.375 -1.21875,0.375 v 0.234375 c 0.1523438,0 0.5507813,0 0.9023438,-0.1640625 v 3.02343754 c 0,0.1875 0,0.26953125 -0.609375,0.26953125 H 8.8988063 V 1.1084297 c 0.328125,-0.023437 0.796875,-0.023437 1.1249997,-0.023437 0.339844,0 0.796875,0 1.136719,0.023437 V 0.87405469 h -0.257812 c -0.621094,0 -0.621094,-0.0820313 -0.621094,-0.26953125 z m 0,0"
         style="fill:#000000;fill-opacity:1;fill-rule:nonzero;stroke:none" />
      <path
         id="path21"
         d="m -3.4937719,-25.575164 c 0,-0.234375 0,-0.257813 -0.234375,-0.257813 -0.609375,0.632813 -1.4882812,0.632813 -1.8046875,0.632813 v 0.316406 c 0.1992188,0 0.7851563,0 1.3007813,-0.257812 v 5.15625 c 0,0.351562 -0.035156,0.480468 -0.9257813,0.480468 h -0.3164062 v 0.304688 c 0.3515625,-0.03516 1.2070312,-0.03516 1.6054687,-0.03516 0.3984375,0 1.265625,0 1.6171875,0.03516 v -0.304688 h -0.3164062 c -0.9023438,0 -0.9257813,-0.117187 -0.9257813,-0.480468 z m 0,0"
         style="fill:#000000;fill-opacity:1;fill-rule:nonzero;stroke:none" />
    </g>
    <path
       id="path22"
       d="M 390.297,389.957 212.602,212.262"
       style="fill:none;stroke:#000000;stroke-width:3.985;stroke-linecap:butt;stroke-linejoin:miter;stroke-miterlimit:10;stroke-dasharray:none;stroke-opacity:1"
       transform="matrix(0.13333333,0,0,-0.13333333,0,111.4)" />
    <g
       id="g22"
       aria-label="M&#10;2&#10;2"
       transform="matrix(1.3333333,0,0,1.3333333,37.6104,82.0916)">
      <path
         id="path23"
         d="m 7.7336063,-4.7942859 c 0.082031,-0.3164063 0.09375,-0.3867188 0.65625,-0.3867188 0.1875,0 0.28125,0 0.28125,-0.1523437 0,-0.1054688 -0.1054688,-0.1054688 -0.2460938,-0.1054688 h -1.03125 c -0.2109375,0 -0.234375,0 -0.3398437,0.1523438 L 4.0422,-0.73959844 3.339075,-5.2278797 C 3.3039188,-5.4270984 3.3039188,-5.4388172 3.057825,-5.4388172 H 1.9797 c -0.140625,0 -0.2460937,0 -0.2460937,0.140625 0,0.1171875 0.1054687,0.1171875 0.234375,0.1171875 0.2578125,0 0.4921875,0 0.4921875,0.1289063 0,0.035156 -0.011719,0.035156 -0.035156,0.140625 L 1.4172,-0.85678594 c -0.09375,0.3984375 -0.3046875,0.57421875 -0.83203125,0.59765625 -0.046875,0 -0.15234375,0 -0.15234375,0.140625 0,0.05859375 0.046875,0.1171875 0.12890625,0.1171875 0.0234375,0 0.2109375,-0.0234375 0.78515625,-0.0234375 0.6328125,0 0.75,0.0234375 0.8203125,0.0234375 0.035156,0 0.1523438,0 0.1523438,-0.15234375 0,-0.09375 -0.09375,-0.10546875 -0.140625,-0.10546875 C 1.88595,-0.27084844 1.651575,-0.31772344 1.651575,-0.59897344 c 0,-0.0351563 0.023437,-0.15234375 0.023437,-0.1640625 L 2.753137,-5.0872547 h 0.011719 l 0.7734375,4.87500001 c 0.023437,0.12890625 0.035156,0.2109375 0.140625,0.2109375 0.1171875,0 0.1640625,-0.08203125 0.2226562,-0.1640625 L 7.1711063,-5.1458484 h 0.011719 l -1.125,4.51171871 c -0.070312,0.3046875 -0.09375,0.375 -0.6796875,0.375 -0.1523437,0 -0.2460937,0 -0.2460937,0.140625 0,0.03515625 0.023437,0.1171875 0.1289062,0.1171875 0.1054688,0 0.3398438,-0.01171875 0.4570313,-0.0234375 h 0.5039062 c 0.7382813,0 0.9375,0.0234375 0.984375,0.0234375 0.046875,0 0.1640625,0 0.1640625,-0.15234375 0,-0.10546875 -0.1054687,-0.10546875 -0.234375,-0.10546875 -0.023437,0 -0.1757812,0 -0.3046875,-0.0234375 -0.1757812,-0.0117188 -0.1875,-0.0351563 -0.1875,-0.10546875 0,-0.046875 0.011719,-0.09375 0.023437,-0.12890625 z m 0,0"
         style="fill:#000000;fill-opacity:1;fill-rule:nonzero;stroke:none" />
      <path
         id="path24"
         d="m 11.345911,-0.00717656 h -0.210938 c -0.02344,0.08203125 -0.08203,0.46875 -0.164062,0.5390625 -0.04687,0.0351563 -0.527344,0.0351563 -0.609375,0.0351563 H 9.2365359 l 0.7734371,-0.62109375 c 0.199219,-0.1640625 0.726563,-0.5390625 0.914063,-0.7265625 0.175781,-0.17578125 0.421875,-0.48046869 0.421875,-0.90234369 0,-0.7500001 -0.667969,-1.1835938 -1.4765626,-1.1835938 -0.7617187,0 -1.3007812,0.5039063 -1.3007812,1.0664063 0,0.3046875 0.2578125,0.3398437 0.3164062,0.3398437 0.1523438,0 0.328125,-0.1054687 0.328125,-0.3164062 0,-0.140625 -0.082031,-0.3281251 -0.3398437,-0.3281251 0.1289062,-0.3046875 0.5039062,-0.5273438 0.9140625,-0.5273438 0.6210938,0 0.9609378,0.46875 0.9609378,0.9492189 0,0.421875 -0.28125,0.85546869 -0.703125,1.24218744 l -1.4179691,1.3007812 c -0.058594,0.0585938 -0.058594,0.0585938 -0.058594,0.24609376 H 11.17013 Z m 0,0"
         style="fill:#000000;fill-opacity:1;fill-rule:nonzero;stroke:none" />
      <path
         id="path25"
         d="m -15.323034,10.355128 1.054687,-1.0312499 c 1.558594,-1.3710937 2.15625,-1.9101562 2.15625,-2.90625 0,-1.1367187 -0.902344,-1.9335937 -2.121094,-1.9335937 -1.125,0 -1.851562,0.9140625 -1.851562,1.8046875 0,0.5507812 0.492187,0.5507812 0.527344,0.5507812 0.164062,0 0.515625,-0.1171875 0.515625,-0.5273437 0,-0.2578125 -0.1875,-0.515625 -0.527344,-0.515625 -0.08203,0 -0.105469,0 -0.128906,0.011719 0.222656,-0.6445312 0.761718,-1.0195312 1.335937,-1.0195312 0.914063,0 1.335938,0.8085937 1.335938,1.6289062 0,0.796875 -0.492188,1.5820313 -1.042969,2.203125 l -1.910156,2.1328126 c -0.105469,0.105468 -0.105469,0.128906 -0.105469,0.363281 h 3.691406 l 0.28125,-1.7343748 h -0.257812 c -0.04687,0.3046875 -0.117188,0.7382808 -0.210938,0.8906248 -0.07031,0.08203 -0.726562,0.08203 -0.949219,0.08203 z m 0,0"
         style="fill:#000000;fill-opacity:1;fill-rule:nonzero;stroke:none" />
    </g>
    <path
       id="path26"
       d="M 979.977,389.957 1157.68,212.262"
       style="fill:none;stroke:#000000;stroke-width:3.985;stroke-linecap:butt;stroke-linejoin:miter;stroke-miterlimit:10;stroke-dasharray:none;stroke-opacity:1"
       transform="matrix(0.13333333,0,0,-0.13333333,0,111.4)" />
    <g
       id="g26"
       aria-label="M&#10;3&#10;3"
       transform="matrix(1.3333333,0,0,1.3333333,142.268,68.538533)">
      <path
         id="path27"
         d="m 7.7355234,-4.7925719 c 0.082031,-0.3164062 0.09375,-0.3867187 0.65625,-0.3867187 0.1875,0 0.28125,0 0.28125,-0.1523438 0,-0.1054687 -0.1054687,-0.1054687 -0.2460937,-0.1054687 h -1.03125 c -0.2109375,0 -0.234375,0 -0.3398438,0.1523437 L 4.0441172,-0.73788437 3.3409922,-5.2261656 c -0.035156,-0.1992188 -0.035156,-0.2109375 -0.28125,-0.2109375 h -1.078125 c -0.140625,0 -0.2460938,0 -0.2460938,0.140625 0,0.1171875 0.1054688,0.1171875 0.234375,0.1171875 0.2578125,0 0.4921875,0 0.4921875,0.1289062 0,0.035156 -0.011719,0.035156 -0.035156,0.140625 l -1.0078125,4.05468753 c -0.09375,0.3984375 -0.3046875,0.57421875 -0.83203126,0.59765625 -0.046875,0 -0.15234375,0 -0.15234375,0.140625 0,0.05859375 0.046875,0.117187495 0.12890625,0.117187495 0.0234375,0 0.2109375,-0.023437495 0.78515626,-0.023437495 0.6328125,0 0.75,0.023437495 0.8203125,0.023437495 0.035156,0 0.1523437,0 0.1523437,-0.152343745 0,-0.09375 -0.09375,-0.10546875 -0.140625,-0.10546875 -0.2929687,-0.0117188 -0.5273437,-0.0585938 -0.5273437,-0.33984375 0,-0.0351563 0.023437,-0.15234375 0.023437,-0.1640625 l 1.078125,-4.32421873 h 0.011719 l 0.7734375,4.87499998 c 0.023437,0.12890625 0.035156,0.210937495 0.140625,0.210937495 0.1171875,0 0.1640625,-0.082031245 0.2226563,-0.164062495 L 7.1730234,-5.1441344 h 0.011719 l -1.125,4.51171878 c -0.070312,0.3046875 -0.09375,0.375 -0.6796875,0.375 -0.1523438,0 -0.2460938,0 -0.2460938,0.140625 0,0.03515625 0.023437,0.117187495 0.1289063,0.117187495 0.1054687,0 0.3398437,-0.011718745 0.4570312,-0.023437495 h 0.5039063 c 0.7382812,0 0.9375,0.023437495 0.984375,0.023437495 0.046875,0 0.1640625,0 0.1640625,-0.152343745 0,-0.10546875 -0.1054688,-0.10546875 -0.234375,-0.10546875 -0.023437,0 -0.1757813,0 -0.3046875,-0.0234375 -0.1757813,-0.0117188 -0.1875,-0.0351563 -0.1875,-0.10546875 0,-0.046875 0.011719,-0.09375 0.023437,-0.12890625 z m 0,0"
         style="fill:#000000;fill-opacity:1;fill-rule:nonzero;stroke:none" />
      <path
         id="path28"
         d="m 9.8947031,-0.87265 c 0.5039059,0 0.8437499,0.33984375 0.8437499,0.94921875 0,0.65625 -0.386719,0.93750005 -0.8320311,0.93750005 -0.1523438,0 -0.7734375,-0.0351563 -1.0429688,-0.37500005 0.234375,-0.0234375 0.328125,-0.1875 0.328125,-0.33984375 0,-0.2109375 -0.140625,-0.33984375 -0.3398437,-0.33984375 -0.1640625,0 -0.3398438,0.09375 -0.3398438,0.3515625 0,0.5859375 0.65625,0.92578125 1.4179688,0.92578125 0.8789066,0 1.4765626,-0.57421875 1.4765626,-1.16015625 0,-0.43359375 -0.339844,-0.90234375 -1.042969,-1.07812495 0.46875,-0.1523438 0.855469,-0.5390625 0.855469,-1.03125 0,-0.4804688 -0.5625,-0.8320313 -1.2773439,-0.8320313 -0.703125,0 -1.2421875,0.3164063 -1.2421875,0.8085938 0,0.2578125 0.1992188,0.328125 0.3164063,0.328125 0.1640625,0 0.328125,-0.1054688 0.328125,-0.3164063 0,-0.1875 -0.140625,-0.2929687 -0.2929688,-0.3164062 0.2695313,-0.3046875 0.8203125,-0.3046875 0.8671875,-0.3046875 0.3046874,0 0.6914064,0.140625 0.6914064,0.6328125 0,0.328125 -0.1875,0.9023437 -0.7851564,0.9375 -0.1054687,0.011719 -0.2695312,0.023437 -0.3164062,0.023437 -0.058594,0 -0.1289063,0.011719 -0.1289063,0.1054687 0,0.09375 0.070312,0.09375 0.1640625,0.09375 z m 0,0"
         style="fill:#000000;fill-opacity:1;fill-rule:nonzero;stroke:none" />
      <path
         id="path29"
         d="m 16.621266,17.777741 c 0.808593,-0.269532 1.394531,-0.972657 1.394531,-1.757813 0,-0.820312 -0.878906,-1.371094 -1.839844,-1.371094 -1.007812,0 -1.757812,0.597657 -1.757812,1.347657 0,0.339843 0.210937,0.527343 0.503906,0.527343 0.304687,0 0.503906,-0.222656 0.503906,-0.515625 0,-0.492187 -0.46875,-0.492187 -0.609375,-0.492187 0.304688,-0.492188 0.960938,-0.621094 1.324219,-0.621094 0.410156,0 0.949219,0.222656 0.949219,1.113281 0,0.128907 -0.01172,0.703125 -0.269532,1.136719 -0.304687,0.480469 -0.644531,0.515625 -0.890625,0.515625 -0.08203,0.01172 -0.316406,0.03516 -0.386718,0.03516 -0.08203,0.01172 -0.152344,0.02344 -0.152344,0.117188 0,0.117187 0.07031,0.117187 0.234375,0.117187 h 0.445312 c 0.808594,0 1.183594,0.667969 1.183594,1.652344 0,1.347656 -0.691406,1.640625 -1.125,1.640625 -0.433594,0 -1.171875,-0.175781 -1.523437,-0.761719 0.351562,0.05859 0.65625,-0.164062 0.65625,-0.539062 0,-0.363281 -0.269532,-0.5625 -0.5625,-0.5625 -0.234375,0 -0.550782,0.140625 -0.550782,0.574219 0,0.914062 0.925782,1.570312 2.003907,1.570312 1.21875,0 2.121093,-0.914062 2.121093,-1.921875 0,-0.820312 -0.621093,-1.59375 -1.652343,-1.804687 z m 0,0"
         style="fill:#000000;fill-opacity:1;fill-rule:nonzero;stroke:none" />
    </g>
    <path
       id="path30"
       d="M 979.977,412.703 1157.68,590.398"
       style="fill:none;stroke:#000000;stroke-width:3.985;stroke-linecap:butt;stroke-linejoin:miter;stroke-miterlimit:10;stroke-dasharray:none;stroke-opacity:1"
       transform="matrix(0.13333333,0,0,-0.13333333,0,111.4)" />
    <g
       id="g30"
       aria-label="M&#10;4&#10;4"
       transform="matrix(1.3333333,0,0,1.3333333,128.71453,39.4724)">
      <path
         id="path31"
         d="m 7.7346078,-4.7927766 c 0.082031,-0.3164062 0.09375,-0.3867187 0.65625,-0.3867187 0.1875,0 0.28125,0 0.28125,-0.1523438 0,-0.1054687 -0.1054687,-0.1054687 -0.2460937,-0.1054687 h -1.03125 c -0.2109375,0 -0.234375,0 -0.3398438,0.1523437 L 4.0432016,-0.73808906 3.3400766,-5.2263703 c -0.035156,-0.1992188 -0.035156,-0.2109375 -0.28125,-0.2109375 h -1.078125 c -0.140625,0 -0.2460938,0 -0.2460938,0.140625 0,0.1171875 0.1054688,0.1171875 0.234375,0.1171875 0.2578125,0 0.4921875,0 0.4921875,0.1289062 0,0.035156 -0.011719,0.035156 -0.035156,0.140625 l -1.0078125,4.05468754 c -0.09375,0.3984375 -0.3046875,0.57421875 -0.83203129,0.59765625 -0.046875,0 -0.15234375,0 -0.15234375,0.140625 0,0.05859375 0.046875,0.1171874975 0.12890625,0.1171874975 0.0234375,0 0.2109375,-0.0234374975 0.78515629,-0.0234374975 0.6328125,0 0.75,0.0234374975 0.8203125,0.0234374975 0.035156,0 0.1523437,0 0.1523437,-0.1523437475 0,-0.09375 -0.09375,-0.10546875 -0.140625,-0.10546875 -0.2929687,-0.0117188 -0.5273437,-0.0585938 -0.5273437,-0.33984375 0,-0.0351563 0.023437,-0.15234375 0.023437,-0.1640625 l 1.078125,-4.32421874 h 0.011719 l 0.7734375,4.87499999 c 0.023437,0.12890625 0.035156,0.2109374975 0.140625,0.2109374975 0.1171875,0 0.1640625,-0.0820312475 0.2226563,-0.1640624975 L 7.1721078,-5.1443391 h 0.011719 l -1.125,4.51171879 c -0.070312,0.3046875 -0.09375,0.375 -0.6796875,0.375 -0.1523438,0 -0.2460938,0 -0.2460938,0.140625 0,0.03515625 0.023437,0.1171874975 0.1289063,0.1171874975 0.1054687,0 0.3398437,-0.0117187475 0.4570312,-0.0234374975 h 0.5039063 c 0.7382812,0 0.9375,0.0234374975 0.984375,0.0234374975 0.046875,0 0.1640625,0 0.1640625,-0.1523437475 0,-0.10546875 -0.1054688,-0.10546875 -0.234375,-0.10546875 -0.023437,0 -0.1757813,0 -0.3046875,-0.0234375 -0.1757813,-0.0117188 -0.1875,-0.0351563 -0.1875,-0.10546875 0,-0.046875 0.011719,-0.09375 0.023437,-0.12890625 z m 0,0"
         style="fill:#000000;fill-opacity:1;fill-rule:nonzero;stroke:none" />
      <path
         id="path32"
         d="m 11.510975,0.12323906 v -0.234375 H 10.80785 V -2.7478547 c 0,-0.140625 0,-0.1757812 -0.152344,-0.1757812 -0.105468,0 -0.117187,0.011719 -0.175781,0.082031 l -2.0742187,2.73046876 v 0.234375 h 1.8632817 v 0.48046875 c 0,0.19921875 0,0.26953125 -0.5039067,0.26953125 H 9.5891 V 1.1076141 c 0.1289063,-0.011719 0.691406,-0.023437 0.949219,-0.023437 0.257812,0 0.820312,0.011719 0.949219,0.023437 V 0.87323906 h -0.175782 c -0.503906,0 -0.503906,-0.0703125 -0.503906,-0.26953125 V 0.12323906 Z M 10.315663,-2.2791047 v 2.16796876 H 8.6633188 Z m 0,0"
         style="fill:#000000;fill-opacity:1;fill-rule:nonzero;stroke:none" />
      <path
         id="path33"
         d="m 26.821522,-10.675589 v 0.8671874 c 0,0.3515625 -0.02344,0.46875 -0.761719,0.46875 h -0.210937 v 0.3046875 c 0.410156,-0.035156 0.9375,-0.035156 1.347656,-0.035156 0.421875,0 0.949219,0 1.359375,0.035156 v -0.3046875 h -0.210938 c -0.738281,0 -0.761718,-0.1171875 -0.761718,-0.46875 v -0.8671874 h 0.996093 v -0.316406 h -0.996093 v -4.523438 c 0,-0.199219 0,-0.257812 -0.152344,-0.257812 -0.09375,0 -0.117188,0 -0.199219,0.117187 l -3.058594,4.664063 v 0.316406 z m 0.05859,-0.316406 H 24.45433 l 2.425782,-3.714844 z m 0,0"
         style="fill:#000000;fill-opacity:1;fill-rule:nonzero;stroke:none" />
    </g>
  </g>
</svg>
